%TF.GenerationSoftware,KiCad,Pcbnew,8.0.8-8.0.8-0~ubuntu24.04.1*%
%TF.CreationDate,2025-07-02T11:23:48+09:00*%
%TF.ProjectId,multicopter2,6d756c74-6963-46f7-9074-6572322e6b69,rev?*%
%TF.SameCoordinates,Original*%
%TF.FileFunction,Legend,Bot*%
%TF.FilePolarity,Positive*%
%FSLAX46Y46*%
G04 Gerber Fmt 4.6, Leading zero omitted, Abs format (unit mm)*
G04 Created by KiCad (PCBNEW 8.0.8-8.0.8-0~ubuntu24.04.1) date 2025-07-02 11:23:48*
%MOMM*%
%LPD*%
G01*
G04 APERTURE LIST*
%ADD10C,0.150000*%
%ADD11C,0.120000*%
G04 APERTURE END LIST*
D10*
X118926666Y-92989580D02*
X118974285Y-93037200D01*
X118974285Y-93037200D02*
X119117142Y-93084819D01*
X119117142Y-93084819D02*
X119212380Y-93084819D01*
X119212380Y-93084819D02*
X119355237Y-93037200D01*
X119355237Y-93037200D02*
X119450475Y-92941961D01*
X119450475Y-92941961D02*
X119498094Y-92846723D01*
X119498094Y-92846723D02*
X119545713Y-92656247D01*
X119545713Y-92656247D02*
X119545713Y-92513390D01*
X119545713Y-92513390D02*
X119498094Y-92322914D01*
X119498094Y-92322914D02*
X119450475Y-92227676D01*
X119450475Y-92227676D02*
X119355237Y-92132438D01*
X119355237Y-92132438D02*
X119212380Y-92084819D01*
X119212380Y-92084819D02*
X119117142Y-92084819D01*
X119117142Y-92084819D02*
X118974285Y-92132438D01*
X118974285Y-92132438D02*
X118926666Y-92180057D01*
X117974285Y-93084819D02*
X118545713Y-93084819D01*
X118259999Y-93084819D02*
X118259999Y-92084819D01*
X118259999Y-92084819D02*
X118355237Y-92227676D01*
X118355237Y-92227676D02*
X118450475Y-92322914D01*
X118450475Y-92322914D02*
X118545713Y-92370533D01*
X100656666Y-126469580D02*
X100704285Y-126517200D01*
X100704285Y-126517200D02*
X100847142Y-126564819D01*
X100847142Y-126564819D02*
X100942380Y-126564819D01*
X100942380Y-126564819D02*
X101085237Y-126517200D01*
X101085237Y-126517200D02*
X101180475Y-126421961D01*
X101180475Y-126421961D02*
X101228094Y-126326723D01*
X101228094Y-126326723D02*
X101275713Y-126136247D01*
X101275713Y-126136247D02*
X101275713Y-125993390D01*
X101275713Y-125993390D02*
X101228094Y-125802914D01*
X101228094Y-125802914D02*
X101180475Y-125707676D01*
X101180475Y-125707676D02*
X101085237Y-125612438D01*
X101085237Y-125612438D02*
X100942380Y-125564819D01*
X100942380Y-125564819D02*
X100847142Y-125564819D01*
X100847142Y-125564819D02*
X100704285Y-125612438D01*
X100704285Y-125612438D02*
X100656666Y-125660057D01*
X100323332Y-125564819D02*
X99704285Y-125564819D01*
X99704285Y-125564819D02*
X100037618Y-125945771D01*
X100037618Y-125945771D02*
X99894761Y-125945771D01*
X99894761Y-125945771D02*
X99799523Y-125993390D01*
X99799523Y-125993390D02*
X99751904Y-126041009D01*
X99751904Y-126041009D02*
X99704285Y-126136247D01*
X99704285Y-126136247D02*
X99704285Y-126374342D01*
X99704285Y-126374342D02*
X99751904Y-126469580D01*
X99751904Y-126469580D02*
X99799523Y-126517200D01*
X99799523Y-126517200D02*
X99894761Y-126564819D01*
X99894761Y-126564819D02*
X100180475Y-126564819D01*
X100180475Y-126564819D02*
X100275713Y-126517200D01*
X100275713Y-126517200D02*
X100323332Y-126469580D01*
X119021666Y-107029580D02*
X119069285Y-107077200D01*
X119069285Y-107077200D02*
X119212142Y-107124819D01*
X119212142Y-107124819D02*
X119307380Y-107124819D01*
X119307380Y-107124819D02*
X119450237Y-107077200D01*
X119450237Y-107077200D02*
X119545475Y-106981961D01*
X119545475Y-106981961D02*
X119593094Y-106886723D01*
X119593094Y-106886723D02*
X119640713Y-106696247D01*
X119640713Y-106696247D02*
X119640713Y-106553390D01*
X119640713Y-106553390D02*
X119593094Y-106362914D01*
X119593094Y-106362914D02*
X119545475Y-106267676D01*
X119545475Y-106267676D02*
X119450237Y-106172438D01*
X119450237Y-106172438D02*
X119307380Y-106124819D01*
X119307380Y-106124819D02*
X119212142Y-106124819D01*
X119212142Y-106124819D02*
X119069285Y-106172438D01*
X119069285Y-106172438D02*
X119021666Y-106220057D01*
X118640713Y-106220057D02*
X118593094Y-106172438D01*
X118593094Y-106172438D02*
X118497856Y-106124819D01*
X118497856Y-106124819D02*
X118259761Y-106124819D01*
X118259761Y-106124819D02*
X118164523Y-106172438D01*
X118164523Y-106172438D02*
X118116904Y-106220057D01*
X118116904Y-106220057D02*
X118069285Y-106315295D01*
X118069285Y-106315295D02*
X118069285Y-106410533D01*
X118069285Y-106410533D02*
X118116904Y-106553390D01*
X118116904Y-106553390D02*
X118688332Y-107124819D01*
X118688332Y-107124819D02*
X118069285Y-107124819D01*
X100431904Y-118894819D02*
X100431904Y-119704342D01*
X100431904Y-119704342D02*
X100384285Y-119799580D01*
X100384285Y-119799580D02*
X100336666Y-119847200D01*
X100336666Y-119847200D02*
X100241428Y-119894819D01*
X100241428Y-119894819D02*
X100050952Y-119894819D01*
X100050952Y-119894819D02*
X99955714Y-119847200D01*
X99955714Y-119847200D02*
X99908095Y-119799580D01*
X99908095Y-119799580D02*
X99860476Y-119704342D01*
X99860476Y-119704342D02*
X99860476Y-118894819D01*
X98955714Y-118894819D02*
X99146190Y-118894819D01*
X99146190Y-118894819D02*
X99241428Y-118942438D01*
X99241428Y-118942438D02*
X99289047Y-118990057D01*
X99289047Y-118990057D02*
X99384285Y-119132914D01*
X99384285Y-119132914D02*
X99431904Y-119323390D01*
X99431904Y-119323390D02*
X99431904Y-119704342D01*
X99431904Y-119704342D02*
X99384285Y-119799580D01*
X99384285Y-119799580D02*
X99336666Y-119847200D01*
X99336666Y-119847200D02*
X99241428Y-119894819D01*
X99241428Y-119894819D02*
X99050952Y-119894819D01*
X99050952Y-119894819D02*
X98955714Y-119847200D01*
X98955714Y-119847200D02*
X98908095Y-119799580D01*
X98908095Y-119799580D02*
X98860476Y-119704342D01*
X98860476Y-119704342D02*
X98860476Y-119466247D01*
X98860476Y-119466247D02*
X98908095Y-119371009D01*
X98908095Y-119371009D02*
X98955714Y-119323390D01*
X98955714Y-119323390D02*
X99050952Y-119275771D01*
X99050952Y-119275771D02*
X99241428Y-119275771D01*
X99241428Y-119275771D02*
X99336666Y-119323390D01*
X99336666Y-119323390D02*
X99384285Y-119371009D01*
X99384285Y-119371009D02*
X99431904Y-119466247D01*
X94876666Y-125509580D02*
X94924285Y-125557200D01*
X94924285Y-125557200D02*
X95067142Y-125604819D01*
X95067142Y-125604819D02*
X95162380Y-125604819D01*
X95162380Y-125604819D02*
X95305237Y-125557200D01*
X95305237Y-125557200D02*
X95400475Y-125461961D01*
X95400475Y-125461961D02*
X95448094Y-125366723D01*
X95448094Y-125366723D02*
X95495713Y-125176247D01*
X95495713Y-125176247D02*
X95495713Y-125033390D01*
X95495713Y-125033390D02*
X95448094Y-124842914D01*
X95448094Y-124842914D02*
X95400475Y-124747676D01*
X95400475Y-124747676D02*
X95305237Y-124652438D01*
X95305237Y-124652438D02*
X95162380Y-124604819D01*
X95162380Y-124604819D02*
X95067142Y-124604819D01*
X95067142Y-124604819D02*
X94924285Y-124652438D01*
X94924285Y-124652438D02*
X94876666Y-124700057D01*
X94019523Y-124938152D02*
X94019523Y-125604819D01*
X94257618Y-124557200D02*
X94495713Y-125271485D01*
X94495713Y-125271485D02*
X93876666Y-125271485D01*
X100951904Y-73854819D02*
X100951904Y-74664342D01*
X100951904Y-74664342D02*
X100904285Y-74759580D01*
X100904285Y-74759580D02*
X100856666Y-74807200D01*
X100856666Y-74807200D02*
X100761428Y-74854819D01*
X100761428Y-74854819D02*
X100570952Y-74854819D01*
X100570952Y-74854819D02*
X100475714Y-74807200D01*
X100475714Y-74807200D02*
X100428095Y-74759580D01*
X100428095Y-74759580D02*
X100380476Y-74664342D01*
X100380476Y-74664342D02*
X100380476Y-73854819D01*
X99951904Y-73950057D02*
X99904285Y-73902438D01*
X99904285Y-73902438D02*
X99809047Y-73854819D01*
X99809047Y-73854819D02*
X99570952Y-73854819D01*
X99570952Y-73854819D02*
X99475714Y-73902438D01*
X99475714Y-73902438D02*
X99428095Y-73950057D01*
X99428095Y-73950057D02*
X99380476Y-74045295D01*
X99380476Y-74045295D02*
X99380476Y-74140533D01*
X99380476Y-74140533D02*
X99428095Y-74283390D01*
X99428095Y-74283390D02*
X99999523Y-74854819D01*
X99999523Y-74854819D02*
X99380476Y-74854819D01*
X81466666Y-104999580D02*
X81514285Y-105047200D01*
X81514285Y-105047200D02*
X81657142Y-105094819D01*
X81657142Y-105094819D02*
X81752380Y-105094819D01*
X81752380Y-105094819D02*
X81895237Y-105047200D01*
X81895237Y-105047200D02*
X81990475Y-104951961D01*
X81990475Y-104951961D02*
X82038094Y-104856723D01*
X82038094Y-104856723D02*
X82085713Y-104666247D01*
X82085713Y-104666247D02*
X82085713Y-104523390D01*
X82085713Y-104523390D02*
X82038094Y-104332914D01*
X82038094Y-104332914D02*
X81990475Y-104237676D01*
X81990475Y-104237676D02*
X81895237Y-104142438D01*
X81895237Y-104142438D02*
X81752380Y-104094819D01*
X81752380Y-104094819D02*
X81657142Y-104094819D01*
X81657142Y-104094819D02*
X81514285Y-104142438D01*
X81514285Y-104142438D02*
X81466666Y-104190057D01*
X80561904Y-104094819D02*
X81038094Y-104094819D01*
X81038094Y-104094819D02*
X81085713Y-104571009D01*
X81085713Y-104571009D02*
X81038094Y-104523390D01*
X81038094Y-104523390D02*
X80942856Y-104475771D01*
X80942856Y-104475771D02*
X80704761Y-104475771D01*
X80704761Y-104475771D02*
X80609523Y-104523390D01*
X80609523Y-104523390D02*
X80561904Y-104571009D01*
X80561904Y-104571009D02*
X80514285Y-104666247D01*
X80514285Y-104666247D02*
X80514285Y-104904342D01*
X80514285Y-104904342D02*
X80561904Y-104999580D01*
X80561904Y-104999580D02*
X80609523Y-105047200D01*
X80609523Y-105047200D02*
X80704761Y-105094819D01*
X80704761Y-105094819D02*
X80942856Y-105094819D01*
X80942856Y-105094819D02*
X81038094Y-105047200D01*
X81038094Y-105047200D02*
X81085713Y-104999580D01*
X118741094Y-98294819D02*
X118741094Y-97294819D01*
X118741094Y-97294819D02*
X118502999Y-97294819D01*
X118502999Y-97294819D02*
X118360142Y-97342438D01*
X118360142Y-97342438D02*
X118264904Y-97437676D01*
X118264904Y-97437676D02*
X118217285Y-97532914D01*
X118217285Y-97532914D02*
X118169666Y-97723390D01*
X118169666Y-97723390D02*
X118169666Y-97866247D01*
X118169666Y-97866247D02*
X118217285Y-98056723D01*
X118217285Y-98056723D02*
X118264904Y-98151961D01*
X118264904Y-98151961D02*
X118360142Y-98247200D01*
X118360142Y-98247200D02*
X118502999Y-98294819D01*
X118502999Y-98294819D02*
X118741094Y-98294819D01*
X117693475Y-98294819D02*
X117502999Y-98294819D01*
X117502999Y-98294819D02*
X117407761Y-98247200D01*
X117407761Y-98247200D02*
X117360142Y-98199580D01*
X117360142Y-98199580D02*
X117264904Y-98056723D01*
X117264904Y-98056723D02*
X117217285Y-97866247D01*
X117217285Y-97866247D02*
X117217285Y-97485295D01*
X117217285Y-97485295D02*
X117264904Y-97390057D01*
X117264904Y-97390057D02*
X117312523Y-97342438D01*
X117312523Y-97342438D02*
X117407761Y-97294819D01*
X117407761Y-97294819D02*
X117598237Y-97294819D01*
X117598237Y-97294819D02*
X117693475Y-97342438D01*
X117693475Y-97342438D02*
X117741094Y-97390057D01*
X117741094Y-97390057D02*
X117788713Y-97485295D01*
X117788713Y-97485295D02*
X117788713Y-97723390D01*
X117788713Y-97723390D02*
X117741094Y-97818628D01*
X117741094Y-97818628D02*
X117693475Y-97866247D01*
X117693475Y-97866247D02*
X117598237Y-97913866D01*
X117598237Y-97913866D02*
X117407761Y-97913866D01*
X117407761Y-97913866D02*
X117312523Y-97866247D01*
X117312523Y-97866247D02*
X117264904Y-97818628D01*
X117264904Y-97818628D02*
X117217285Y-97723390D01*
X81466666Y-91629580D02*
X81514285Y-91677200D01*
X81514285Y-91677200D02*
X81657142Y-91724819D01*
X81657142Y-91724819D02*
X81752380Y-91724819D01*
X81752380Y-91724819D02*
X81895237Y-91677200D01*
X81895237Y-91677200D02*
X81990475Y-91581961D01*
X81990475Y-91581961D02*
X82038094Y-91486723D01*
X82038094Y-91486723D02*
X82085713Y-91296247D01*
X82085713Y-91296247D02*
X82085713Y-91153390D01*
X82085713Y-91153390D02*
X82038094Y-90962914D01*
X82038094Y-90962914D02*
X81990475Y-90867676D01*
X81990475Y-90867676D02*
X81895237Y-90772438D01*
X81895237Y-90772438D02*
X81752380Y-90724819D01*
X81752380Y-90724819D02*
X81657142Y-90724819D01*
X81657142Y-90724819D02*
X81514285Y-90772438D01*
X81514285Y-90772438D02*
X81466666Y-90820057D01*
X80609523Y-90724819D02*
X80799999Y-90724819D01*
X80799999Y-90724819D02*
X80895237Y-90772438D01*
X80895237Y-90772438D02*
X80942856Y-90820057D01*
X80942856Y-90820057D02*
X81038094Y-90962914D01*
X81038094Y-90962914D02*
X81085713Y-91153390D01*
X81085713Y-91153390D02*
X81085713Y-91534342D01*
X81085713Y-91534342D02*
X81038094Y-91629580D01*
X81038094Y-91629580D02*
X80990475Y-91677200D01*
X80990475Y-91677200D02*
X80895237Y-91724819D01*
X80895237Y-91724819D02*
X80704761Y-91724819D01*
X80704761Y-91724819D02*
X80609523Y-91677200D01*
X80609523Y-91677200D02*
X80561904Y-91629580D01*
X80561904Y-91629580D02*
X80514285Y-91534342D01*
X80514285Y-91534342D02*
X80514285Y-91296247D01*
X80514285Y-91296247D02*
X80561904Y-91201009D01*
X80561904Y-91201009D02*
X80609523Y-91153390D01*
X80609523Y-91153390D02*
X80704761Y-91105771D01*
X80704761Y-91105771D02*
X80895237Y-91105771D01*
X80895237Y-91105771D02*
X80990475Y-91153390D01*
X80990475Y-91153390D02*
X81038094Y-91201009D01*
X81038094Y-91201009D02*
X81085713Y-91296247D01*
D11*
%TO.C,C1*%
X121229420Y-92070000D02*
X121510580Y-92070000D01*
X121229420Y-93090000D02*
X121510580Y-93090000D01*
%TO.C,C3*%
X102160000Y-126899420D02*
X102160000Y-127180580D01*
X103180000Y-126899420D02*
X103180000Y-127180580D01*
%TO.C,C2*%
X121289420Y-106200000D02*
X121570580Y-106200000D01*
X121289420Y-107220000D02*
X121570580Y-107220000D01*
%TO.C,U6*%
X90830000Y-120730000D02*
X90830000Y-123390000D01*
X90830000Y-120730000D02*
X106130000Y-120730000D01*
X90830000Y-123390000D02*
X106130000Y-123390000D01*
X106130000Y-120730000D02*
X106130000Y-123390000D01*
X107400000Y-120730000D02*
X108730000Y-120730000D01*
X108730000Y-120730000D02*
X108730000Y-122060000D01*
%TO.C,C4*%
X97070000Y-126896920D02*
X97070000Y-127178080D01*
X98090000Y-126896920D02*
X98090000Y-127178080D01*
%TO.C,U2*%
X91040000Y-78450000D02*
X91040000Y-77120000D01*
X92370000Y-78450000D02*
X91040000Y-78450000D01*
X93640000Y-78450000D02*
X93640000Y-75790000D01*
X108940000Y-75790000D02*
X93640000Y-75790000D01*
X108940000Y-78450000D02*
X93640000Y-78450000D01*
X108940000Y-78450000D02*
X108940000Y-75790000D01*
%TO.C,C5*%
X81465580Y-105560000D02*
X81184420Y-105560000D01*
X81465580Y-106580000D02*
X81184420Y-106580000D01*
%TO.C,D9*%
X115920000Y-98700000D02*
X115920000Y-100700000D01*
X119780000Y-98700000D02*
X115920000Y-98700000D01*
X119780000Y-100700000D02*
X115920000Y-100700000D01*
%TO.C,C6*%
X81480580Y-92160000D02*
X81199420Y-92160000D01*
X81480580Y-93180000D02*
X81199420Y-93180000D01*
%TD*%
M02*
