M48
; DRILL file {KiCad 8.0.8-8.0.8-0~ubuntu24.04.1} date 2025-07-02T11:23:35+0900
; FORMAT={-:-/ absolute / metric / decimal}
; #@! TF.CreationDate,2025-07-02T11:23:35+09:00
; #@! TF.GenerationSoftware,Kicad,Pcbnew,8.0.8-8.0.8-0~ubuntu24.04.1
; #@! TF.FileFunction,MixedPlating,1,2
FMAT,2
METRIC
; #@! TA.AperFunction,Plated,PTH,ViaDrill
T1C0.300
; #@! TA.AperFunction,Plated,PTH,ComponentDrill
T2C0.762
; #@! TA.AperFunction,Plated,PTH,ComponentDrill
T3C0.800
; #@! TA.AperFunction,Plated,PTH,ComponentDrill
T4C0.900
; #@! TA.AperFunction,Plated,PTH,ComponentDrill
T5C1.000
; #@! TA.AperFunction,Plated,PTH,ComponentDrill
T6C1.100
%
G90
G05
T1
X75.62Y-96.02
X79.66Y-91.66
X82.05Y-108.37
X82.68Y-90.84
X83.54Y-92.49
X84.879Y-110.361
X85.2Y-94.15
X85.59Y-87.48
X88.92Y-83.55
X89.63Y-95.86
X90.01Y-89.81
X91.77Y-111.39
X91.795Y-101.44
X91.82Y-113.41
X97.25Y-113.99
X98.25Y-84.6
X98.36Y-96.58
X98.39Y-104.77
X98.39Y-112.51
X99.86Y-115.61
X100.25Y-127.812
X100.25Y-128.43
X100.71Y-79.53
X101.49Y-106.2
X101.853Y-94.887
X102.52Y-97.85
X105.01Y-97.66
X105.18Y-94.97
X106.09Y-83.8
X107.34Y-106.93
X107.76Y-102.36
X107.95Y-90.55
X108.1Y-107.81
X108.45Y-94.06
X108.68Y-82.16
X116.69Y-94.28
X116.91Y-106.74
X117.62Y-108.54
X118.34Y-92.55
T2
X96.19Y-82.16
X96.19Y-84.7
X96.19Y-87.24
X96.19Y-96.19
X96.19Y-98.73
X96.19Y-101.27
X96.19Y-103.81
X103.81Y-82.16
X103.81Y-84.7
X103.81Y-87.24
X103.81Y-96.19
X103.81Y-98.73
X103.81Y-101.27
X103.81Y-103.81
T3
X122.96Y-96.98
X122.96Y-99.52
X122.96Y-102.06
T4
X87.3Y-77.165
X87.3Y-79.705
X87.3Y-82.245
X87.3Y-84.785
X87.3Y-87.325
X87.3Y-89.865
X87.3Y-92.405
X87.3Y-94.945
X87.3Y-97.485
X87.3Y-100.025
X87.3Y-102.565
X87.3Y-105.105
X87.3Y-107.645
X87.3Y-110.185
X87.3Y-112.725
X87.3Y-115.265
X87.3Y-117.805
X87.3Y-120.345
X87.3Y-122.885
X112.7Y-77.165
X112.7Y-79.705
X112.7Y-82.245
X112.7Y-84.785
X112.7Y-87.325
X112.7Y-89.865
X112.7Y-92.405
X112.7Y-94.945
X112.7Y-97.485
X112.7Y-100.025
X112.7Y-102.565
X112.7Y-105.105
X112.7Y-107.645
X112.7Y-110.185
X112.7Y-112.725
X112.7Y-115.265
X112.7Y-117.805
X112.7Y-120.345
X112.7Y-122.885
T5
X74.87Y-111.89
X74.957Y-87.906
X76.14Y-114.09
X76.227Y-85.706
X90.498Y-126.673
X92.16Y-122.06
X92.37Y-77.12
X92.952Y-127.33
X94.7Y-122.06
X94.91Y-77.12
X97.24Y-122.06
X97.45Y-77.12
X99.78Y-122.06
X99.99Y-77.12
X102.32Y-122.06
X102.53Y-77.12
X104.86Y-122.06
X105.07Y-77.12
X106.818Y-127.357
X107.4Y-122.06
X107.61Y-77.12
X109.272Y-126.7
X123.35Y-114.99
X123.88Y-85.86
X124.62Y-112.79
X125.15Y-88.06
X127.91Y-98.32
X127.91Y-100.86
T6
X72.27Y-97.31
X72.27Y-101.81
X78.77Y-97.31
X78.77Y-101.81
M30
