%TF.GenerationSoftware,KiCad,Pcbnew,8.0.8-8.0.8-0~ubuntu24.04.1*%
%TF.CreationDate,2025-07-02T11:23:48+09:00*%
%TF.ProjectId,multicopter2,6d756c74-6963-46f7-9074-6572322e6b69,rev?*%
%TF.SameCoordinates,Original*%
%TF.FileFunction,Soldermask,Top*%
%TF.FilePolarity,Negative*%
%FSLAX46Y46*%
G04 Gerber Fmt 4.6, Leading zero omitted, Abs format (unit mm)*
G04 Created by KiCad (PCBNEW 8.0.8-8.0.8-0~ubuntu24.04.1) date 2025-07-02 11:23:48*
%MOMM*%
%LPD*%
G01*
G04 APERTURE LIST*
G04 Aperture macros list*
%AMRoundRect*
0 Rectangle with rounded corners*
0 $1 Rounding radius*
0 $2 $3 $4 $5 $6 $7 $8 $9 X,Y pos of 4 corners*
0 Add a 4 corners polygon primitive as box body*
4,1,4,$2,$3,$4,$5,$6,$7,$8,$9,$2,$3,0*
0 Add four circle primitives for the rounded corners*
1,1,$1+$1,$2,$3*
1,1,$1+$1,$4,$5*
1,1,$1+$1,$6,$7*
1,1,$1+$1,$8,$9*
0 Add four rect primitives between the rounded corners*
20,1,$1+$1,$2,$3,$4,$5,0*
20,1,$1+$1,$4,$5,$6,$7,0*
20,1,$1+$1,$6,$7,$8,$9,0*
20,1,$1+$1,$8,$9,$2,$3,0*%
%AMHorizOval*
0 Thick line with rounded ends*
0 $1 width*
0 $2 $3 position (X,Y) of the first rounded end (center of the circle)*
0 $4 $5 position (X,Y) of the second rounded end (center of the circle)*
0 Add line between two ends*
20,1,$1,$2,$3,$4,$5,0*
0 Add two circle primitives to create the rounded ends*
1,1,$1,$2,$3*
1,1,$1,$4,$5*%
%AMRotRect*
0 Rectangle, with rotation*
0 The origin of the aperture is its center*
0 $1 length*
0 $2 width*
0 $3 Rotation angle, in degrees counterclockwise*
0 Add horizontal line*
21,1,$1,$2,0,0,$3*%
G04 Aperture macros list end*
%ADD10RoundRect,0.150000X0.150000X-0.587500X0.150000X0.587500X-0.150000X0.587500X-0.150000X-0.587500X0*%
%ADD11C,1.524000*%
%ADD12RoundRect,0.200000X0.200000X0.275000X-0.200000X0.275000X-0.200000X-0.275000X0.200000X-0.275000X0*%
%ADD13R,1.500000X1.500000*%
%ADD14C,1.600000*%
%ADD15RoundRect,0.150000X-0.150000X0.587500X-0.150000X-0.587500X0.150000X-0.587500X0.150000X0.587500X0*%
%ADD16C,2.000000*%
%ADD17RoundRect,0.200000X-0.200000X-0.275000X0.200000X-0.275000X0.200000X0.275000X-0.200000X0.275000X0*%
%ADD18RoundRect,0.250000X-0.300000X0.300000X-0.300000X-0.300000X0.300000X-0.300000X0.300000X0.300000X0*%
%ADD19RotRect,1.700000X1.700000X210.000000*%
%ADD20HorizOval,1.700000X0.000000X0.000000X0.000000X0.000000X0*%
%ADD21RoundRect,0.250000X0.300000X-0.300000X0.300000X0.300000X-0.300000X0.300000X-0.300000X-0.300000X0*%
%ADD22RotRect,1.700000X1.700000X330.000000*%
%ADD23HorizOval,1.700000X0.000000X0.000000X0.000000X0.000000X0*%
%ADD24RotRect,1.700000X1.700000X285.000000*%
%ADD25HorizOval,1.700000X0.000000X0.000000X0.000000X0.000000X0*%
%ADD26RoundRect,0.102000X-0.704000X-0.704000X0.704000X-0.704000X0.704000X0.704000X-0.704000X0.704000X0*%
%ADD27C,1.612000*%
%ADD28RoundRect,0.218750X-0.218750X-0.256250X0.218750X-0.256250X0.218750X0.256250X-0.218750X0.256250X0*%
%ADD29R,1.700000X1.700000*%
%ADD30O,1.700000X1.700000*%
%ADD31RotRect,1.700000X1.700000X30.000000*%
%ADD32HorizOval,1.700000X0.000000X0.000000X0.000000X0.000000X0*%
%ADD33RotRect,1.700000X1.700000X255.000000*%
%ADD34HorizOval,1.700000X0.000000X0.000000X0.000000X0.000000X0*%
G04 APERTURE END LIST*
D10*
%TO.C,Q1*%
X115780000Y-89070000D03*
X117680000Y-89070000D03*
X116730000Y-87195000D03*
%TD*%
D11*
%TO.C,U4*%
X96190000Y-82160000D03*
X96190000Y-84700000D03*
X96190000Y-87240000D03*
X103810000Y-87240000D03*
X103810000Y-84700000D03*
X103810000Y-82160000D03*
%TD*%
D12*
%TO.C,R1*%
X109560000Y-84410000D03*
X107910000Y-84410000D03*
%TD*%
%TO.C,R9*%
X91830000Y-96790000D03*
X90180000Y-96790000D03*
%TD*%
D13*
%TO.C,SW3*%
X122960000Y-99520000D03*
D14*
X122960000Y-96980000D03*
X122960000Y-102060000D03*
%TD*%
D15*
%TO.C,Q4*%
X92077500Y-117182500D03*
X90177500Y-117182500D03*
X91127500Y-119057500D03*
%TD*%
D16*
%TO.C,SW1*%
X78770000Y-101810000D03*
X72270000Y-101810000D03*
X78770000Y-97310000D03*
X72270000Y-97310000D03*
%TD*%
D15*
%TO.C,Q3*%
X109972500Y-117192500D03*
X108072500Y-117192500D03*
X109022500Y-119067500D03*
%TD*%
D12*
%TO.C,R6*%
X91765000Y-110570000D03*
X90115000Y-110570000D03*
%TD*%
D17*
%TO.C,R7*%
X108405000Y-114080000D03*
X110055000Y-114080000D03*
%TD*%
D12*
%TO.C,R4*%
X109435000Y-99560000D03*
X107785000Y-99560000D03*
%TD*%
D18*
%TO.C,D7*%
X79830000Y-86890000D03*
X79830000Y-89690000D03*
%TD*%
D10*
%TO.C,Q6*%
X82120000Y-89167500D03*
X84020000Y-89167500D03*
X83070000Y-87292500D03*
%TD*%
D19*
%TO.C,M5*%
X76140000Y-114090000D03*
D20*
X74870000Y-111890295D03*
%TD*%
D21*
%TO.C,D6*%
X79470000Y-112670000D03*
X79470000Y-109870000D03*
%TD*%
D18*
%TO.C,D2*%
X120420000Y-110350000D03*
X120420000Y-113150000D03*
%TD*%
D12*
%TO.C,R10*%
X91780000Y-84610000D03*
X90130000Y-84610000D03*
%TD*%
%TO.C,R2*%
X109465000Y-96660000D03*
X107815000Y-96660000D03*
%TD*%
D22*
%TO.C,M2*%
X124620000Y-112790000D03*
D23*
X123350000Y-114989705D03*
%TD*%
D24*
%TO.C,M3*%
X109271556Y-126700006D03*
D25*
X106818104Y-127357406D03*
%TD*%
D11*
%TO.C,U3*%
X96190000Y-96190000D03*
X96190000Y-98730000D03*
X96190000Y-101270000D03*
X96190000Y-103810000D03*
X103810000Y-103810000D03*
X103810000Y-101270000D03*
X103810000Y-98730000D03*
X103810000Y-96190000D03*
%TD*%
D17*
%TO.C,R3*%
X107960000Y-87430000D03*
X109610000Y-87430000D03*
%TD*%
D26*
%TO.C,U1*%
X87300000Y-77165000D03*
D27*
X87300000Y-79705000D03*
X87300000Y-82245000D03*
X87300000Y-84785000D03*
X87300000Y-87325000D03*
X87300000Y-89865000D03*
X87300000Y-92405000D03*
X87300000Y-94945000D03*
X87300000Y-97485000D03*
X87300000Y-100025000D03*
X87300000Y-102565000D03*
X87300000Y-105105000D03*
X87300000Y-107645000D03*
X87300000Y-110185000D03*
X87300000Y-112725000D03*
X87300000Y-115265000D03*
X87300000Y-117805000D03*
X87300000Y-120345000D03*
X87300000Y-122885000D03*
X112700000Y-77165000D03*
X112700000Y-79705000D03*
X112700000Y-82245000D03*
X112700000Y-84785000D03*
X112700000Y-87325000D03*
X112700000Y-89865000D03*
X112700000Y-92405000D03*
X112700000Y-94945000D03*
X112700000Y-97485000D03*
X112700000Y-100025000D03*
X112700000Y-102565000D03*
X112700000Y-105105000D03*
X112700000Y-107645000D03*
X112700000Y-110185000D03*
X112700000Y-112725000D03*
X112700000Y-115265000D03*
X112700000Y-117805000D03*
X112700000Y-120345000D03*
X112700000Y-122885000D03*
%TD*%
D12*
%TO.C,R15*%
X83775000Y-96590000D03*
X82125000Y-96590000D03*
%TD*%
D28*
%TO.C,D5*%
X82132500Y-102490000D03*
X83707500Y-102490000D03*
%TD*%
D18*
%TO.C,D1*%
X120320000Y-86717500D03*
X120320000Y-89517500D03*
%TD*%
D21*
%TO.C,D4*%
X97590000Y-128430000D03*
X97590000Y-125630000D03*
%TD*%
D17*
%TO.C,R12*%
X90115000Y-87680000D03*
X91765000Y-87680000D03*
%TD*%
D22*
%TO.C,M6*%
X76227500Y-85705818D03*
D23*
X74957500Y-87905523D03*
%TD*%
D29*
%TO.C,J2*%
X127910000Y-98320000D03*
D30*
X127910000Y-100860000D03*
%TD*%
D15*
%TO.C,Q5*%
X83782500Y-110352500D03*
X81882500Y-110352500D03*
X82832500Y-112227500D03*
%TD*%
D12*
%TO.C,R22*%
X83775000Y-99520000D03*
X82125000Y-99520000D03*
%TD*%
%TO.C,R5*%
X110055000Y-110500000D03*
X108405000Y-110500000D03*
%TD*%
D31*
%TO.C,M1*%
X123880000Y-85860000D03*
D32*
X125150000Y-88059705D03*
%TD*%
D33*
%TO.C,M4*%
X92951556Y-127329994D03*
D34*
X90498104Y-126672594D03*
%TD*%
D15*
%TO.C,Q2*%
X117780000Y-110800000D03*
X115880000Y-110800000D03*
X116830000Y-112675000D03*
%TD*%
D21*
%TO.C,D3*%
X102690000Y-128457500D03*
X102690000Y-125657500D03*
%TD*%
D17*
%TO.C,R8*%
X90185000Y-114330000D03*
X91835000Y-114330000D03*
%TD*%
%TO.C,R11*%
X90160000Y-99840000D03*
X91810000Y-99840000D03*
%TD*%
D29*
%TO.C,U6*%
X107400000Y-122060000D03*
D30*
X104860000Y-122060000D03*
X102320000Y-122060000D03*
X99780000Y-122060000D03*
X97240000Y-122060000D03*
X94700000Y-122060000D03*
X92160000Y-122060000D03*
%TD*%
D29*
%TO.C,U2*%
X92370000Y-77120000D03*
D30*
X94910000Y-77120000D03*
X97450000Y-77120000D03*
X99990000Y-77120000D03*
X102530000Y-77120000D03*
X105070000Y-77120000D03*
X107610000Y-77120000D03*
%TD*%
M02*
