%TF.GenerationSoftware,KiCad,Pcbnew,8.0.8-8.0.8-0~ubuntu24.04.1*%
%TF.CreationDate,2025-07-02T11:23:48+09:00*%
%TF.ProjectId,multicopter2,6d756c74-6963-46f7-9074-6572322e6b69,rev?*%
%TF.SameCoordinates,Original*%
%TF.FileFunction,Paste,Top*%
%TF.FilePolarity,Positive*%
%FSLAX46Y46*%
G04 Gerber Fmt 4.6, Leading zero omitted, Abs format (unit mm)*
G04 Created by KiCad (PCBNEW 8.0.8-8.0.8-0~ubuntu24.04.1) date 2025-07-02 11:23:48*
%MOMM*%
%LPD*%
G01*
G04 APERTURE LIST*
G04 Aperture macros list*
%AMRoundRect*
0 Rectangle with rounded corners*
0 $1 Rounding radius*
0 $2 $3 $4 $5 $6 $7 $8 $9 X,Y pos of 4 corners*
0 Add a 4 corners polygon primitive as box body*
4,1,4,$2,$3,$4,$5,$6,$7,$8,$9,$2,$3,0*
0 Add four circle primitives for the rounded corners*
1,1,$1+$1,$2,$3*
1,1,$1+$1,$4,$5*
1,1,$1+$1,$6,$7*
1,1,$1+$1,$8,$9*
0 Add four rect primitives between the rounded corners*
20,1,$1+$1,$2,$3,$4,$5,0*
20,1,$1+$1,$4,$5,$6,$7,0*
20,1,$1+$1,$6,$7,$8,$9,0*
20,1,$1+$1,$8,$9,$2,$3,0*%
G04 Aperture macros list end*
%ADD10RoundRect,0.150000X0.150000X-0.587500X0.150000X0.587500X-0.150000X0.587500X-0.150000X-0.587500X0*%
%ADD11RoundRect,0.200000X0.200000X0.275000X-0.200000X0.275000X-0.200000X-0.275000X0.200000X-0.275000X0*%
%ADD12RoundRect,0.150000X-0.150000X0.587500X-0.150000X-0.587500X0.150000X-0.587500X0.150000X0.587500X0*%
%ADD13RoundRect,0.200000X-0.200000X-0.275000X0.200000X-0.275000X0.200000X0.275000X-0.200000X0.275000X0*%
%ADD14RoundRect,0.250000X-0.300000X0.300000X-0.300000X-0.300000X0.300000X-0.300000X0.300000X0.300000X0*%
%ADD15RoundRect,0.250000X0.300000X-0.300000X0.300000X0.300000X-0.300000X0.300000X-0.300000X-0.300000X0*%
%ADD16RoundRect,0.218750X-0.218750X-0.256250X0.218750X-0.256250X0.218750X0.256250X-0.218750X0.256250X0*%
G04 APERTURE END LIST*
D10*
%TO.C,Q1*%
X115780000Y-89070000D03*
X117680000Y-89070000D03*
X116730000Y-87195000D03*
%TD*%
D11*
%TO.C,R1*%
X109560000Y-84410000D03*
X107910000Y-84410000D03*
%TD*%
%TO.C,R9*%
X91830000Y-96790000D03*
X90180000Y-96790000D03*
%TD*%
D12*
%TO.C,Q4*%
X92077500Y-117182500D03*
X90177500Y-117182500D03*
X91127500Y-119057500D03*
%TD*%
%TO.C,Q3*%
X109972500Y-117192500D03*
X108072500Y-117192500D03*
X109022500Y-119067500D03*
%TD*%
D11*
%TO.C,R6*%
X91765000Y-110570000D03*
X90115000Y-110570000D03*
%TD*%
D13*
%TO.C,R7*%
X108405000Y-114080000D03*
X110055000Y-114080000D03*
%TD*%
D11*
%TO.C,R4*%
X109435000Y-99560000D03*
X107785000Y-99560000D03*
%TD*%
D14*
%TO.C,D7*%
X79830000Y-86890000D03*
X79830000Y-89690000D03*
%TD*%
D10*
%TO.C,Q6*%
X82120000Y-89167500D03*
X84020000Y-89167500D03*
X83070000Y-87292500D03*
%TD*%
D15*
%TO.C,D6*%
X79470000Y-112670000D03*
X79470000Y-109870000D03*
%TD*%
D14*
%TO.C,D2*%
X120420000Y-110350000D03*
X120420000Y-113150000D03*
%TD*%
D11*
%TO.C,R10*%
X91780000Y-84610000D03*
X90130000Y-84610000D03*
%TD*%
%TO.C,R2*%
X109465000Y-96660000D03*
X107815000Y-96660000D03*
%TD*%
D13*
%TO.C,R3*%
X107960000Y-87430000D03*
X109610000Y-87430000D03*
%TD*%
D11*
%TO.C,R15*%
X83775000Y-96590000D03*
X82125000Y-96590000D03*
%TD*%
D16*
%TO.C,D5*%
X82132500Y-102490000D03*
X83707500Y-102490000D03*
%TD*%
D14*
%TO.C,D1*%
X120320000Y-86717500D03*
X120320000Y-89517500D03*
%TD*%
D15*
%TO.C,D4*%
X97590000Y-128430000D03*
X97590000Y-125630000D03*
%TD*%
D13*
%TO.C,R12*%
X90115000Y-87680000D03*
X91765000Y-87680000D03*
%TD*%
D12*
%TO.C,Q5*%
X83782500Y-110352500D03*
X81882500Y-110352500D03*
X82832500Y-112227500D03*
%TD*%
D11*
%TO.C,R22*%
X83775000Y-99520000D03*
X82125000Y-99520000D03*
%TD*%
%TO.C,R5*%
X110055000Y-110500000D03*
X108405000Y-110500000D03*
%TD*%
D12*
%TO.C,Q2*%
X117780000Y-110800000D03*
X115880000Y-110800000D03*
X116830000Y-112675000D03*
%TD*%
D15*
%TO.C,D3*%
X102690000Y-128457500D03*
X102690000Y-125657500D03*
%TD*%
D13*
%TO.C,R8*%
X90185000Y-114330000D03*
X91835000Y-114330000D03*
%TD*%
%TO.C,R11*%
X90160000Y-99840000D03*
X91810000Y-99840000D03*
%TD*%
M02*
