M48
METRIC,TZ
T1C0.300
T2C0.750
T3C0.900
T4C1.000
%
G90
G05
T1
X76650Y-92740
X77810Y-90600
X78060Y-83400
X79450Y-70640
X82910Y-114510
X85060Y-101140
X90537Y-97293
X91445Y-96450
X92660Y-102960
X93280Y-111820
X93715Y-96145
X94080Y-88920
X94280Y-116590
X94820Y-120570
X95150Y-80930
X95540Y-70520
X96480Y-87090
X96700Y-90130
X97430Y-66430
X99250Y-106230
X99940Y-89865
X100250Y-98585
X100600Y-92815
X100750Y-86360
X100910Y-109800
X101570Y-92815
X102253Y-96323
X102280Y-73870
X102540Y-79420
X102600Y-65330
X103130Y-116960
X103640Y-88540
X104735Y-89859
X104890Y-67460
X105664Y-85934
X106250Y-85390
X106470Y-89160
X106610Y-79390
X106645Y-91930
X107360Y-65340
X107880Y-92780
X109490Y-100090
X109790Y-117050
X115050Y-93130
X116100Y-99280
X116135Y-101580
X117540Y-71270
X117710Y-94600
X119420Y-113610
X121860Y-99100
X122625Y-101485
X123950Y-101770
X123990Y-93150
X125770Y-98010
T2
X82580Y-104830
X82580Y-106830
X82650Y-77640
X82650Y-79640
X94060Y-82820
X94160Y-101470
X96060Y-82820
X96160Y-101470
X98060Y-82820
X98160Y-101470
X99150Y-69320
X99290Y-115070
X100060Y-82820
X100160Y-101470
X101150Y-69320
X101290Y-115070
X102060Y-82820
X102160Y-101470
X104060Y-82820
X104160Y-101470
X106060Y-82820
X106160Y-101470
X117410Y-105230
X117410Y-107230
X117490Y-77040
X117490Y-79040
T3
X87485Y-69655
X87485Y-72195
X87485Y-74735
X87485Y-77275
X87485Y-79815
X87485Y-82355
X87485Y-84895
X87485Y-87435
X87485Y-89975
X87485Y-92515
X87485Y-95055
X87485Y-97595
X87485Y-100135
X87485Y-102675
X87485Y-105215
X87485Y-107755
X87485Y-110295
X87485Y-112835
X87485Y-115375
X112885Y-69655
X112885Y-72195
X112885Y-74735
X112885Y-77275
X112885Y-79815
X112885Y-82355
X112885Y-84895
X112885Y-87435
X112885Y-89975
X112885Y-92515
X112885Y-95055
X112885Y-97595
X112885Y-100135
X112885Y-102675
X112885Y-105215
X112885Y-107755
X112885Y-110295
X112885Y-112835
X112885Y-115375
T4
X127800Y-91325
X127800Y-93865
M30
