G04 #@! TF.GenerationSoftware,KiCad,Pcbnew,8.0.8-8.0.8-0~ubuntu24.04.1*
G04 #@! TF.CreationDate,2025-03-31T18:32:50+09:00*
G04 #@! TF.ProjectId,multicopter,6d756c74-6963-46f7-9074-65722e6b6963,rev?*
G04 #@! TF.SameCoordinates,Original*
G04 #@! TF.FileFunction,Soldermask,Bot*
G04 #@! TF.FilePolarity,Negative*
%FSLAX46Y46*%
G04 Gerber Fmt 4.6, Leading zero omitted, Abs format (unit mm)*
G04 Created by KiCad (PCBNEW 8.0.8-8.0.8-0~ubuntu24.04.1) date 2025-03-31 18:32:50*
%MOMM*%
%LPD*%
G01*
G04 APERTURE LIST*
G04 Aperture macros list*
%AMRoundRect*
0 Rectangle with rounded corners*
0 $1 Rounding radius*
0 $2 $3 $4 $5 $6 $7 $8 $9 X,Y pos of 4 corners*
0 Add a 4 corners polygon primitive as box body*
4,1,4,$2,$3,$4,$5,$6,$7,$8,$9,$2,$3,0*
0 Add four circle primitives for the rounded corners*
1,1,$1+$1,$2,$3*
1,1,$1+$1,$4,$5*
1,1,$1+$1,$6,$7*
1,1,$1+$1,$8,$9*
0 Add four rect primitives between the rounded corners*
20,1,$1+$1,$2,$3,$4,$5,0*
20,1,$1+$1,$4,$5,$6,$7,0*
20,1,$1+$1,$6,$7,$8,$9,0*
20,1,$1+$1,$8,$9,$2,$3,0*%
G04 Aperture macros list end*
%ADD10RoundRect,0.250000X-0.625000X0.350000X-0.625000X-0.350000X0.625000X-0.350000X0.625000X0.350000X0*%
%ADD11O,1.750000X1.200000*%
%ADD12RoundRect,0.250000X0.625000X-0.350000X0.625000X0.350000X-0.625000X0.350000X-0.625000X-0.350000X0*%
%ADD13RoundRect,0.250000X0.350000X0.625000X-0.350000X0.625000X-0.350000X-0.625000X0.350000X-0.625000X0*%
%ADD14O,1.200000X1.750000*%
%ADD15RoundRect,0.250000X-0.350000X-0.625000X0.350000X-0.625000X0.350000X0.625000X-0.350000X0.625000X0*%
%ADD16R,1.700000X1.700000*%
%ADD17O,1.700000X1.700000*%
%ADD18RoundRect,0.102000X-0.704000X-0.704000X0.704000X-0.704000X0.704000X0.704000X-0.704000X0.704000X0*%
%ADD19C,1.612000*%
%ADD20R,1.903000X2.790000*%
G04 APERTURE END LIST*
D10*
X82580000Y-104830000D03*
D11*
X82580000Y-106830000D03*
D10*
X82650000Y-77640000D03*
D11*
X82650000Y-79640000D03*
D12*
X117410000Y-107230000D03*
D11*
X117410000Y-105230000D03*
D12*
X117490000Y-79040000D03*
D11*
X117490000Y-77040000D03*
D13*
X101150000Y-69320000D03*
D14*
X99150000Y-69320000D03*
D15*
X99290000Y-115070000D03*
D14*
X101290000Y-115070000D03*
D16*
X127800000Y-91325000D03*
D17*
X127800000Y-93865000D03*
D18*
X87485000Y-69655000D03*
D19*
X87485000Y-72195000D03*
X87485000Y-74735000D03*
X87485000Y-77275000D03*
X87485000Y-79815000D03*
X87485000Y-82355000D03*
X87485000Y-84895000D03*
X87485000Y-87435000D03*
X87485000Y-89975000D03*
X87485000Y-92515000D03*
X87485000Y-95055000D03*
X87485000Y-97595000D03*
X87485000Y-100135000D03*
X87485000Y-102675000D03*
X87485000Y-105215000D03*
X87485000Y-107755000D03*
X87485000Y-110295000D03*
X87485000Y-112835000D03*
X87485000Y-115375000D03*
X112885000Y-69655000D03*
X112885000Y-72195000D03*
X112885000Y-74735000D03*
X112885000Y-77275000D03*
X112885000Y-79815000D03*
X112885000Y-82355000D03*
X112885000Y-84895000D03*
X112885000Y-87435000D03*
X112885000Y-89975000D03*
X112885000Y-92515000D03*
X112885000Y-95055000D03*
X112885000Y-97595000D03*
X112885000Y-100135000D03*
X112885000Y-102675000D03*
X112885000Y-105215000D03*
X112885000Y-107755000D03*
X112885000Y-110295000D03*
X112885000Y-112835000D03*
X112885000Y-115375000D03*
D13*
X106160000Y-101470000D03*
D14*
X104160000Y-101470000D03*
X102160000Y-101470000D03*
X100160000Y-101470000D03*
X98160000Y-101470000D03*
X96160000Y-101470000D03*
X94160000Y-101470000D03*
D20*
X122416500Y-90480000D03*
X117563500Y-90480000D03*
D15*
X94060000Y-82820000D03*
D14*
X96060000Y-82820000D03*
X98060000Y-82820000D03*
X100060000Y-82820000D03*
X102060000Y-82820000D03*
X104060000Y-82820000D03*
X106060000Y-82820000D03*
M02*
