G04 #@! TF.GenerationSoftware,KiCad,Pcbnew,8.0.8-8.0.8-0~ubuntu24.04.1*
G04 #@! TF.CreationDate,2025-03-31T18:32:50+09:00*
G04 #@! TF.ProjectId,multicopter,6d756c74-6963-46f7-9074-65722e6b6963,rev?*
G04 #@! TF.SameCoordinates,Original*
G04 #@! TF.FileFunction,Legend,Top*
G04 #@! TF.FilePolarity,Positive*
%FSLAX46Y46*%
G04 Gerber Fmt 4.6, Leading zero omitted, Abs format (unit mm)*
G04 Created by KiCad (PCBNEW 8.0.8-8.0.8-0~ubuntu24.04.1) date 2025-03-31 18:32:50*
%MOMM*%
%LPD*%
G01*
G04 APERTURE LIST*
%ADD10C,0.150000*%
%ADD11C,0.120000*%
%ADD12C,0.100000*%
%ADD13C,0.127000*%
%ADD14C,0.200000*%
G04 APERTURE END LIST*
D10*
X78662142Y-86254819D02*
X78328809Y-85778628D01*
X78090714Y-86254819D02*
X78090714Y-85254819D01*
X78090714Y-85254819D02*
X78471666Y-85254819D01*
X78471666Y-85254819D02*
X78566904Y-85302438D01*
X78566904Y-85302438D02*
X78614523Y-85350057D01*
X78614523Y-85350057D02*
X78662142Y-85445295D01*
X78662142Y-85445295D02*
X78662142Y-85588152D01*
X78662142Y-85588152D02*
X78614523Y-85683390D01*
X78614523Y-85683390D02*
X78566904Y-85731009D01*
X78566904Y-85731009D02*
X78471666Y-85778628D01*
X78471666Y-85778628D02*
X78090714Y-85778628D01*
X79614523Y-86254819D02*
X79043095Y-86254819D01*
X79328809Y-86254819D02*
X79328809Y-85254819D01*
X79328809Y-85254819D02*
X79233571Y-85397676D01*
X79233571Y-85397676D02*
X79138333Y-85492914D01*
X79138333Y-85492914D02*
X79043095Y-85540533D01*
X80090714Y-86254819D02*
X80281190Y-86254819D01*
X80281190Y-86254819D02*
X80376428Y-86207200D01*
X80376428Y-86207200D02*
X80424047Y-86159580D01*
X80424047Y-86159580D02*
X80519285Y-86016723D01*
X80519285Y-86016723D02*
X80566904Y-85826247D01*
X80566904Y-85826247D02*
X80566904Y-85445295D01*
X80566904Y-85445295D02*
X80519285Y-85350057D01*
X80519285Y-85350057D02*
X80471666Y-85302438D01*
X80471666Y-85302438D02*
X80376428Y-85254819D01*
X80376428Y-85254819D02*
X80185952Y-85254819D01*
X80185952Y-85254819D02*
X80090714Y-85302438D01*
X80090714Y-85302438D02*
X80043095Y-85350057D01*
X80043095Y-85350057D02*
X79995476Y-85445295D01*
X79995476Y-85445295D02*
X79995476Y-85683390D01*
X79995476Y-85683390D02*
X80043095Y-85778628D01*
X80043095Y-85778628D02*
X80090714Y-85826247D01*
X80090714Y-85826247D02*
X80185952Y-85873866D01*
X80185952Y-85873866D02*
X80376428Y-85873866D01*
X80376428Y-85873866D02*
X80471666Y-85826247D01*
X80471666Y-85826247D02*
X80519285Y-85778628D01*
X80519285Y-85778628D02*
X80566904Y-85683390D01*
X92573333Y-118119580D02*
X92525714Y-118167200D01*
X92525714Y-118167200D02*
X92382857Y-118214819D01*
X92382857Y-118214819D02*
X92287619Y-118214819D01*
X92287619Y-118214819D02*
X92144762Y-118167200D01*
X92144762Y-118167200D02*
X92049524Y-118071961D01*
X92049524Y-118071961D02*
X92001905Y-117976723D01*
X92001905Y-117976723D02*
X91954286Y-117786247D01*
X91954286Y-117786247D02*
X91954286Y-117643390D01*
X91954286Y-117643390D02*
X92001905Y-117452914D01*
X92001905Y-117452914D02*
X92049524Y-117357676D01*
X92049524Y-117357676D02*
X92144762Y-117262438D01*
X92144762Y-117262438D02*
X92287619Y-117214819D01*
X92287619Y-117214819D02*
X92382857Y-117214819D01*
X92382857Y-117214819D02*
X92525714Y-117262438D01*
X92525714Y-117262438D02*
X92573333Y-117310057D01*
X93430476Y-117548152D02*
X93430476Y-118214819D01*
X93192381Y-117167200D02*
X92954286Y-117881485D01*
X92954286Y-117881485D02*
X93573333Y-117881485D01*
X102448333Y-74324819D02*
X102115000Y-73848628D01*
X101876905Y-74324819D02*
X101876905Y-73324819D01*
X101876905Y-73324819D02*
X102257857Y-73324819D01*
X102257857Y-73324819D02*
X102353095Y-73372438D01*
X102353095Y-73372438D02*
X102400714Y-73420057D01*
X102400714Y-73420057D02*
X102448333Y-73515295D01*
X102448333Y-73515295D02*
X102448333Y-73658152D01*
X102448333Y-73658152D02*
X102400714Y-73753390D01*
X102400714Y-73753390D02*
X102353095Y-73801009D01*
X102353095Y-73801009D02*
X102257857Y-73848628D01*
X102257857Y-73848628D02*
X101876905Y-73848628D01*
X102781667Y-73324819D02*
X103400714Y-73324819D01*
X103400714Y-73324819D02*
X103067381Y-73705771D01*
X103067381Y-73705771D02*
X103210238Y-73705771D01*
X103210238Y-73705771D02*
X103305476Y-73753390D01*
X103305476Y-73753390D02*
X103353095Y-73801009D01*
X103353095Y-73801009D02*
X103400714Y-73896247D01*
X103400714Y-73896247D02*
X103400714Y-74134342D01*
X103400714Y-74134342D02*
X103353095Y-74229580D01*
X103353095Y-74229580D02*
X103305476Y-74277200D01*
X103305476Y-74277200D02*
X103210238Y-74324819D01*
X103210238Y-74324819D02*
X102924524Y-74324819D01*
X102924524Y-74324819D02*
X102829286Y-74277200D01*
X102829286Y-74277200D02*
X102781667Y-74229580D01*
X125334761Y-104020057D02*
X125239523Y-103972438D01*
X125239523Y-103972438D02*
X125144285Y-103877200D01*
X125144285Y-103877200D02*
X125001428Y-103734342D01*
X125001428Y-103734342D02*
X124906190Y-103686723D01*
X124906190Y-103686723D02*
X124810952Y-103686723D01*
X124858571Y-103924819D02*
X124763333Y-103877200D01*
X124763333Y-103877200D02*
X124668095Y-103781961D01*
X124668095Y-103781961D02*
X124620476Y-103591485D01*
X124620476Y-103591485D02*
X124620476Y-103258152D01*
X124620476Y-103258152D02*
X124668095Y-103067676D01*
X124668095Y-103067676D02*
X124763333Y-102972438D01*
X124763333Y-102972438D02*
X124858571Y-102924819D01*
X124858571Y-102924819D02*
X125049047Y-102924819D01*
X125049047Y-102924819D02*
X125144285Y-102972438D01*
X125144285Y-102972438D02*
X125239523Y-103067676D01*
X125239523Y-103067676D02*
X125287142Y-103258152D01*
X125287142Y-103258152D02*
X125287142Y-103591485D01*
X125287142Y-103591485D02*
X125239523Y-103781961D01*
X125239523Y-103781961D02*
X125144285Y-103877200D01*
X125144285Y-103877200D02*
X125049047Y-103924819D01*
X125049047Y-103924819D02*
X124858571Y-103924819D01*
X125620476Y-102924819D02*
X126239523Y-102924819D01*
X126239523Y-102924819D02*
X125906190Y-103305771D01*
X125906190Y-103305771D02*
X126049047Y-103305771D01*
X126049047Y-103305771D02*
X126144285Y-103353390D01*
X126144285Y-103353390D02*
X126191904Y-103401009D01*
X126191904Y-103401009D02*
X126239523Y-103496247D01*
X126239523Y-103496247D02*
X126239523Y-103734342D01*
X126239523Y-103734342D02*
X126191904Y-103829580D01*
X126191904Y-103829580D02*
X126144285Y-103877200D01*
X126144285Y-103877200D02*
X126049047Y-103924819D01*
X126049047Y-103924819D02*
X125763333Y-103924819D01*
X125763333Y-103924819D02*
X125668095Y-103877200D01*
X125668095Y-103877200D02*
X125620476Y-103829580D01*
X93967142Y-89574819D02*
X93633809Y-89098628D01*
X93395714Y-89574819D02*
X93395714Y-88574819D01*
X93395714Y-88574819D02*
X93776666Y-88574819D01*
X93776666Y-88574819D02*
X93871904Y-88622438D01*
X93871904Y-88622438D02*
X93919523Y-88670057D01*
X93919523Y-88670057D02*
X93967142Y-88765295D01*
X93967142Y-88765295D02*
X93967142Y-88908152D01*
X93967142Y-88908152D02*
X93919523Y-89003390D01*
X93919523Y-89003390D02*
X93871904Y-89051009D01*
X93871904Y-89051009D02*
X93776666Y-89098628D01*
X93776666Y-89098628D02*
X93395714Y-89098628D01*
X94919523Y-89574819D02*
X94348095Y-89574819D01*
X94633809Y-89574819D02*
X94633809Y-88574819D01*
X94633809Y-88574819D02*
X94538571Y-88717676D01*
X94538571Y-88717676D02*
X94443333Y-88812914D01*
X94443333Y-88812914D02*
X94348095Y-88860533D01*
X95538571Y-88574819D02*
X95633809Y-88574819D01*
X95633809Y-88574819D02*
X95729047Y-88622438D01*
X95729047Y-88622438D02*
X95776666Y-88670057D01*
X95776666Y-88670057D02*
X95824285Y-88765295D01*
X95824285Y-88765295D02*
X95871904Y-88955771D01*
X95871904Y-88955771D02*
X95871904Y-89193866D01*
X95871904Y-89193866D02*
X95824285Y-89384342D01*
X95824285Y-89384342D02*
X95776666Y-89479580D01*
X95776666Y-89479580D02*
X95729047Y-89527200D01*
X95729047Y-89527200D02*
X95633809Y-89574819D01*
X95633809Y-89574819D02*
X95538571Y-89574819D01*
X95538571Y-89574819D02*
X95443333Y-89527200D01*
X95443333Y-89527200D02*
X95395714Y-89479580D01*
X95395714Y-89479580D02*
X95348095Y-89384342D01*
X95348095Y-89384342D02*
X95300476Y-89193866D01*
X95300476Y-89193866D02*
X95300476Y-88955771D01*
X95300476Y-88955771D02*
X95348095Y-88765295D01*
X95348095Y-88765295D02*
X95395714Y-88670057D01*
X95395714Y-88670057D02*
X95443333Y-88622438D01*
X95443333Y-88622438D02*
X95538571Y-88574819D01*
X116013333Y-68789580D02*
X115965714Y-68837200D01*
X115965714Y-68837200D02*
X115822857Y-68884819D01*
X115822857Y-68884819D02*
X115727619Y-68884819D01*
X115727619Y-68884819D02*
X115584762Y-68837200D01*
X115584762Y-68837200D02*
X115489524Y-68741961D01*
X115489524Y-68741961D02*
X115441905Y-68646723D01*
X115441905Y-68646723D02*
X115394286Y-68456247D01*
X115394286Y-68456247D02*
X115394286Y-68313390D01*
X115394286Y-68313390D02*
X115441905Y-68122914D01*
X115441905Y-68122914D02*
X115489524Y-68027676D01*
X115489524Y-68027676D02*
X115584762Y-67932438D01*
X115584762Y-67932438D02*
X115727619Y-67884819D01*
X115727619Y-67884819D02*
X115822857Y-67884819D01*
X115822857Y-67884819D02*
X115965714Y-67932438D01*
X115965714Y-67932438D02*
X116013333Y-67980057D01*
X116394286Y-67980057D02*
X116441905Y-67932438D01*
X116441905Y-67932438D02*
X116537143Y-67884819D01*
X116537143Y-67884819D02*
X116775238Y-67884819D01*
X116775238Y-67884819D02*
X116870476Y-67932438D01*
X116870476Y-67932438D02*
X116918095Y-67980057D01*
X116918095Y-67980057D02*
X116965714Y-68075295D01*
X116965714Y-68075295D02*
X116965714Y-68170533D01*
X116965714Y-68170533D02*
X116918095Y-68313390D01*
X116918095Y-68313390D02*
X116346667Y-68884819D01*
X116346667Y-68884819D02*
X116965714Y-68884819D01*
X117765595Y-98404819D02*
X117765595Y-99214342D01*
X117765595Y-99214342D02*
X117813214Y-99309580D01*
X117813214Y-99309580D02*
X117860833Y-99357200D01*
X117860833Y-99357200D02*
X117956071Y-99404819D01*
X117956071Y-99404819D02*
X118146547Y-99404819D01*
X118146547Y-99404819D02*
X118241785Y-99357200D01*
X118241785Y-99357200D02*
X118289404Y-99309580D01*
X118289404Y-99309580D02*
X118337023Y-99214342D01*
X118337023Y-99214342D02*
X118337023Y-98404819D01*
X118765595Y-98500057D02*
X118813214Y-98452438D01*
X118813214Y-98452438D02*
X118908452Y-98404819D01*
X118908452Y-98404819D02*
X119146547Y-98404819D01*
X119146547Y-98404819D02*
X119241785Y-98452438D01*
X119241785Y-98452438D02*
X119289404Y-98500057D01*
X119289404Y-98500057D02*
X119337023Y-98595295D01*
X119337023Y-98595295D02*
X119337023Y-98690533D01*
X119337023Y-98690533D02*
X119289404Y-98833390D01*
X119289404Y-98833390D02*
X118717976Y-99404819D01*
X118717976Y-99404819D02*
X119337023Y-99404819D01*
X102468333Y-109274819D02*
X102135000Y-108798628D01*
X101896905Y-109274819D02*
X101896905Y-108274819D01*
X101896905Y-108274819D02*
X102277857Y-108274819D01*
X102277857Y-108274819D02*
X102373095Y-108322438D01*
X102373095Y-108322438D02*
X102420714Y-108370057D01*
X102420714Y-108370057D02*
X102468333Y-108465295D01*
X102468333Y-108465295D02*
X102468333Y-108608152D01*
X102468333Y-108608152D02*
X102420714Y-108703390D01*
X102420714Y-108703390D02*
X102373095Y-108751009D01*
X102373095Y-108751009D02*
X102277857Y-108798628D01*
X102277857Y-108798628D02*
X101896905Y-108798628D01*
X103325476Y-108274819D02*
X103135000Y-108274819D01*
X103135000Y-108274819D02*
X103039762Y-108322438D01*
X103039762Y-108322438D02*
X102992143Y-108370057D01*
X102992143Y-108370057D02*
X102896905Y-108512914D01*
X102896905Y-108512914D02*
X102849286Y-108703390D01*
X102849286Y-108703390D02*
X102849286Y-109084342D01*
X102849286Y-109084342D02*
X102896905Y-109179580D01*
X102896905Y-109179580D02*
X102944524Y-109227200D01*
X102944524Y-109227200D02*
X103039762Y-109274819D01*
X103039762Y-109274819D02*
X103230238Y-109274819D01*
X103230238Y-109274819D02*
X103325476Y-109227200D01*
X103325476Y-109227200D02*
X103373095Y-109179580D01*
X103373095Y-109179580D02*
X103420714Y-109084342D01*
X103420714Y-109084342D02*
X103420714Y-108846247D01*
X103420714Y-108846247D02*
X103373095Y-108751009D01*
X103373095Y-108751009D02*
X103325476Y-108703390D01*
X103325476Y-108703390D02*
X103230238Y-108655771D01*
X103230238Y-108655771D02*
X103039762Y-108655771D01*
X103039762Y-108655771D02*
X102944524Y-108703390D01*
X102944524Y-108703390D02*
X102896905Y-108751009D01*
X102896905Y-108751009D02*
X102849286Y-108846247D01*
X73800476Y-105314819D02*
X73800476Y-104314819D01*
X73800476Y-104314819D02*
X74133809Y-105029104D01*
X74133809Y-105029104D02*
X74467142Y-104314819D01*
X74467142Y-104314819D02*
X74467142Y-105314819D01*
X75419523Y-104314819D02*
X74943333Y-104314819D01*
X74943333Y-104314819D02*
X74895714Y-104791009D01*
X74895714Y-104791009D02*
X74943333Y-104743390D01*
X74943333Y-104743390D02*
X75038571Y-104695771D01*
X75038571Y-104695771D02*
X75276666Y-104695771D01*
X75276666Y-104695771D02*
X75371904Y-104743390D01*
X75371904Y-104743390D02*
X75419523Y-104791009D01*
X75419523Y-104791009D02*
X75467142Y-104886247D01*
X75467142Y-104886247D02*
X75467142Y-105124342D01*
X75467142Y-105124342D02*
X75419523Y-105219580D01*
X75419523Y-105219580D02*
X75371904Y-105267200D01*
X75371904Y-105267200D02*
X75276666Y-105314819D01*
X75276666Y-105314819D02*
X75038571Y-105314819D01*
X75038571Y-105314819D02*
X74943333Y-105267200D01*
X74943333Y-105267200D02*
X74895714Y-105219580D01*
X73730476Y-80274819D02*
X73730476Y-79274819D01*
X73730476Y-79274819D02*
X74063809Y-79989104D01*
X74063809Y-79989104D02*
X74397142Y-79274819D01*
X74397142Y-79274819D02*
X74397142Y-80274819D01*
X75301904Y-79274819D02*
X75111428Y-79274819D01*
X75111428Y-79274819D02*
X75016190Y-79322438D01*
X75016190Y-79322438D02*
X74968571Y-79370057D01*
X74968571Y-79370057D02*
X74873333Y-79512914D01*
X74873333Y-79512914D02*
X74825714Y-79703390D01*
X74825714Y-79703390D02*
X74825714Y-80084342D01*
X74825714Y-80084342D02*
X74873333Y-80179580D01*
X74873333Y-80179580D02*
X74920952Y-80227200D01*
X74920952Y-80227200D02*
X75016190Y-80274819D01*
X75016190Y-80274819D02*
X75206666Y-80274819D01*
X75206666Y-80274819D02*
X75301904Y-80227200D01*
X75301904Y-80227200D02*
X75349523Y-80179580D01*
X75349523Y-80179580D02*
X75397142Y-80084342D01*
X75397142Y-80084342D02*
X75397142Y-79846247D01*
X75397142Y-79846247D02*
X75349523Y-79751009D01*
X75349523Y-79751009D02*
X75301904Y-79703390D01*
X75301904Y-79703390D02*
X75206666Y-79655771D01*
X75206666Y-79655771D02*
X75016190Y-79655771D01*
X75016190Y-79655771D02*
X74920952Y-79703390D01*
X74920952Y-79703390D02*
X74873333Y-79751009D01*
X74873333Y-79751009D02*
X74825714Y-79846247D01*
X124670476Y-106144819D02*
X124670476Y-105144819D01*
X124670476Y-105144819D02*
X125003809Y-105859104D01*
X125003809Y-105859104D02*
X125337142Y-105144819D01*
X125337142Y-105144819D02*
X125337142Y-106144819D01*
X125718095Y-105144819D02*
X126337142Y-105144819D01*
X126337142Y-105144819D02*
X126003809Y-105525771D01*
X126003809Y-105525771D02*
X126146666Y-105525771D01*
X126146666Y-105525771D02*
X126241904Y-105573390D01*
X126241904Y-105573390D02*
X126289523Y-105621009D01*
X126289523Y-105621009D02*
X126337142Y-105716247D01*
X126337142Y-105716247D02*
X126337142Y-105954342D01*
X126337142Y-105954342D02*
X126289523Y-106049580D01*
X126289523Y-106049580D02*
X126241904Y-106097200D01*
X126241904Y-106097200D02*
X126146666Y-106144819D01*
X126146666Y-106144819D02*
X125860952Y-106144819D01*
X125860952Y-106144819D02*
X125765714Y-106097200D01*
X125765714Y-106097200D02*
X125718095Y-106049580D01*
X74394761Y-82280057D02*
X74299523Y-82232438D01*
X74299523Y-82232438D02*
X74204285Y-82137200D01*
X74204285Y-82137200D02*
X74061428Y-81994342D01*
X74061428Y-81994342D02*
X73966190Y-81946723D01*
X73966190Y-81946723D02*
X73870952Y-81946723D01*
X73918571Y-82184819D02*
X73823333Y-82137200D01*
X73823333Y-82137200D02*
X73728095Y-82041961D01*
X73728095Y-82041961D02*
X73680476Y-81851485D01*
X73680476Y-81851485D02*
X73680476Y-81518152D01*
X73680476Y-81518152D02*
X73728095Y-81327676D01*
X73728095Y-81327676D02*
X73823333Y-81232438D01*
X73823333Y-81232438D02*
X73918571Y-81184819D01*
X73918571Y-81184819D02*
X74109047Y-81184819D01*
X74109047Y-81184819D02*
X74204285Y-81232438D01*
X74204285Y-81232438D02*
X74299523Y-81327676D01*
X74299523Y-81327676D02*
X74347142Y-81518152D01*
X74347142Y-81518152D02*
X74347142Y-81851485D01*
X74347142Y-81851485D02*
X74299523Y-82041961D01*
X74299523Y-82041961D02*
X74204285Y-82137200D01*
X74204285Y-82137200D02*
X74109047Y-82184819D01*
X74109047Y-82184819D02*
X73918571Y-82184819D01*
X75204285Y-81184819D02*
X75013809Y-81184819D01*
X75013809Y-81184819D02*
X74918571Y-81232438D01*
X74918571Y-81232438D02*
X74870952Y-81280057D01*
X74870952Y-81280057D02*
X74775714Y-81422914D01*
X74775714Y-81422914D02*
X74728095Y-81613390D01*
X74728095Y-81613390D02*
X74728095Y-81994342D01*
X74728095Y-81994342D02*
X74775714Y-82089580D01*
X74775714Y-82089580D02*
X74823333Y-82137200D01*
X74823333Y-82137200D02*
X74918571Y-82184819D01*
X74918571Y-82184819D02*
X75109047Y-82184819D01*
X75109047Y-82184819D02*
X75204285Y-82137200D01*
X75204285Y-82137200D02*
X75251904Y-82089580D01*
X75251904Y-82089580D02*
X75299523Y-81994342D01*
X75299523Y-81994342D02*
X75299523Y-81756247D01*
X75299523Y-81756247D02*
X75251904Y-81661009D01*
X75251904Y-81661009D02*
X75204285Y-81613390D01*
X75204285Y-81613390D02*
X75109047Y-81565771D01*
X75109047Y-81565771D02*
X74918571Y-81565771D01*
X74918571Y-81565771D02*
X74823333Y-81613390D01*
X74823333Y-81613390D02*
X74775714Y-81661009D01*
X74775714Y-81661009D02*
X74728095Y-81756247D01*
X115998333Y-116219580D02*
X115950714Y-116267200D01*
X115950714Y-116267200D02*
X115807857Y-116314819D01*
X115807857Y-116314819D02*
X115712619Y-116314819D01*
X115712619Y-116314819D02*
X115569762Y-116267200D01*
X115569762Y-116267200D02*
X115474524Y-116171961D01*
X115474524Y-116171961D02*
X115426905Y-116076723D01*
X115426905Y-116076723D02*
X115379286Y-115886247D01*
X115379286Y-115886247D02*
X115379286Y-115743390D01*
X115379286Y-115743390D02*
X115426905Y-115552914D01*
X115426905Y-115552914D02*
X115474524Y-115457676D01*
X115474524Y-115457676D02*
X115569762Y-115362438D01*
X115569762Y-115362438D02*
X115712619Y-115314819D01*
X115712619Y-115314819D02*
X115807857Y-115314819D01*
X115807857Y-115314819D02*
X115950714Y-115362438D01*
X115950714Y-115362438D02*
X115998333Y-115410057D01*
X116331667Y-115314819D02*
X116950714Y-115314819D01*
X116950714Y-115314819D02*
X116617381Y-115695771D01*
X116617381Y-115695771D02*
X116760238Y-115695771D01*
X116760238Y-115695771D02*
X116855476Y-115743390D01*
X116855476Y-115743390D02*
X116903095Y-115791009D01*
X116903095Y-115791009D02*
X116950714Y-115886247D01*
X116950714Y-115886247D02*
X116950714Y-116124342D01*
X116950714Y-116124342D02*
X116903095Y-116219580D01*
X116903095Y-116219580D02*
X116855476Y-116267200D01*
X116855476Y-116267200D02*
X116760238Y-116314819D01*
X116760238Y-116314819D02*
X116474524Y-116314819D01*
X116474524Y-116314819D02*
X116379286Y-116267200D01*
X116379286Y-116267200D02*
X116331667Y-116219580D01*
X78567142Y-99624819D02*
X78233809Y-99148628D01*
X77995714Y-99624819D02*
X77995714Y-98624819D01*
X77995714Y-98624819D02*
X78376666Y-98624819D01*
X78376666Y-98624819D02*
X78471904Y-98672438D01*
X78471904Y-98672438D02*
X78519523Y-98720057D01*
X78519523Y-98720057D02*
X78567142Y-98815295D01*
X78567142Y-98815295D02*
X78567142Y-98958152D01*
X78567142Y-98958152D02*
X78519523Y-99053390D01*
X78519523Y-99053390D02*
X78471904Y-99101009D01*
X78471904Y-99101009D02*
X78376666Y-99148628D01*
X78376666Y-99148628D02*
X77995714Y-99148628D01*
X79519523Y-99624819D02*
X78948095Y-99624819D01*
X79233809Y-99624819D02*
X79233809Y-98624819D01*
X79233809Y-98624819D02*
X79138571Y-98767676D01*
X79138571Y-98767676D02*
X79043333Y-98862914D01*
X79043333Y-98862914D02*
X78948095Y-98910533D01*
X79852857Y-98624819D02*
X80519523Y-98624819D01*
X80519523Y-98624819D02*
X80090952Y-99624819D01*
X116223333Y-100634819D02*
X115890000Y-100158628D01*
X115651905Y-100634819D02*
X115651905Y-99634819D01*
X115651905Y-99634819D02*
X116032857Y-99634819D01*
X116032857Y-99634819D02*
X116128095Y-99682438D01*
X116128095Y-99682438D02*
X116175714Y-99730057D01*
X116175714Y-99730057D02*
X116223333Y-99825295D01*
X116223333Y-99825295D02*
X116223333Y-99968152D01*
X116223333Y-99968152D02*
X116175714Y-100063390D01*
X116175714Y-100063390D02*
X116128095Y-100111009D01*
X116128095Y-100111009D02*
X116032857Y-100158628D01*
X116032857Y-100158628D02*
X115651905Y-100158628D01*
X117128095Y-99634819D02*
X116651905Y-99634819D01*
X116651905Y-99634819D02*
X116604286Y-100111009D01*
X116604286Y-100111009D02*
X116651905Y-100063390D01*
X116651905Y-100063390D02*
X116747143Y-100015771D01*
X116747143Y-100015771D02*
X116985238Y-100015771D01*
X116985238Y-100015771D02*
X117080476Y-100063390D01*
X117080476Y-100063390D02*
X117128095Y-100111009D01*
X117128095Y-100111009D02*
X117175714Y-100206247D01*
X117175714Y-100206247D02*
X117175714Y-100444342D01*
X117175714Y-100444342D02*
X117128095Y-100539580D01*
X117128095Y-100539580D02*
X117080476Y-100587200D01*
X117080476Y-100587200D02*
X116985238Y-100634819D01*
X116985238Y-100634819D02*
X116747143Y-100634819D01*
X116747143Y-100634819D02*
X116651905Y-100587200D01*
X116651905Y-100587200D02*
X116604286Y-100539580D01*
X83203333Y-115169580D02*
X83155714Y-115217200D01*
X83155714Y-115217200D02*
X83012857Y-115264819D01*
X83012857Y-115264819D02*
X82917619Y-115264819D01*
X82917619Y-115264819D02*
X82774762Y-115217200D01*
X82774762Y-115217200D02*
X82679524Y-115121961D01*
X82679524Y-115121961D02*
X82631905Y-115026723D01*
X82631905Y-115026723D02*
X82584286Y-114836247D01*
X82584286Y-114836247D02*
X82584286Y-114693390D01*
X82584286Y-114693390D02*
X82631905Y-114502914D01*
X82631905Y-114502914D02*
X82679524Y-114407676D01*
X82679524Y-114407676D02*
X82774762Y-114312438D01*
X82774762Y-114312438D02*
X82917619Y-114264819D01*
X82917619Y-114264819D02*
X83012857Y-114264819D01*
X83012857Y-114264819D02*
X83155714Y-114312438D01*
X83155714Y-114312438D02*
X83203333Y-114360057D01*
X84108095Y-114264819D02*
X83631905Y-114264819D01*
X83631905Y-114264819D02*
X83584286Y-114741009D01*
X83584286Y-114741009D02*
X83631905Y-114693390D01*
X83631905Y-114693390D02*
X83727143Y-114645771D01*
X83727143Y-114645771D02*
X83965238Y-114645771D01*
X83965238Y-114645771D02*
X84060476Y-114693390D01*
X84060476Y-114693390D02*
X84108095Y-114741009D01*
X84108095Y-114741009D02*
X84155714Y-114836247D01*
X84155714Y-114836247D02*
X84155714Y-115074342D01*
X84155714Y-115074342D02*
X84108095Y-115169580D01*
X84108095Y-115169580D02*
X84060476Y-115217200D01*
X84060476Y-115217200D02*
X83965238Y-115264819D01*
X83965238Y-115264819D02*
X83727143Y-115264819D01*
X83727143Y-115264819D02*
X83631905Y-115217200D01*
X83631905Y-115217200D02*
X83584286Y-115169580D01*
X120261905Y-72884819D02*
X120261905Y-71884819D01*
X120261905Y-71884819D02*
X120500000Y-71884819D01*
X120500000Y-71884819D02*
X120642857Y-71932438D01*
X120642857Y-71932438D02*
X120738095Y-72027676D01*
X120738095Y-72027676D02*
X120785714Y-72122914D01*
X120785714Y-72122914D02*
X120833333Y-72313390D01*
X120833333Y-72313390D02*
X120833333Y-72456247D01*
X120833333Y-72456247D02*
X120785714Y-72646723D01*
X120785714Y-72646723D02*
X120738095Y-72741961D01*
X120738095Y-72741961D02*
X120642857Y-72837200D01*
X120642857Y-72837200D02*
X120500000Y-72884819D01*
X120500000Y-72884819D02*
X120261905Y-72884819D01*
X121214286Y-71980057D02*
X121261905Y-71932438D01*
X121261905Y-71932438D02*
X121357143Y-71884819D01*
X121357143Y-71884819D02*
X121595238Y-71884819D01*
X121595238Y-71884819D02*
X121690476Y-71932438D01*
X121690476Y-71932438D02*
X121738095Y-71980057D01*
X121738095Y-71980057D02*
X121785714Y-72075295D01*
X121785714Y-72075295D02*
X121785714Y-72170533D01*
X121785714Y-72170533D02*
X121738095Y-72313390D01*
X121738095Y-72313390D02*
X121166667Y-72884819D01*
X121166667Y-72884819D02*
X121785714Y-72884819D01*
X120973333Y-99944819D02*
X120640000Y-99468628D01*
X120401905Y-99944819D02*
X120401905Y-98944819D01*
X120401905Y-98944819D02*
X120782857Y-98944819D01*
X120782857Y-98944819D02*
X120878095Y-98992438D01*
X120878095Y-98992438D02*
X120925714Y-99040057D01*
X120925714Y-99040057D02*
X120973333Y-99135295D01*
X120973333Y-99135295D02*
X120973333Y-99278152D01*
X120973333Y-99278152D02*
X120925714Y-99373390D01*
X120925714Y-99373390D02*
X120878095Y-99421009D01*
X120878095Y-99421009D02*
X120782857Y-99468628D01*
X120782857Y-99468628D02*
X120401905Y-99468628D01*
X121306667Y-98944819D02*
X121973333Y-98944819D01*
X121973333Y-98944819D02*
X121544762Y-99944819D01*
X77957142Y-92244819D02*
X77623809Y-91768628D01*
X77385714Y-92244819D02*
X77385714Y-91244819D01*
X77385714Y-91244819D02*
X77766666Y-91244819D01*
X77766666Y-91244819D02*
X77861904Y-91292438D01*
X77861904Y-91292438D02*
X77909523Y-91340057D01*
X77909523Y-91340057D02*
X77957142Y-91435295D01*
X77957142Y-91435295D02*
X77957142Y-91578152D01*
X77957142Y-91578152D02*
X77909523Y-91673390D01*
X77909523Y-91673390D02*
X77861904Y-91721009D01*
X77861904Y-91721009D02*
X77766666Y-91768628D01*
X77766666Y-91768628D02*
X77385714Y-91768628D01*
X78338095Y-91340057D02*
X78385714Y-91292438D01*
X78385714Y-91292438D02*
X78480952Y-91244819D01*
X78480952Y-91244819D02*
X78719047Y-91244819D01*
X78719047Y-91244819D02*
X78814285Y-91292438D01*
X78814285Y-91292438D02*
X78861904Y-91340057D01*
X78861904Y-91340057D02*
X78909523Y-91435295D01*
X78909523Y-91435295D02*
X78909523Y-91530533D01*
X78909523Y-91530533D02*
X78861904Y-91673390D01*
X78861904Y-91673390D02*
X78290476Y-92244819D01*
X78290476Y-92244819D02*
X78909523Y-92244819D01*
X79290476Y-91340057D02*
X79338095Y-91292438D01*
X79338095Y-91292438D02*
X79433333Y-91244819D01*
X79433333Y-91244819D02*
X79671428Y-91244819D01*
X79671428Y-91244819D02*
X79766666Y-91292438D01*
X79766666Y-91292438D02*
X79814285Y-91340057D01*
X79814285Y-91340057D02*
X79861904Y-91435295D01*
X79861904Y-91435295D02*
X79861904Y-91530533D01*
X79861904Y-91530533D02*
X79814285Y-91673390D01*
X79814285Y-91673390D02*
X79242857Y-92244819D01*
X79242857Y-92244819D02*
X79861904Y-92244819D01*
X116923333Y-84754819D02*
X116590000Y-84278628D01*
X116351905Y-84754819D02*
X116351905Y-83754819D01*
X116351905Y-83754819D02*
X116732857Y-83754819D01*
X116732857Y-83754819D02*
X116828095Y-83802438D01*
X116828095Y-83802438D02*
X116875714Y-83850057D01*
X116875714Y-83850057D02*
X116923333Y-83945295D01*
X116923333Y-83945295D02*
X116923333Y-84088152D01*
X116923333Y-84088152D02*
X116875714Y-84183390D01*
X116875714Y-84183390D02*
X116828095Y-84231009D01*
X116828095Y-84231009D02*
X116732857Y-84278628D01*
X116732857Y-84278628D02*
X116351905Y-84278628D01*
X117304286Y-83850057D02*
X117351905Y-83802438D01*
X117351905Y-83802438D02*
X117447143Y-83754819D01*
X117447143Y-83754819D02*
X117685238Y-83754819D01*
X117685238Y-83754819D02*
X117780476Y-83802438D01*
X117780476Y-83802438D02*
X117828095Y-83850057D01*
X117828095Y-83850057D02*
X117875714Y-83945295D01*
X117875714Y-83945295D02*
X117875714Y-84040533D01*
X117875714Y-84040533D02*
X117828095Y-84183390D01*
X117828095Y-84183390D02*
X117256667Y-84754819D01*
X117256667Y-84754819D02*
X117875714Y-84754819D01*
X78189405Y-94034819D02*
X78189405Y-93034819D01*
X78189405Y-93034819D02*
X78427500Y-93034819D01*
X78427500Y-93034819D02*
X78570357Y-93082438D01*
X78570357Y-93082438D02*
X78665595Y-93177676D01*
X78665595Y-93177676D02*
X78713214Y-93272914D01*
X78713214Y-93272914D02*
X78760833Y-93463390D01*
X78760833Y-93463390D02*
X78760833Y-93606247D01*
X78760833Y-93606247D02*
X78713214Y-93796723D01*
X78713214Y-93796723D02*
X78665595Y-93891961D01*
X78665595Y-93891961D02*
X78570357Y-93987200D01*
X78570357Y-93987200D02*
X78427500Y-94034819D01*
X78427500Y-94034819D02*
X78189405Y-94034819D01*
X79237024Y-94034819D02*
X79427500Y-94034819D01*
X79427500Y-94034819D02*
X79522738Y-93987200D01*
X79522738Y-93987200D02*
X79570357Y-93939580D01*
X79570357Y-93939580D02*
X79665595Y-93796723D01*
X79665595Y-93796723D02*
X79713214Y-93606247D01*
X79713214Y-93606247D02*
X79713214Y-93225295D01*
X79713214Y-93225295D02*
X79665595Y-93130057D01*
X79665595Y-93130057D02*
X79617976Y-93082438D01*
X79617976Y-93082438D02*
X79522738Y-93034819D01*
X79522738Y-93034819D02*
X79332262Y-93034819D01*
X79332262Y-93034819D02*
X79237024Y-93082438D01*
X79237024Y-93082438D02*
X79189405Y-93130057D01*
X79189405Y-93130057D02*
X79141786Y-93225295D01*
X79141786Y-93225295D02*
X79141786Y-93463390D01*
X79141786Y-93463390D02*
X79189405Y-93558628D01*
X79189405Y-93558628D02*
X79237024Y-93606247D01*
X79237024Y-93606247D02*
X79332262Y-93653866D01*
X79332262Y-93653866D02*
X79522738Y-93653866D01*
X79522738Y-93653866D02*
X79617976Y-93606247D01*
X79617976Y-93606247D02*
X79665595Y-93558628D01*
X79665595Y-93558628D02*
X79713214Y-93463390D01*
X120718333Y-85764819D02*
X120385000Y-85288628D01*
X120146905Y-85764819D02*
X120146905Y-84764819D01*
X120146905Y-84764819D02*
X120527857Y-84764819D01*
X120527857Y-84764819D02*
X120623095Y-84812438D01*
X120623095Y-84812438D02*
X120670714Y-84860057D01*
X120670714Y-84860057D02*
X120718333Y-84955295D01*
X120718333Y-84955295D02*
X120718333Y-85098152D01*
X120718333Y-85098152D02*
X120670714Y-85193390D01*
X120670714Y-85193390D02*
X120623095Y-85241009D01*
X120623095Y-85241009D02*
X120527857Y-85288628D01*
X120527857Y-85288628D02*
X120146905Y-85288628D01*
X121575476Y-85098152D02*
X121575476Y-85764819D01*
X121337381Y-84717200D02*
X121099286Y-85431485D01*
X121099286Y-85431485D02*
X121718333Y-85431485D01*
X124741905Y-97024819D02*
X124741905Y-96024819D01*
X124741905Y-96024819D02*
X124980000Y-96024819D01*
X124980000Y-96024819D02*
X125122857Y-96072438D01*
X125122857Y-96072438D02*
X125218095Y-96167676D01*
X125218095Y-96167676D02*
X125265714Y-96262914D01*
X125265714Y-96262914D02*
X125313333Y-96453390D01*
X125313333Y-96453390D02*
X125313333Y-96596247D01*
X125313333Y-96596247D02*
X125265714Y-96786723D01*
X125265714Y-96786723D02*
X125218095Y-96881961D01*
X125218095Y-96881961D02*
X125122857Y-96977200D01*
X125122857Y-96977200D02*
X124980000Y-97024819D01*
X124980000Y-97024819D02*
X124741905Y-97024819D01*
X125884762Y-96453390D02*
X125789524Y-96405771D01*
X125789524Y-96405771D02*
X125741905Y-96358152D01*
X125741905Y-96358152D02*
X125694286Y-96262914D01*
X125694286Y-96262914D02*
X125694286Y-96215295D01*
X125694286Y-96215295D02*
X125741905Y-96120057D01*
X125741905Y-96120057D02*
X125789524Y-96072438D01*
X125789524Y-96072438D02*
X125884762Y-96024819D01*
X125884762Y-96024819D02*
X126075238Y-96024819D01*
X126075238Y-96024819D02*
X126170476Y-96072438D01*
X126170476Y-96072438D02*
X126218095Y-96120057D01*
X126218095Y-96120057D02*
X126265714Y-96215295D01*
X126265714Y-96215295D02*
X126265714Y-96262914D01*
X126265714Y-96262914D02*
X126218095Y-96358152D01*
X126218095Y-96358152D02*
X126170476Y-96405771D01*
X126170476Y-96405771D02*
X126075238Y-96453390D01*
X126075238Y-96453390D02*
X125884762Y-96453390D01*
X125884762Y-96453390D02*
X125789524Y-96501009D01*
X125789524Y-96501009D02*
X125741905Y-96548628D01*
X125741905Y-96548628D02*
X125694286Y-96643866D01*
X125694286Y-96643866D02*
X125694286Y-96834342D01*
X125694286Y-96834342D02*
X125741905Y-96929580D01*
X125741905Y-96929580D02*
X125789524Y-96977200D01*
X125789524Y-96977200D02*
X125884762Y-97024819D01*
X125884762Y-97024819D02*
X126075238Y-97024819D01*
X126075238Y-97024819D02*
X126170476Y-96977200D01*
X126170476Y-96977200D02*
X126218095Y-96929580D01*
X126218095Y-96929580D02*
X126265714Y-96834342D01*
X126265714Y-96834342D02*
X126265714Y-96643866D01*
X126265714Y-96643866D02*
X126218095Y-96548628D01*
X126218095Y-96548628D02*
X126170476Y-96501009D01*
X126170476Y-96501009D02*
X126075238Y-96453390D01*
X77917142Y-90344819D02*
X77583809Y-89868628D01*
X77345714Y-90344819D02*
X77345714Y-89344819D01*
X77345714Y-89344819D02*
X77726666Y-89344819D01*
X77726666Y-89344819D02*
X77821904Y-89392438D01*
X77821904Y-89392438D02*
X77869523Y-89440057D01*
X77869523Y-89440057D02*
X77917142Y-89535295D01*
X77917142Y-89535295D02*
X77917142Y-89678152D01*
X77917142Y-89678152D02*
X77869523Y-89773390D01*
X77869523Y-89773390D02*
X77821904Y-89821009D01*
X77821904Y-89821009D02*
X77726666Y-89868628D01*
X77726666Y-89868628D02*
X77345714Y-89868628D01*
X78869523Y-90344819D02*
X78298095Y-90344819D01*
X78583809Y-90344819D02*
X78583809Y-89344819D01*
X78583809Y-89344819D02*
X78488571Y-89487676D01*
X78488571Y-89487676D02*
X78393333Y-89582914D01*
X78393333Y-89582914D02*
X78298095Y-89630533D01*
X79774285Y-89344819D02*
X79298095Y-89344819D01*
X79298095Y-89344819D02*
X79250476Y-89821009D01*
X79250476Y-89821009D02*
X79298095Y-89773390D01*
X79298095Y-89773390D02*
X79393333Y-89725771D01*
X79393333Y-89725771D02*
X79631428Y-89725771D01*
X79631428Y-89725771D02*
X79726666Y-89773390D01*
X79726666Y-89773390D02*
X79774285Y-89821009D01*
X79774285Y-89821009D02*
X79821904Y-89916247D01*
X79821904Y-89916247D02*
X79821904Y-90154342D01*
X79821904Y-90154342D02*
X79774285Y-90249580D01*
X79774285Y-90249580D02*
X79726666Y-90297200D01*
X79726666Y-90297200D02*
X79631428Y-90344819D01*
X79631428Y-90344819D02*
X79393333Y-90344819D01*
X79393333Y-90344819D02*
X79298095Y-90297200D01*
X79298095Y-90297200D02*
X79250476Y-90249580D01*
X102488333Y-76174819D02*
X102155000Y-75698628D01*
X101916905Y-76174819D02*
X101916905Y-75174819D01*
X101916905Y-75174819D02*
X102297857Y-75174819D01*
X102297857Y-75174819D02*
X102393095Y-75222438D01*
X102393095Y-75222438D02*
X102440714Y-75270057D01*
X102440714Y-75270057D02*
X102488333Y-75365295D01*
X102488333Y-75365295D02*
X102488333Y-75508152D01*
X102488333Y-75508152D02*
X102440714Y-75603390D01*
X102440714Y-75603390D02*
X102393095Y-75651009D01*
X102393095Y-75651009D02*
X102297857Y-75698628D01*
X102297857Y-75698628D02*
X101916905Y-75698628D01*
X103440714Y-76174819D02*
X102869286Y-76174819D01*
X103155000Y-76174819D02*
X103155000Y-75174819D01*
X103155000Y-75174819D02*
X103059762Y-75317676D01*
X103059762Y-75317676D02*
X102964524Y-75412914D01*
X102964524Y-75412914D02*
X102869286Y-75460533D01*
X117337142Y-89054819D02*
X117003809Y-88578628D01*
X116765714Y-89054819D02*
X116765714Y-88054819D01*
X116765714Y-88054819D02*
X117146666Y-88054819D01*
X117146666Y-88054819D02*
X117241904Y-88102438D01*
X117241904Y-88102438D02*
X117289523Y-88150057D01*
X117289523Y-88150057D02*
X117337142Y-88245295D01*
X117337142Y-88245295D02*
X117337142Y-88388152D01*
X117337142Y-88388152D02*
X117289523Y-88483390D01*
X117289523Y-88483390D02*
X117241904Y-88531009D01*
X117241904Y-88531009D02*
X117146666Y-88578628D01*
X117146666Y-88578628D02*
X116765714Y-88578628D01*
X117718095Y-88150057D02*
X117765714Y-88102438D01*
X117765714Y-88102438D02*
X117860952Y-88054819D01*
X117860952Y-88054819D02*
X118099047Y-88054819D01*
X118099047Y-88054819D02*
X118194285Y-88102438D01*
X118194285Y-88102438D02*
X118241904Y-88150057D01*
X118241904Y-88150057D02*
X118289523Y-88245295D01*
X118289523Y-88245295D02*
X118289523Y-88340533D01*
X118289523Y-88340533D02*
X118241904Y-88483390D01*
X118241904Y-88483390D02*
X117670476Y-89054819D01*
X117670476Y-89054819D02*
X118289523Y-89054819D01*
X118908571Y-88054819D02*
X119003809Y-88054819D01*
X119003809Y-88054819D02*
X119099047Y-88102438D01*
X119099047Y-88102438D02*
X119146666Y-88150057D01*
X119146666Y-88150057D02*
X119194285Y-88245295D01*
X119194285Y-88245295D02*
X119241904Y-88435771D01*
X119241904Y-88435771D02*
X119241904Y-88673866D01*
X119241904Y-88673866D02*
X119194285Y-88864342D01*
X119194285Y-88864342D02*
X119146666Y-88959580D01*
X119146666Y-88959580D02*
X119099047Y-89007200D01*
X119099047Y-89007200D02*
X119003809Y-89054819D01*
X119003809Y-89054819D02*
X118908571Y-89054819D01*
X118908571Y-89054819D02*
X118813333Y-89007200D01*
X118813333Y-89007200D02*
X118765714Y-88959580D01*
X118765714Y-88959580D02*
X118718095Y-88864342D01*
X118718095Y-88864342D02*
X118670476Y-88673866D01*
X118670476Y-88673866D02*
X118670476Y-88435771D01*
X118670476Y-88435771D02*
X118718095Y-88245295D01*
X118718095Y-88245295D02*
X118765714Y-88150057D01*
X118765714Y-88150057D02*
X118813333Y-88102438D01*
X118813333Y-88102438D02*
X118908571Y-88054819D01*
X124640476Y-79424819D02*
X124640476Y-78424819D01*
X124640476Y-78424819D02*
X124973809Y-79139104D01*
X124973809Y-79139104D02*
X125307142Y-78424819D01*
X125307142Y-78424819D02*
X125307142Y-79424819D01*
X125735714Y-78520057D02*
X125783333Y-78472438D01*
X125783333Y-78472438D02*
X125878571Y-78424819D01*
X125878571Y-78424819D02*
X126116666Y-78424819D01*
X126116666Y-78424819D02*
X126211904Y-78472438D01*
X126211904Y-78472438D02*
X126259523Y-78520057D01*
X126259523Y-78520057D02*
X126307142Y-78615295D01*
X126307142Y-78615295D02*
X126307142Y-78710533D01*
X126307142Y-78710533D02*
X126259523Y-78853390D01*
X126259523Y-78853390D02*
X125688095Y-79424819D01*
X125688095Y-79424819D02*
X126307142Y-79424819D01*
X99340476Y-72324819D02*
X99340476Y-71324819D01*
X99340476Y-71324819D02*
X99673809Y-72039104D01*
X99673809Y-72039104D02*
X100007142Y-71324819D01*
X100007142Y-71324819D02*
X100007142Y-72324819D01*
X101007142Y-72324819D02*
X100435714Y-72324819D01*
X100721428Y-72324819D02*
X100721428Y-71324819D01*
X100721428Y-71324819D02*
X100626190Y-71467676D01*
X100626190Y-71467676D02*
X100530952Y-71562914D01*
X100530952Y-71562914D02*
X100435714Y-71610533D01*
X74494761Y-103300057D02*
X74399523Y-103252438D01*
X74399523Y-103252438D02*
X74304285Y-103157200D01*
X74304285Y-103157200D02*
X74161428Y-103014342D01*
X74161428Y-103014342D02*
X74066190Y-102966723D01*
X74066190Y-102966723D02*
X73970952Y-102966723D01*
X74018571Y-103204819D02*
X73923333Y-103157200D01*
X73923333Y-103157200D02*
X73828095Y-103061961D01*
X73828095Y-103061961D02*
X73780476Y-102871485D01*
X73780476Y-102871485D02*
X73780476Y-102538152D01*
X73780476Y-102538152D02*
X73828095Y-102347676D01*
X73828095Y-102347676D02*
X73923333Y-102252438D01*
X73923333Y-102252438D02*
X74018571Y-102204819D01*
X74018571Y-102204819D02*
X74209047Y-102204819D01*
X74209047Y-102204819D02*
X74304285Y-102252438D01*
X74304285Y-102252438D02*
X74399523Y-102347676D01*
X74399523Y-102347676D02*
X74447142Y-102538152D01*
X74447142Y-102538152D02*
X74447142Y-102871485D01*
X74447142Y-102871485D02*
X74399523Y-103061961D01*
X74399523Y-103061961D02*
X74304285Y-103157200D01*
X74304285Y-103157200D02*
X74209047Y-103204819D01*
X74209047Y-103204819D02*
X74018571Y-103204819D01*
X75351904Y-102204819D02*
X74875714Y-102204819D01*
X74875714Y-102204819D02*
X74828095Y-102681009D01*
X74828095Y-102681009D02*
X74875714Y-102633390D01*
X74875714Y-102633390D02*
X74970952Y-102585771D01*
X74970952Y-102585771D02*
X75209047Y-102585771D01*
X75209047Y-102585771D02*
X75304285Y-102633390D01*
X75304285Y-102633390D02*
X75351904Y-102681009D01*
X75351904Y-102681009D02*
X75399523Y-102776247D01*
X75399523Y-102776247D02*
X75399523Y-103014342D01*
X75399523Y-103014342D02*
X75351904Y-103109580D01*
X75351904Y-103109580D02*
X75304285Y-103157200D01*
X75304285Y-103157200D02*
X75209047Y-103204819D01*
X75209047Y-103204819D02*
X74970952Y-103204819D01*
X74970952Y-103204819D02*
X74875714Y-103157200D01*
X74875714Y-103157200D02*
X74828095Y-103109580D01*
X82247142Y-100174819D02*
X81913809Y-99698628D01*
X81675714Y-100174819D02*
X81675714Y-99174819D01*
X81675714Y-99174819D02*
X82056666Y-99174819D01*
X82056666Y-99174819D02*
X82151904Y-99222438D01*
X82151904Y-99222438D02*
X82199523Y-99270057D01*
X82199523Y-99270057D02*
X82247142Y-99365295D01*
X82247142Y-99365295D02*
X82247142Y-99508152D01*
X82247142Y-99508152D02*
X82199523Y-99603390D01*
X82199523Y-99603390D02*
X82151904Y-99651009D01*
X82151904Y-99651009D02*
X82056666Y-99698628D01*
X82056666Y-99698628D02*
X81675714Y-99698628D01*
X83199523Y-100174819D02*
X82628095Y-100174819D01*
X82913809Y-100174819D02*
X82913809Y-99174819D01*
X82913809Y-99174819D02*
X82818571Y-99317676D01*
X82818571Y-99317676D02*
X82723333Y-99412914D01*
X82723333Y-99412914D02*
X82628095Y-99460533D01*
X84056666Y-99174819D02*
X83866190Y-99174819D01*
X83866190Y-99174819D02*
X83770952Y-99222438D01*
X83770952Y-99222438D02*
X83723333Y-99270057D01*
X83723333Y-99270057D02*
X83628095Y-99412914D01*
X83628095Y-99412914D02*
X83580476Y-99603390D01*
X83580476Y-99603390D02*
X83580476Y-99984342D01*
X83580476Y-99984342D02*
X83628095Y-100079580D01*
X83628095Y-100079580D02*
X83675714Y-100127200D01*
X83675714Y-100127200D02*
X83770952Y-100174819D01*
X83770952Y-100174819D02*
X83961428Y-100174819D01*
X83961428Y-100174819D02*
X84056666Y-100127200D01*
X84056666Y-100127200D02*
X84104285Y-100079580D01*
X84104285Y-100079580D02*
X84151904Y-99984342D01*
X84151904Y-99984342D02*
X84151904Y-99746247D01*
X84151904Y-99746247D02*
X84104285Y-99651009D01*
X84104285Y-99651009D02*
X84056666Y-99603390D01*
X84056666Y-99603390D02*
X83961428Y-99555771D01*
X83961428Y-99555771D02*
X83770952Y-99555771D01*
X83770952Y-99555771D02*
X83675714Y-99603390D01*
X83675714Y-99603390D02*
X83628095Y-99651009D01*
X83628095Y-99651009D02*
X83580476Y-99746247D01*
X105572142Y-89694819D02*
X105238809Y-89218628D01*
X105000714Y-89694819D02*
X105000714Y-88694819D01*
X105000714Y-88694819D02*
X105381666Y-88694819D01*
X105381666Y-88694819D02*
X105476904Y-88742438D01*
X105476904Y-88742438D02*
X105524523Y-88790057D01*
X105524523Y-88790057D02*
X105572142Y-88885295D01*
X105572142Y-88885295D02*
X105572142Y-89028152D01*
X105572142Y-89028152D02*
X105524523Y-89123390D01*
X105524523Y-89123390D02*
X105476904Y-89171009D01*
X105476904Y-89171009D02*
X105381666Y-89218628D01*
X105381666Y-89218628D02*
X105000714Y-89218628D01*
X106524523Y-89694819D02*
X105953095Y-89694819D01*
X106238809Y-89694819D02*
X106238809Y-88694819D01*
X106238809Y-88694819D02*
X106143571Y-88837676D01*
X106143571Y-88837676D02*
X106048333Y-88932914D01*
X106048333Y-88932914D02*
X105953095Y-88980533D01*
X106857857Y-88694819D02*
X107476904Y-88694819D01*
X107476904Y-88694819D02*
X107143571Y-89075771D01*
X107143571Y-89075771D02*
X107286428Y-89075771D01*
X107286428Y-89075771D02*
X107381666Y-89123390D01*
X107381666Y-89123390D02*
X107429285Y-89171009D01*
X107429285Y-89171009D02*
X107476904Y-89266247D01*
X107476904Y-89266247D02*
X107476904Y-89504342D01*
X107476904Y-89504342D02*
X107429285Y-89599580D01*
X107429285Y-89599580D02*
X107381666Y-89647200D01*
X107381666Y-89647200D02*
X107286428Y-89694819D01*
X107286428Y-89694819D02*
X107000714Y-89694819D01*
X107000714Y-89694819D02*
X106905476Y-89647200D01*
X106905476Y-89647200D02*
X106857857Y-89599580D01*
X119981905Y-112414819D02*
X119981905Y-111414819D01*
X119981905Y-111414819D02*
X120220000Y-111414819D01*
X120220000Y-111414819D02*
X120362857Y-111462438D01*
X120362857Y-111462438D02*
X120458095Y-111557676D01*
X120458095Y-111557676D02*
X120505714Y-111652914D01*
X120505714Y-111652914D02*
X120553333Y-111843390D01*
X120553333Y-111843390D02*
X120553333Y-111986247D01*
X120553333Y-111986247D02*
X120505714Y-112176723D01*
X120505714Y-112176723D02*
X120458095Y-112271961D01*
X120458095Y-112271961D02*
X120362857Y-112367200D01*
X120362857Y-112367200D02*
X120220000Y-112414819D01*
X120220000Y-112414819D02*
X119981905Y-112414819D01*
X120886667Y-111414819D02*
X121505714Y-111414819D01*
X121505714Y-111414819D02*
X121172381Y-111795771D01*
X121172381Y-111795771D02*
X121315238Y-111795771D01*
X121315238Y-111795771D02*
X121410476Y-111843390D01*
X121410476Y-111843390D02*
X121458095Y-111891009D01*
X121458095Y-111891009D02*
X121505714Y-111986247D01*
X121505714Y-111986247D02*
X121505714Y-112224342D01*
X121505714Y-112224342D02*
X121458095Y-112319580D01*
X121458095Y-112319580D02*
X121410476Y-112367200D01*
X121410476Y-112367200D02*
X121315238Y-112414819D01*
X121315238Y-112414819D02*
X121029524Y-112414819D01*
X121029524Y-112414819D02*
X120934286Y-112367200D01*
X120934286Y-112367200D02*
X120886667Y-112319580D01*
X93411905Y-70364819D02*
X93411905Y-69364819D01*
X93411905Y-69364819D02*
X93650000Y-69364819D01*
X93650000Y-69364819D02*
X93792857Y-69412438D01*
X93792857Y-69412438D02*
X93888095Y-69507676D01*
X93888095Y-69507676D02*
X93935714Y-69602914D01*
X93935714Y-69602914D02*
X93983333Y-69793390D01*
X93983333Y-69793390D02*
X93983333Y-69936247D01*
X93983333Y-69936247D02*
X93935714Y-70126723D01*
X93935714Y-70126723D02*
X93888095Y-70221961D01*
X93888095Y-70221961D02*
X93792857Y-70317200D01*
X93792857Y-70317200D02*
X93650000Y-70364819D01*
X93650000Y-70364819D02*
X93411905Y-70364819D01*
X94935714Y-70364819D02*
X94364286Y-70364819D01*
X94650000Y-70364819D02*
X94650000Y-69364819D01*
X94650000Y-69364819D02*
X94554762Y-69507676D01*
X94554762Y-69507676D02*
X94459524Y-69602914D01*
X94459524Y-69602914D02*
X94364286Y-69650533D01*
X93857142Y-86674819D02*
X93523809Y-86198628D01*
X93285714Y-86674819D02*
X93285714Y-85674819D01*
X93285714Y-85674819D02*
X93666666Y-85674819D01*
X93666666Y-85674819D02*
X93761904Y-85722438D01*
X93761904Y-85722438D02*
X93809523Y-85770057D01*
X93809523Y-85770057D02*
X93857142Y-85865295D01*
X93857142Y-85865295D02*
X93857142Y-86008152D01*
X93857142Y-86008152D02*
X93809523Y-86103390D01*
X93809523Y-86103390D02*
X93761904Y-86151009D01*
X93761904Y-86151009D02*
X93666666Y-86198628D01*
X93666666Y-86198628D02*
X93285714Y-86198628D01*
X94809523Y-86674819D02*
X94238095Y-86674819D01*
X94523809Y-86674819D02*
X94523809Y-85674819D01*
X94523809Y-85674819D02*
X94428571Y-85817676D01*
X94428571Y-85817676D02*
X94333333Y-85912914D01*
X94333333Y-85912914D02*
X94238095Y-85960533D01*
X95761904Y-86674819D02*
X95190476Y-86674819D01*
X95476190Y-86674819D02*
X95476190Y-85674819D01*
X95476190Y-85674819D02*
X95380952Y-85817676D01*
X95380952Y-85817676D02*
X95285714Y-85912914D01*
X95285714Y-85912914D02*
X95190476Y-85960533D01*
X102508333Y-111124819D02*
X102175000Y-110648628D01*
X101936905Y-111124819D02*
X101936905Y-110124819D01*
X101936905Y-110124819D02*
X102317857Y-110124819D01*
X102317857Y-110124819D02*
X102413095Y-110172438D01*
X102413095Y-110172438D02*
X102460714Y-110220057D01*
X102460714Y-110220057D02*
X102508333Y-110315295D01*
X102508333Y-110315295D02*
X102508333Y-110458152D01*
X102508333Y-110458152D02*
X102460714Y-110553390D01*
X102460714Y-110553390D02*
X102413095Y-110601009D01*
X102413095Y-110601009D02*
X102317857Y-110648628D01*
X102317857Y-110648628D02*
X101936905Y-110648628D01*
X103079762Y-110553390D02*
X102984524Y-110505771D01*
X102984524Y-110505771D02*
X102936905Y-110458152D01*
X102936905Y-110458152D02*
X102889286Y-110362914D01*
X102889286Y-110362914D02*
X102889286Y-110315295D01*
X102889286Y-110315295D02*
X102936905Y-110220057D01*
X102936905Y-110220057D02*
X102984524Y-110172438D01*
X102984524Y-110172438D02*
X103079762Y-110124819D01*
X103079762Y-110124819D02*
X103270238Y-110124819D01*
X103270238Y-110124819D02*
X103365476Y-110172438D01*
X103365476Y-110172438D02*
X103413095Y-110220057D01*
X103413095Y-110220057D02*
X103460714Y-110315295D01*
X103460714Y-110315295D02*
X103460714Y-110362914D01*
X103460714Y-110362914D02*
X103413095Y-110458152D01*
X103413095Y-110458152D02*
X103365476Y-110505771D01*
X103365476Y-110505771D02*
X103270238Y-110553390D01*
X103270238Y-110553390D02*
X103079762Y-110553390D01*
X103079762Y-110553390D02*
X102984524Y-110601009D01*
X102984524Y-110601009D02*
X102936905Y-110648628D01*
X102936905Y-110648628D02*
X102889286Y-110743866D01*
X102889286Y-110743866D02*
X102889286Y-110934342D01*
X102889286Y-110934342D02*
X102936905Y-111029580D01*
X102936905Y-111029580D02*
X102984524Y-111077200D01*
X102984524Y-111077200D02*
X103079762Y-111124819D01*
X103079762Y-111124819D02*
X103270238Y-111124819D01*
X103270238Y-111124819D02*
X103365476Y-111077200D01*
X103365476Y-111077200D02*
X103413095Y-111029580D01*
X103413095Y-111029580D02*
X103460714Y-110934342D01*
X103460714Y-110934342D02*
X103460714Y-110743866D01*
X103460714Y-110743866D02*
X103413095Y-110648628D01*
X103413095Y-110648628D02*
X103365476Y-110601009D01*
X103365476Y-110601009D02*
X103270238Y-110553390D01*
X105988333Y-92794819D02*
X105655000Y-92318628D01*
X105416905Y-92794819D02*
X105416905Y-91794819D01*
X105416905Y-91794819D02*
X105797857Y-91794819D01*
X105797857Y-91794819D02*
X105893095Y-91842438D01*
X105893095Y-91842438D02*
X105940714Y-91890057D01*
X105940714Y-91890057D02*
X105988333Y-91985295D01*
X105988333Y-91985295D02*
X105988333Y-92128152D01*
X105988333Y-92128152D02*
X105940714Y-92223390D01*
X105940714Y-92223390D02*
X105893095Y-92271009D01*
X105893095Y-92271009D02*
X105797857Y-92318628D01*
X105797857Y-92318628D02*
X105416905Y-92318628D01*
X106464524Y-92794819D02*
X106655000Y-92794819D01*
X106655000Y-92794819D02*
X106750238Y-92747200D01*
X106750238Y-92747200D02*
X106797857Y-92699580D01*
X106797857Y-92699580D02*
X106893095Y-92556723D01*
X106893095Y-92556723D02*
X106940714Y-92366247D01*
X106940714Y-92366247D02*
X106940714Y-91985295D01*
X106940714Y-91985295D02*
X106893095Y-91890057D01*
X106893095Y-91890057D02*
X106845476Y-91842438D01*
X106845476Y-91842438D02*
X106750238Y-91794819D01*
X106750238Y-91794819D02*
X106559762Y-91794819D01*
X106559762Y-91794819D02*
X106464524Y-91842438D01*
X106464524Y-91842438D02*
X106416905Y-91890057D01*
X106416905Y-91890057D02*
X106369286Y-91985295D01*
X106369286Y-91985295D02*
X106369286Y-92223390D01*
X106369286Y-92223390D02*
X106416905Y-92318628D01*
X106416905Y-92318628D02*
X106464524Y-92366247D01*
X106464524Y-92366247D02*
X106559762Y-92413866D01*
X106559762Y-92413866D02*
X106750238Y-92413866D01*
X106750238Y-92413866D02*
X106845476Y-92366247D01*
X106845476Y-92366247D02*
X106893095Y-92318628D01*
X106893095Y-92318628D02*
X106940714Y-92223390D01*
X99480476Y-112974819D02*
X99480476Y-111974819D01*
X99480476Y-111974819D02*
X99813809Y-112689104D01*
X99813809Y-112689104D02*
X100147142Y-111974819D01*
X100147142Y-111974819D02*
X100147142Y-112974819D01*
X101051904Y-112308152D02*
X101051904Y-112974819D01*
X100813809Y-111927200D02*
X100575714Y-112641485D01*
X100575714Y-112641485D02*
X101194761Y-112641485D01*
X78371905Y-73904819D02*
X78371905Y-72904819D01*
X78371905Y-72904819D02*
X78610000Y-72904819D01*
X78610000Y-72904819D02*
X78752857Y-72952438D01*
X78752857Y-72952438D02*
X78848095Y-73047676D01*
X78848095Y-73047676D02*
X78895714Y-73142914D01*
X78895714Y-73142914D02*
X78943333Y-73333390D01*
X78943333Y-73333390D02*
X78943333Y-73476247D01*
X78943333Y-73476247D02*
X78895714Y-73666723D01*
X78895714Y-73666723D02*
X78848095Y-73761961D01*
X78848095Y-73761961D02*
X78752857Y-73857200D01*
X78752857Y-73857200D02*
X78610000Y-73904819D01*
X78610000Y-73904819D02*
X78371905Y-73904819D01*
X79276667Y-72904819D02*
X79943333Y-72904819D01*
X79943333Y-72904819D02*
X79514762Y-73904819D01*
X127526666Y-95989819D02*
X127526666Y-96704104D01*
X127526666Y-96704104D02*
X127479047Y-96846961D01*
X127479047Y-96846961D02*
X127383809Y-96942200D01*
X127383809Y-96942200D02*
X127240952Y-96989819D01*
X127240952Y-96989819D02*
X127145714Y-96989819D01*
X127955238Y-96085057D02*
X128002857Y-96037438D01*
X128002857Y-96037438D02*
X128098095Y-95989819D01*
X128098095Y-95989819D02*
X128336190Y-95989819D01*
X128336190Y-95989819D02*
X128431428Y-96037438D01*
X128431428Y-96037438D02*
X128479047Y-96085057D01*
X128479047Y-96085057D02*
X128526666Y-96180295D01*
X128526666Y-96180295D02*
X128526666Y-96275533D01*
X128526666Y-96275533D02*
X128479047Y-96418390D01*
X128479047Y-96418390D02*
X127907619Y-96989819D01*
X127907619Y-96989819D02*
X128526666Y-96989819D01*
X121367142Y-88989580D02*
X121319523Y-89037200D01*
X121319523Y-89037200D02*
X121176666Y-89084819D01*
X121176666Y-89084819D02*
X121081428Y-89084819D01*
X121081428Y-89084819D02*
X120938571Y-89037200D01*
X120938571Y-89037200D02*
X120843333Y-88941961D01*
X120843333Y-88941961D02*
X120795714Y-88846723D01*
X120795714Y-88846723D02*
X120748095Y-88656247D01*
X120748095Y-88656247D02*
X120748095Y-88513390D01*
X120748095Y-88513390D02*
X120795714Y-88322914D01*
X120795714Y-88322914D02*
X120843333Y-88227676D01*
X120843333Y-88227676D02*
X120938571Y-88132438D01*
X120938571Y-88132438D02*
X121081428Y-88084819D01*
X121081428Y-88084819D02*
X121176666Y-88084819D01*
X121176666Y-88084819D02*
X121319523Y-88132438D01*
X121319523Y-88132438D02*
X121367142Y-88180057D01*
X122319523Y-89084819D02*
X121748095Y-89084819D01*
X122033809Y-89084819D02*
X122033809Y-88084819D01*
X122033809Y-88084819D02*
X121938571Y-88227676D01*
X121938571Y-88227676D02*
X121843333Y-88322914D01*
X121843333Y-88322914D02*
X121748095Y-88370533D01*
X122700476Y-88180057D02*
X122748095Y-88132438D01*
X122748095Y-88132438D02*
X122843333Y-88084819D01*
X122843333Y-88084819D02*
X123081428Y-88084819D01*
X123081428Y-88084819D02*
X123176666Y-88132438D01*
X123176666Y-88132438D02*
X123224285Y-88180057D01*
X123224285Y-88180057D02*
X123271904Y-88275295D01*
X123271904Y-88275295D02*
X123271904Y-88370533D01*
X123271904Y-88370533D02*
X123224285Y-88513390D01*
X123224285Y-88513390D02*
X122652857Y-89084819D01*
X122652857Y-89084819D02*
X123271904Y-89084819D01*
X71996667Y-89657200D02*
X72139524Y-89704819D01*
X72139524Y-89704819D02*
X72377619Y-89704819D01*
X72377619Y-89704819D02*
X72472857Y-89657200D01*
X72472857Y-89657200D02*
X72520476Y-89609580D01*
X72520476Y-89609580D02*
X72568095Y-89514342D01*
X72568095Y-89514342D02*
X72568095Y-89419104D01*
X72568095Y-89419104D02*
X72520476Y-89323866D01*
X72520476Y-89323866D02*
X72472857Y-89276247D01*
X72472857Y-89276247D02*
X72377619Y-89228628D01*
X72377619Y-89228628D02*
X72187143Y-89181009D01*
X72187143Y-89181009D02*
X72091905Y-89133390D01*
X72091905Y-89133390D02*
X72044286Y-89085771D01*
X72044286Y-89085771D02*
X71996667Y-88990533D01*
X71996667Y-88990533D02*
X71996667Y-88895295D01*
X71996667Y-88895295D02*
X72044286Y-88800057D01*
X72044286Y-88800057D02*
X72091905Y-88752438D01*
X72091905Y-88752438D02*
X72187143Y-88704819D01*
X72187143Y-88704819D02*
X72425238Y-88704819D01*
X72425238Y-88704819D02*
X72568095Y-88752438D01*
X72901429Y-88704819D02*
X73139524Y-89704819D01*
X73139524Y-89704819D02*
X73330000Y-88990533D01*
X73330000Y-88990533D02*
X73520476Y-89704819D01*
X73520476Y-89704819D02*
X73758572Y-88704819D01*
X74663333Y-89704819D02*
X74091905Y-89704819D01*
X74377619Y-89704819D02*
X74377619Y-88704819D01*
X74377619Y-88704819D02*
X74282381Y-88847676D01*
X74282381Y-88847676D02*
X74187143Y-88942914D01*
X74187143Y-88942914D02*
X74091905Y-88990533D01*
X93907142Y-92674819D02*
X93573809Y-92198628D01*
X93335714Y-92674819D02*
X93335714Y-91674819D01*
X93335714Y-91674819D02*
X93716666Y-91674819D01*
X93716666Y-91674819D02*
X93811904Y-91722438D01*
X93811904Y-91722438D02*
X93859523Y-91770057D01*
X93859523Y-91770057D02*
X93907142Y-91865295D01*
X93907142Y-91865295D02*
X93907142Y-92008152D01*
X93907142Y-92008152D02*
X93859523Y-92103390D01*
X93859523Y-92103390D02*
X93811904Y-92151009D01*
X93811904Y-92151009D02*
X93716666Y-92198628D01*
X93716666Y-92198628D02*
X93335714Y-92198628D01*
X94859523Y-92674819D02*
X94288095Y-92674819D01*
X94573809Y-92674819D02*
X94573809Y-91674819D01*
X94573809Y-91674819D02*
X94478571Y-91817676D01*
X94478571Y-91817676D02*
X94383333Y-91912914D01*
X94383333Y-91912914D02*
X94288095Y-91960533D01*
X95716666Y-92008152D02*
X95716666Y-92674819D01*
X95478571Y-91627200D02*
X95240476Y-92341485D01*
X95240476Y-92341485D02*
X95859523Y-92341485D01*
X105462142Y-86424819D02*
X105128809Y-85948628D01*
X104890714Y-86424819D02*
X104890714Y-85424819D01*
X104890714Y-85424819D02*
X105271666Y-85424819D01*
X105271666Y-85424819D02*
X105366904Y-85472438D01*
X105366904Y-85472438D02*
X105414523Y-85520057D01*
X105414523Y-85520057D02*
X105462142Y-85615295D01*
X105462142Y-85615295D02*
X105462142Y-85758152D01*
X105462142Y-85758152D02*
X105414523Y-85853390D01*
X105414523Y-85853390D02*
X105366904Y-85901009D01*
X105366904Y-85901009D02*
X105271666Y-85948628D01*
X105271666Y-85948628D02*
X104890714Y-85948628D01*
X106414523Y-86424819D02*
X105843095Y-86424819D01*
X106128809Y-86424819D02*
X106128809Y-85424819D01*
X106128809Y-85424819D02*
X106033571Y-85567676D01*
X106033571Y-85567676D02*
X105938333Y-85662914D01*
X105938333Y-85662914D02*
X105843095Y-85710533D01*
X106795476Y-85520057D02*
X106843095Y-85472438D01*
X106843095Y-85472438D02*
X106938333Y-85424819D01*
X106938333Y-85424819D02*
X107176428Y-85424819D01*
X107176428Y-85424819D02*
X107271666Y-85472438D01*
X107271666Y-85472438D02*
X107319285Y-85520057D01*
X107319285Y-85520057D02*
X107366904Y-85615295D01*
X107366904Y-85615295D02*
X107366904Y-85710533D01*
X107366904Y-85710533D02*
X107319285Y-85853390D01*
X107319285Y-85853390D02*
X106747857Y-86424819D01*
X106747857Y-86424819D02*
X107366904Y-86424819D01*
X82347142Y-85354819D02*
X82013809Y-84878628D01*
X81775714Y-85354819D02*
X81775714Y-84354819D01*
X81775714Y-84354819D02*
X82156666Y-84354819D01*
X82156666Y-84354819D02*
X82251904Y-84402438D01*
X82251904Y-84402438D02*
X82299523Y-84450057D01*
X82299523Y-84450057D02*
X82347142Y-84545295D01*
X82347142Y-84545295D02*
X82347142Y-84688152D01*
X82347142Y-84688152D02*
X82299523Y-84783390D01*
X82299523Y-84783390D02*
X82251904Y-84831009D01*
X82251904Y-84831009D02*
X82156666Y-84878628D01*
X82156666Y-84878628D02*
X81775714Y-84878628D01*
X83299523Y-85354819D02*
X82728095Y-85354819D01*
X83013809Y-85354819D02*
X83013809Y-84354819D01*
X83013809Y-84354819D02*
X82918571Y-84497676D01*
X82918571Y-84497676D02*
X82823333Y-84592914D01*
X82823333Y-84592914D02*
X82728095Y-84640533D01*
X83870952Y-84783390D02*
X83775714Y-84735771D01*
X83775714Y-84735771D02*
X83728095Y-84688152D01*
X83728095Y-84688152D02*
X83680476Y-84592914D01*
X83680476Y-84592914D02*
X83680476Y-84545295D01*
X83680476Y-84545295D02*
X83728095Y-84450057D01*
X83728095Y-84450057D02*
X83775714Y-84402438D01*
X83775714Y-84402438D02*
X83870952Y-84354819D01*
X83870952Y-84354819D02*
X84061428Y-84354819D01*
X84061428Y-84354819D02*
X84156666Y-84402438D01*
X84156666Y-84402438D02*
X84204285Y-84450057D01*
X84204285Y-84450057D02*
X84251904Y-84545295D01*
X84251904Y-84545295D02*
X84251904Y-84592914D01*
X84251904Y-84592914D02*
X84204285Y-84688152D01*
X84204285Y-84688152D02*
X84156666Y-84735771D01*
X84156666Y-84735771D02*
X84061428Y-84783390D01*
X84061428Y-84783390D02*
X83870952Y-84783390D01*
X83870952Y-84783390D02*
X83775714Y-84831009D01*
X83775714Y-84831009D02*
X83728095Y-84878628D01*
X83728095Y-84878628D02*
X83680476Y-84973866D01*
X83680476Y-84973866D02*
X83680476Y-85164342D01*
X83680476Y-85164342D02*
X83728095Y-85259580D01*
X83728095Y-85259580D02*
X83775714Y-85307200D01*
X83775714Y-85307200D02*
X83870952Y-85354819D01*
X83870952Y-85354819D02*
X84061428Y-85354819D01*
X84061428Y-85354819D02*
X84156666Y-85307200D01*
X84156666Y-85307200D02*
X84204285Y-85259580D01*
X84204285Y-85259580D02*
X84251904Y-85164342D01*
X84251904Y-85164342D02*
X84251904Y-84973866D01*
X84251904Y-84973866D02*
X84204285Y-84878628D01*
X84204285Y-84878628D02*
X84156666Y-84831009D01*
X84156666Y-84831009D02*
X84061428Y-84783390D01*
X106915057Y-68505238D02*
X106867438Y-68600476D01*
X106867438Y-68600476D02*
X106772200Y-68695714D01*
X106772200Y-68695714D02*
X106629342Y-68838571D01*
X106629342Y-68838571D02*
X106581723Y-68933809D01*
X106581723Y-68933809D02*
X106581723Y-69029047D01*
X106819819Y-68981428D02*
X106772200Y-69076666D01*
X106772200Y-69076666D02*
X106676961Y-69171904D01*
X106676961Y-69171904D02*
X106486485Y-69219523D01*
X106486485Y-69219523D02*
X106153152Y-69219523D01*
X106153152Y-69219523D02*
X105962676Y-69171904D01*
X105962676Y-69171904D02*
X105867438Y-69076666D01*
X105867438Y-69076666D02*
X105819819Y-68981428D01*
X105819819Y-68981428D02*
X105819819Y-68790952D01*
X105819819Y-68790952D02*
X105867438Y-68695714D01*
X105867438Y-68695714D02*
X105962676Y-68600476D01*
X105962676Y-68600476D02*
X106153152Y-68552857D01*
X106153152Y-68552857D02*
X106486485Y-68552857D01*
X106486485Y-68552857D02*
X106676961Y-68600476D01*
X106676961Y-68600476D02*
X106772200Y-68695714D01*
X106772200Y-68695714D02*
X106819819Y-68790952D01*
X106819819Y-68790952D02*
X106819819Y-68981428D01*
X106819819Y-67600476D02*
X106819819Y-68171904D01*
X106819819Y-67886190D02*
X105819819Y-67886190D01*
X105819819Y-67886190D02*
X105962676Y-67981428D01*
X105962676Y-67981428D02*
X106057914Y-68076666D01*
X106057914Y-68076666D02*
X106105533Y-68171904D01*
X99423095Y-88987319D02*
X99423095Y-89796842D01*
X99423095Y-89796842D02*
X99470714Y-89892080D01*
X99470714Y-89892080D02*
X99518333Y-89939700D01*
X99518333Y-89939700D02*
X99613571Y-89987319D01*
X99613571Y-89987319D02*
X99804047Y-89987319D01*
X99804047Y-89987319D02*
X99899285Y-89939700D01*
X99899285Y-89939700D02*
X99946904Y-89892080D01*
X99946904Y-89892080D02*
X99994523Y-89796842D01*
X99994523Y-89796842D02*
X99994523Y-88987319D01*
X100899285Y-89320652D02*
X100899285Y-89987319D01*
X100661190Y-88939700D02*
X100423095Y-89653985D01*
X100423095Y-89653985D02*
X101042142Y-89653985D01*
X110088095Y-65544819D02*
X110088095Y-66354342D01*
X110088095Y-66354342D02*
X110135714Y-66449580D01*
X110135714Y-66449580D02*
X110183333Y-66497200D01*
X110183333Y-66497200D02*
X110278571Y-66544819D01*
X110278571Y-66544819D02*
X110469047Y-66544819D01*
X110469047Y-66544819D02*
X110564285Y-66497200D01*
X110564285Y-66497200D02*
X110611904Y-66449580D01*
X110611904Y-66449580D02*
X110659523Y-66354342D01*
X110659523Y-66354342D02*
X110659523Y-65544819D01*
X111659523Y-66544819D02*
X111088095Y-66544819D01*
X111373809Y-66544819D02*
X111373809Y-65544819D01*
X111373809Y-65544819D02*
X111278571Y-65687676D01*
X111278571Y-65687676D02*
X111183333Y-65782914D01*
X111183333Y-65782914D02*
X111088095Y-65830533D01*
X100158333Y-98339580D02*
X100110714Y-98387200D01*
X100110714Y-98387200D02*
X99967857Y-98434819D01*
X99967857Y-98434819D02*
X99872619Y-98434819D01*
X99872619Y-98434819D02*
X99729762Y-98387200D01*
X99729762Y-98387200D02*
X99634524Y-98291961D01*
X99634524Y-98291961D02*
X99586905Y-98196723D01*
X99586905Y-98196723D02*
X99539286Y-98006247D01*
X99539286Y-98006247D02*
X99539286Y-97863390D01*
X99539286Y-97863390D02*
X99586905Y-97672914D01*
X99586905Y-97672914D02*
X99634524Y-97577676D01*
X99634524Y-97577676D02*
X99729762Y-97482438D01*
X99729762Y-97482438D02*
X99872619Y-97434819D01*
X99872619Y-97434819D02*
X99967857Y-97434819D01*
X99967857Y-97434819D02*
X100110714Y-97482438D01*
X100110714Y-97482438D02*
X100158333Y-97530057D01*
X100729762Y-97863390D02*
X100634524Y-97815771D01*
X100634524Y-97815771D02*
X100586905Y-97768152D01*
X100586905Y-97768152D02*
X100539286Y-97672914D01*
X100539286Y-97672914D02*
X100539286Y-97625295D01*
X100539286Y-97625295D02*
X100586905Y-97530057D01*
X100586905Y-97530057D02*
X100634524Y-97482438D01*
X100634524Y-97482438D02*
X100729762Y-97434819D01*
X100729762Y-97434819D02*
X100920238Y-97434819D01*
X100920238Y-97434819D02*
X101015476Y-97482438D01*
X101015476Y-97482438D02*
X101063095Y-97530057D01*
X101063095Y-97530057D02*
X101110714Y-97625295D01*
X101110714Y-97625295D02*
X101110714Y-97672914D01*
X101110714Y-97672914D02*
X101063095Y-97768152D01*
X101063095Y-97768152D02*
X101015476Y-97815771D01*
X101015476Y-97815771D02*
X100920238Y-97863390D01*
X100920238Y-97863390D02*
X100729762Y-97863390D01*
X100729762Y-97863390D02*
X100634524Y-97911009D01*
X100634524Y-97911009D02*
X100586905Y-97958628D01*
X100586905Y-97958628D02*
X100539286Y-98053866D01*
X100539286Y-98053866D02*
X100539286Y-98244342D01*
X100539286Y-98244342D02*
X100586905Y-98339580D01*
X100586905Y-98339580D02*
X100634524Y-98387200D01*
X100634524Y-98387200D02*
X100729762Y-98434819D01*
X100729762Y-98434819D02*
X100920238Y-98434819D01*
X100920238Y-98434819D02*
X101015476Y-98387200D01*
X101015476Y-98387200D02*
X101063095Y-98339580D01*
X101063095Y-98339580D02*
X101110714Y-98244342D01*
X101110714Y-98244342D02*
X101110714Y-98053866D01*
X101110714Y-98053866D02*
X101063095Y-97958628D01*
X101063095Y-97958628D02*
X101015476Y-97911009D01*
X101015476Y-97911009D02*
X100920238Y-97863390D01*
X98303333Y-86109580D02*
X98255714Y-86157200D01*
X98255714Y-86157200D02*
X98112857Y-86204819D01*
X98112857Y-86204819D02*
X98017619Y-86204819D01*
X98017619Y-86204819D02*
X97874762Y-86157200D01*
X97874762Y-86157200D02*
X97779524Y-86061961D01*
X97779524Y-86061961D02*
X97731905Y-85966723D01*
X97731905Y-85966723D02*
X97684286Y-85776247D01*
X97684286Y-85776247D02*
X97684286Y-85633390D01*
X97684286Y-85633390D02*
X97731905Y-85442914D01*
X97731905Y-85442914D02*
X97779524Y-85347676D01*
X97779524Y-85347676D02*
X97874762Y-85252438D01*
X97874762Y-85252438D02*
X98017619Y-85204819D01*
X98017619Y-85204819D02*
X98112857Y-85204819D01*
X98112857Y-85204819D02*
X98255714Y-85252438D01*
X98255714Y-85252438D02*
X98303333Y-85300057D01*
X99160476Y-85204819D02*
X98970000Y-85204819D01*
X98970000Y-85204819D02*
X98874762Y-85252438D01*
X98874762Y-85252438D02*
X98827143Y-85300057D01*
X98827143Y-85300057D02*
X98731905Y-85442914D01*
X98731905Y-85442914D02*
X98684286Y-85633390D01*
X98684286Y-85633390D02*
X98684286Y-86014342D01*
X98684286Y-86014342D02*
X98731905Y-86109580D01*
X98731905Y-86109580D02*
X98779524Y-86157200D01*
X98779524Y-86157200D02*
X98874762Y-86204819D01*
X98874762Y-86204819D02*
X99065238Y-86204819D01*
X99065238Y-86204819D02*
X99160476Y-86157200D01*
X99160476Y-86157200D02*
X99208095Y-86109580D01*
X99208095Y-86109580D02*
X99255714Y-86014342D01*
X99255714Y-86014342D02*
X99255714Y-85776247D01*
X99255714Y-85776247D02*
X99208095Y-85681009D01*
X99208095Y-85681009D02*
X99160476Y-85633390D01*
X99160476Y-85633390D02*
X99065238Y-85585771D01*
X99065238Y-85585771D02*
X98874762Y-85585771D01*
X98874762Y-85585771D02*
X98779524Y-85633390D01*
X98779524Y-85633390D02*
X98731905Y-85681009D01*
X98731905Y-85681009D02*
X98684286Y-85776247D01*
X106804761Y-114670057D02*
X106709523Y-114622438D01*
X106709523Y-114622438D02*
X106614285Y-114527200D01*
X106614285Y-114527200D02*
X106471428Y-114384342D01*
X106471428Y-114384342D02*
X106376190Y-114336723D01*
X106376190Y-114336723D02*
X106280952Y-114336723D01*
X106328571Y-114574819D02*
X106233333Y-114527200D01*
X106233333Y-114527200D02*
X106138095Y-114431961D01*
X106138095Y-114431961D02*
X106090476Y-114241485D01*
X106090476Y-114241485D02*
X106090476Y-113908152D01*
X106090476Y-113908152D02*
X106138095Y-113717676D01*
X106138095Y-113717676D02*
X106233333Y-113622438D01*
X106233333Y-113622438D02*
X106328571Y-113574819D01*
X106328571Y-113574819D02*
X106519047Y-113574819D01*
X106519047Y-113574819D02*
X106614285Y-113622438D01*
X106614285Y-113622438D02*
X106709523Y-113717676D01*
X106709523Y-113717676D02*
X106757142Y-113908152D01*
X106757142Y-113908152D02*
X106757142Y-114241485D01*
X106757142Y-114241485D02*
X106709523Y-114431961D01*
X106709523Y-114431961D02*
X106614285Y-114527200D01*
X106614285Y-114527200D02*
X106519047Y-114574819D01*
X106519047Y-114574819D02*
X106328571Y-114574819D01*
X107614285Y-113908152D02*
X107614285Y-114574819D01*
X107376190Y-113527200D02*
X107138095Y-114241485D01*
X107138095Y-114241485D02*
X107757142Y-114241485D01*
X82727142Y-69539580D02*
X82679523Y-69587200D01*
X82679523Y-69587200D02*
X82536666Y-69634819D01*
X82536666Y-69634819D02*
X82441428Y-69634819D01*
X82441428Y-69634819D02*
X82298571Y-69587200D01*
X82298571Y-69587200D02*
X82203333Y-69491961D01*
X82203333Y-69491961D02*
X82155714Y-69396723D01*
X82155714Y-69396723D02*
X82108095Y-69206247D01*
X82108095Y-69206247D02*
X82108095Y-69063390D01*
X82108095Y-69063390D02*
X82155714Y-68872914D01*
X82155714Y-68872914D02*
X82203333Y-68777676D01*
X82203333Y-68777676D02*
X82298571Y-68682438D01*
X82298571Y-68682438D02*
X82441428Y-68634819D01*
X82441428Y-68634819D02*
X82536666Y-68634819D01*
X82536666Y-68634819D02*
X82679523Y-68682438D01*
X82679523Y-68682438D02*
X82727142Y-68730057D01*
X83679523Y-69634819D02*
X83108095Y-69634819D01*
X83393809Y-69634819D02*
X83393809Y-68634819D01*
X83393809Y-68634819D02*
X83298571Y-68777676D01*
X83298571Y-68777676D02*
X83203333Y-68872914D01*
X83203333Y-68872914D02*
X83108095Y-68920533D01*
X84631904Y-69634819D02*
X84060476Y-69634819D01*
X84346190Y-69634819D02*
X84346190Y-68634819D01*
X84346190Y-68634819D02*
X84250952Y-68777676D01*
X84250952Y-68777676D02*
X84155714Y-68872914D01*
X84155714Y-68872914D02*
X84060476Y-68920533D01*
X101928333Y-86569580D02*
X101880714Y-86617200D01*
X101880714Y-86617200D02*
X101737857Y-86664819D01*
X101737857Y-86664819D02*
X101642619Y-86664819D01*
X101642619Y-86664819D02*
X101499762Y-86617200D01*
X101499762Y-86617200D02*
X101404524Y-86521961D01*
X101404524Y-86521961D02*
X101356905Y-86426723D01*
X101356905Y-86426723D02*
X101309286Y-86236247D01*
X101309286Y-86236247D02*
X101309286Y-86093390D01*
X101309286Y-86093390D02*
X101356905Y-85902914D01*
X101356905Y-85902914D02*
X101404524Y-85807676D01*
X101404524Y-85807676D02*
X101499762Y-85712438D01*
X101499762Y-85712438D02*
X101642619Y-85664819D01*
X101642619Y-85664819D02*
X101737857Y-85664819D01*
X101737857Y-85664819D02*
X101880714Y-85712438D01*
X101880714Y-85712438D02*
X101928333Y-85760057D01*
X102261667Y-85664819D02*
X102928333Y-85664819D01*
X102928333Y-85664819D02*
X102499762Y-86664819D01*
X94038333Y-64169580D02*
X93990714Y-64217200D01*
X93990714Y-64217200D02*
X93847857Y-64264819D01*
X93847857Y-64264819D02*
X93752619Y-64264819D01*
X93752619Y-64264819D02*
X93609762Y-64217200D01*
X93609762Y-64217200D02*
X93514524Y-64121961D01*
X93514524Y-64121961D02*
X93466905Y-64026723D01*
X93466905Y-64026723D02*
X93419286Y-63836247D01*
X93419286Y-63836247D02*
X93419286Y-63693390D01*
X93419286Y-63693390D02*
X93466905Y-63502914D01*
X93466905Y-63502914D02*
X93514524Y-63407676D01*
X93514524Y-63407676D02*
X93609762Y-63312438D01*
X93609762Y-63312438D02*
X93752619Y-63264819D01*
X93752619Y-63264819D02*
X93847857Y-63264819D01*
X93847857Y-63264819D02*
X93990714Y-63312438D01*
X93990714Y-63312438D02*
X94038333Y-63360057D01*
X94990714Y-64264819D02*
X94419286Y-64264819D01*
X94705000Y-64264819D02*
X94705000Y-63264819D01*
X94705000Y-63264819D02*
X94609762Y-63407676D01*
X94609762Y-63407676D02*
X94514524Y-63502914D01*
X94514524Y-63502914D02*
X94419286Y-63550533D01*
X78471905Y-111304819D02*
X78471905Y-110304819D01*
X78471905Y-110304819D02*
X78710000Y-110304819D01*
X78710000Y-110304819D02*
X78852857Y-110352438D01*
X78852857Y-110352438D02*
X78948095Y-110447676D01*
X78948095Y-110447676D02*
X78995714Y-110542914D01*
X78995714Y-110542914D02*
X79043333Y-110733390D01*
X79043333Y-110733390D02*
X79043333Y-110876247D01*
X79043333Y-110876247D02*
X78995714Y-111066723D01*
X78995714Y-111066723D02*
X78948095Y-111161961D01*
X78948095Y-111161961D02*
X78852857Y-111257200D01*
X78852857Y-111257200D02*
X78710000Y-111304819D01*
X78710000Y-111304819D02*
X78471905Y-111304819D01*
X79900476Y-110304819D02*
X79710000Y-110304819D01*
X79710000Y-110304819D02*
X79614762Y-110352438D01*
X79614762Y-110352438D02*
X79567143Y-110400057D01*
X79567143Y-110400057D02*
X79471905Y-110542914D01*
X79471905Y-110542914D02*
X79424286Y-110733390D01*
X79424286Y-110733390D02*
X79424286Y-111114342D01*
X79424286Y-111114342D02*
X79471905Y-111209580D01*
X79471905Y-111209580D02*
X79519524Y-111257200D01*
X79519524Y-111257200D02*
X79614762Y-111304819D01*
X79614762Y-111304819D02*
X79805238Y-111304819D01*
X79805238Y-111304819D02*
X79900476Y-111257200D01*
X79900476Y-111257200D02*
X79948095Y-111209580D01*
X79948095Y-111209580D02*
X79995714Y-111114342D01*
X79995714Y-111114342D02*
X79995714Y-110876247D01*
X79995714Y-110876247D02*
X79948095Y-110781009D01*
X79948095Y-110781009D02*
X79900476Y-110733390D01*
X79900476Y-110733390D02*
X79805238Y-110685771D01*
X79805238Y-110685771D02*
X79614762Y-110685771D01*
X79614762Y-110685771D02*
X79519524Y-110733390D01*
X79519524Y-110733390D02*
X79471905Y-110781009D01*
X79471905Y-110781009D02*
X79424286Y-110876247D01*
X117287142Y-92154819D02*
X116953809Y-91678628D01*
X116715714Y-92154819D02*
X116715714Y-91154819D01*
X116715714Y-91154819D02*
X117096666Y-91154819D01*
X117096666Y-91154819D02*
X117191904Y-91202438D01*
X117191904Y-91202438D02*
X117239523Y-91250057D01*
X117239523Y-91250057D02*
X117287142Y-91345295D01*
X117287142Y-91345295D02*
X117287142Y-91488152D01*
X117287142Y-91488152D02*
X117239523Y-91583390D01*
X117239523Y-91583390D02*
X117191904Y-91631009D01*
X117191904Y-91631009D02*
X117096666Y-91678628D01*
X117096666Y-91678628D02*
X116715714Y-91678628D01*
X117668095Y-91250057D02*
X117715714Y-91202438D01*
X117715714Y-91202438D02*
X117810952Y-91154819D01*
X117810952Y-91154819D02*
X118049047Y-91154819D01*
X118049047Y-91154819D02*
X118144285Y-91202438D01*
X118144285Y-91202438D02*
X118191904Y-91250057D01*
X118191904Y-91250057D02*
X118239523Y-91345295D01*
X118239523Y-91345295D02*
X118239523Y-91440533D01*
X118239523Y-91440533D02*
X118191904Y-91583390D01*
X118191904Y-91583390D02*
X117620476Y-92154819D01*
X117620476Y-92154819D02*
X118239523Y-92154819D01*
X119191904Y-92154819D02*
X118620476Y-92154819D01*
X118906190Y-92154819D02*
X118906190Y-91154819D01*
X118906190Y-91154819D02*
X118810952Y-91297676D01*
X118810952Y-91297676D02*
X118715714Y-91392914D01*
X118715714Y-91392914D02*
X118620476Y-91440533D01*
X125232261Y-81540057D02*
X125137023Y-81492438D01*
X125137023Y-81492438D02*
X125041785Y-81397200D01*
X125041785Y-81397200D02*
X124898928Y-81254342D01*
X124898928Y-81254342D02*
X124803690Y-81206723D01*
X124803690Y-81206723D02*
X124708452Y-81206723D01*
X124756071Y-81444819D02*
X124660833Y-81397200D01*
X124660833Y-81397200D02*
X124565595Y-81301961D01*
X124565595Y-81301961D02*
X124517976Y-81111485D01*
X124517976Y-81111485D02*
X124517976Y-80778152D01*
X124517976Y-80778152D02*
X124565595Y-80587676D01*
X124565595Y-80587676D02*
X124660833Y-80492438D01*
X124660833Y-80492438D02*
X124756071Y-80444819D01*
X124756071Y-80444819D02*
X124946547Y-80444819D01*
X124946547Y-80444819D02*
X125041785Y-80492438D01*
X125041785Y-80492438D02*
X125137023Y-80587676D01*
X125137023Y-80587676D02*
X125184642Y-80778152D01*
X125184642Y-80778152D02*
X125184642Y-81111485D01*
X125184642Y-81111485D02*
X125137023Y-81301961D01*
X125137023Y-81301961D02*
X125041785Y-81397200D01*
X125041785Y-81397200D02*
X124946547Y-81444819D01*
X124946547Y-81444819D02*
X124756071Y-81444819D01*
X125565595Y-80540057D02*
X125613214Y-80492438D01*
X125613214Y-80492438D02*
X125708452Y-80444819D01*
X125708452Y-80444819D02*
X125946547Y-80444819D01*
X125946547Y-80444819D02*
X126041785Y-80492438D01*
X126041785Y-80492438D02*
X126089404Y-80540057D01*
X126089404Y-80540057D02*
X126137023Y-80635295D01*
X126137023Y-80635295D02*
X126137023Y-80730533D01*
X126137023Y-80730533D02*
X126089404Y-80873390D01*
X126089404Y-80873390D02*
X125517976Y-81444819D01*
X125517976Y-81444819D02*
X126137023Y-81444819D01*
X121397142Y-92079580D02*
X121349523Y-92127200D01*
X121349523Y-92127200D02*
X121206666Y-92174819D01*
X121206666Y-92174819D02*
X121111428Y-92174819D01*
X121111428Y-92174819D02*
X120968571Y-92127200D01*
X120968571Y-92127200D02*
X120873333Y-92031961D01*
X120873333Y-92031961D02*
X120825714Y-91936723D01*
X120825714Y-91936723D02*
X120778095Y-91746247D01*
X120778095Y-91746247D02*
X120778095Y-91603390D01*
X120778095Y-91603390D02*
X120825714Y-91412914D01*
X120825714Y-91412914D02*
X120873333Y-91317676D01*
X120873333Y-91317676D02*
X120968571Y-91222438D01*
X120968571Y-91222438D02*
X121111428Y-91174819D01*
X121111428Y-91174819D02*
X121206666Y-91174819D01*
X121206666Y-91174819D02*
X121349523Y-91222438D01*
X121349523Y-91222438D02*
X121397142Y-91270057D01*
X122349523Y-92174819D02*
X121778095Y-92174819D01*
X122063809Y-92174819D02*
X122063809Y-91174819D01*
X122063809Y-91174819D02*
X121968571Y-91317676D01*
X121968571Y-91317676D02*
X121873333Y-91412914D01*
X121873333Y-91412914D02*
X121778095Y-91460533D01*
X122682857Y-91174819D02*
X123301904Y-91174819D01*
X123301904Y-91174819D02*
X122968571Y-91555771D01*
X122968571Y-91555771D02*
X123111428Y-91555771D01*
X123111428Y-91555771D02*
X123206666Y-91603390D01*
X123206666Y-91603390D02*
X123254285Y-91651009D01*
X123254285Y-91651009D02*
X123301904Y-91746247D01*
X123301904Y-91746247D02*
X123301904Y-91984342D01*
X123301904Y-91984342D02*
X123254285Y-92079580D01*
X123254285Y-92079580D02*
X123206666Y-92127200D01*
X123206666Y-92127200D02*
X123111428Y-92174819D01*
X123111428Y-92174819D02*
X122825714Y-92174819D01*
X122825714Y-92174819D02*
X122730476Y-92127200D01*
X122730476Y-92127200D02*
X122682857Y-92079580D01*
X92037405Y-114289819D02*
X92037405Y-113289819D01*
X92037405Y-113289819D02*
X92275500Y-113289819D01*
X92275500Y-113289819D02*
X92418357Y-113337438D01*
X92418357Y-113337438D02*
X92513595Y-113432676D01*
X92513595Y-113432676D02*
X92561214Y-113527914D01*
X92561214Y-113527914D02*
X92608833Y-113718390D01*
X92608833Y-113718390D02*
X92608833Y-113861247D01*
X92608833Y-113861247D02*
X92561214Y-114051723D01*
X92561214Y-114051723D02*
X92513595Y-114146961D01*
X92513595Y-114146961D02*
X92418357Y-114242200D01*
X92418357Y-114242200D02*
X92275500Y-114289819D01*
X92275500Y-114289819D02*
X92037405Y-114289819D01*
X93465976Y-113623152D02*
X93465976Y-114289819D01*
X93227881Y-113242200D02*
X92989786Y-113956485D01*
X92989786Y-113956485D02*
X93608833Y-113956485D01*
D11*
X78982742Y-83757500D02*
X79457258Y-83757500D01*
X78982742Y-84802500D02*
X79457258Y-84802500D01*
X92599420Y-118680000D02*
X92880580Y-118680000D01*
X92599420Y-119700000D02*
X92880580Y-119700000D01*
X99732742Y-73347500D02*
X100207258Y-73347500D01*
X99732742Y-74392500D02*
X100207258Y-74392500D01*
X124887500Y-99260000D02*
X124237500Y-99260000D01*
X124887500Y-99260000D02*
X125537500Y-99260000D01*
X124887500Y-102380000D02*
X124237500Y-102380000D01*
X124887500Y-102380000D02*
X125537500Y-102380000D01*
X123725000Y-99310000D02*
X123485000Y-98980000D01*
X123965000Y-98980000D01*
X123725000Y-99310000D01*
G36*
X123725000Y-99310000D02*
G01*
X123485000Y-98980000D01*
X123965000Y-98980000D01*
X123725000Y-99310000D01*
G37*
X94797258Y-90027500D02*
X94322742Y-90027500D01*
X94797258Y-91072500D02*
X94322742Y-91072500D01*
X116679420Y-69300000D02*
X116960580Y-69300000D01*
X116679420Y-70320000D02*
X116960580Y-70320000D01*
X117297500Y-94890000D02*
X116497500Y-94890000D01*
X117297500Y-94890000D02*
X118097500Y-94890000D01*
X117297500Y-98010000D02*
X116497500Y-98010000D01*
X117297500Y-98010000D02*
X118097500Y-98010000D01*
X115997500Y-94940000D02*
X115757500Y-94610000D01*
X116237500Y-94610000D01*
X115997500Y-94940000D01*
G36*
X115997500Y-94940000D02*
G01*
X115757500Y-94610000D01*
X116237500Y-94610000D01*
X115997500Y-94940000D01*
G37*
X100332258Y-108297500D02*
X99857742Y-108297500D01*
X100332258Y-109342500D02*
X99857742Y-109342500D01*
X76220000Y-102770000D02*
X76220000Y-108890000D01*
X76220000Y-105330000D02*
X80580000Y-105330000D01*
X76220000Y-108890000D02*
X84040000Y-108890000D01*
X78480000Y-103530000D02*
X78480000Y-104530000D01*
X78480000Y-104030000D02*
X76220000Y-104030000D01*
X78480000Y-104530000D02*
X76220000Y-104530000D01*
X78480000Y-104530000D02*
X80080000Y-104530000D01*
X78480000Y-107130000D02*
X80080000Y-107130000D01*
X78480000Y-108130000D02*
X78480000Y-107130000D01*
X80080000Y-103530000D02*
X78480000Y-103530000D01*
X80080000Y-104530000D02*
X80080000Y-103530000D01*
X80080000Y-107130000D02*
X80080000Y-108130000D01*
X80080000Y-108130000D02*
X78480000Y-108130000D01*
X80580000Y-105330000D02*
X80580000Y-106330000D01*
X80580000Y-106330000D02*
X76220000Y-106330000D01*
X82440000Y-102770000D02*
X82440000Y-103690000D01*
X82440000Y-103690000D02*
X84040000Y-103690000D01*
X82440000Y-103970000D02*
X82440000Y-103690000D01*
X82440000Y-103970000D02*
X83655000Y-103970000D01*
X82440000Y-107970000D02*
X82440000Y-107690000D01*
X82440000Y-108890000D02*
X82440000Y-107970000D01*
X84040000Y-102770000D02*
X76220000Y-102770000D01*
X84040000Y-103690000D02*
X84040000Y-102770000D01*
X84040000Y-107970000D02*
X82440000Y-107970000D01*
X84040000Y-108890000D02*
X84040000Y-107970000D01*
X76290000Y-75580000D02*
X76290000Y-81700000D01*
X76290000Y-78140000D02*
X80650000Y-78140000D01*
X76290000Y-81700000D02*
X84110000Y-81700000D01*
X78550000Y-76340000D02*
X78550000Y-77340000D01*
X78550000Y-76840000D02*
X76290000Y-76840000D01*
X78550000Y-77340000D02*
X76290000Y-77340000D01*
X78550000Y-77340000D02*
X80150000Y-77340000D01*
X78550000Y-79940000D02*
X80150000Y-79940000D01*
X78550000Y-80940000D02*
X78550000Y-79940000D01*
X80150000Y-76340000D02*
X78550000Y-76340000D01*
X80150000Y-77340000D02*
X80150000Y-76340000D01*
X80150000Y-79940000D02*
X80150000Y-80940000D01*
X80150000Y-80940000D02*
X78550000Y-80940000D01*
X80650000Y-78140000D02*
X80650000Y-79140000D01*
X80650000Y-79140000D02*
X76290000Y-79140000D01*
X82510000Y-75580000D02*
X82510000Y-76500000D01*
X82510000Y-76500000D02*
X84110000Y-76500000D01*
X82510000Y-76780000D02*
X82510000Y-76500000D01*
X82510000Y-76780000D02*
X83725000Y-76780000D01*
X82510000Y-80780000D02*
X82510000Y-80500000D01*
X82510000Y-81700000D02*
X82510000Y-80780000D01*
X84110000Y-75580000D02*
X76290000Y-75580000D01*
X84110000Y-76500000D02*
X84110000Y-75580000D01*
X84110000Y-80780000D02*
X82510000Y-80780000D01*
X84110000Y-81700000D02*
X84110000Y-80780000D01*
X115950000Y-103170000D02*
X115950000Y-104090000D01*
X115950000Y-104090000D02*
X117550000Y-104090000D01*
X115950000Y-108370000D02*
X115950000Y-109290000D01*
X115950000Y-109290000D02*
X123770000Y-109290000D01*
X117550000Y-103170000D02*
X117550000Y-104090000D01*
X117550000Y-104090000D02*
X117550000Y-104370000D01*
X117550000Y-108090000D02*
X116335000Y-108090000D01*
X117550000Y-108090000D02*
X117550000Y-108370000D01*
X117550000Y-108370000D02*
X115950000Y-108370000D01*
X117550000Y-109290000D02*
X117550000Y-108370000D01*
X119410000Y-105730000D02*
X123770000Y-105730000D01*
X119410000Y-106730000D02*
X119410000Y-105730000D01*
X119910000Y-103930000D02*
X121510000Y-103930000D01*
X119910000Y-104930000D02*
X119910000Y-103930000D01*
X119910000Y-107530000D02*
X119910000Y-108530000D01*
X119910000Y-108530000D02*
X121510000Y-108530000D01*
X121510000Y-103930000D02*
X121510000Y-104930000D01*
X121510000Y-104930000D02*
X119910000Y-104930000D01*
X121510000Y-107530000D02*
X119910000Y-107530000D01*
X121510000Y-107530000D02*
X123770000Y-107530000D01*
X121510000Y-108030000D02*
X123770000Y-108030000D01*
X121510000Y-108530000D02*
X121510000Y-107530000D01*
X123770000Y-103170000D02*
X115950000Y-103170000D01*
X123770000Y-106730000D02*
X119410000Y-106730000D01*
X123770000Y-109290000D02*
X123770000Y-103170000D01*
X74920000Y-82790000D02*
X74270000Y-82790000D01*
X74920000Y-82790000D02*
X75570000Y-82790000D01*
X74920000Y-85910000D02*
X74270000Y-85910000D01*
X74920000Y-85910000D02*
X75570000Y-85910000D01*
X76322500Y-86190000D02*
X75842500Y-86190000D01*
X76082500Y-85860000D01*
X76322500Y-86190000D01*
G36*
X76322500Y-86190000D02*
G01*
X75842500Y-86190000D01*
X76082500Y-85860000D01*
X76322500Y-86190000D01*
G37*
X116444420Y-113690000D02*
X116725580Y-113690000D01*
X116444420Y-114710000D02*
X116725580Y-114710000D01*
X78972742Y-100077500D02*
X79447258Y-100077500D01*
X78972742Y-101122500D02*
X79447258Y-101122500D01*
X117197258Y-101057500D02*
X116722742Y-101057500D01*
X117197258Y-102102500D02*
X116722742Y-102102500D01*
X83540580Y-112680000D02*
X83259420Y-112680000D01*
X83540580Y-113700000D02*
X83259420Y-113700000D01*
X115370000Y-71290000D02*
X115370000Y-73290000D01*
X115370000Y-71290000D02*
X119230000Y-71290000D01*
X115370000Y-73290000D02*
X119230000Y-73290000D01*
X120857258Y-100377500D02*
X120382742Y-100377500D01*
X120857258Y-101422500D02*
X120382742Y-101422500D01*
X82027258Y-91237500D02*
X81552742Y-91237500D01*
X82027258Y-92282500D02*
X81552742Y-92282500D01*
X117257258Y-82237500D02*
X116782742Y-82237500D01*
X117257258Y-83282500D02*
X116782742Y-83282500D01*
X80265000Y-92825000D02*
X80265000Y-94295000D01*
X80265000Y-94295000D02*
X82550000Y-94295000D01*
X82550000Y-92825000D02*
X80265000Y-92825000D01*
X120612742Y-83237500D02*
X121087258Y-83237500D01*
X120612742Y-84282500D02*
X121087258Y-84282500D01*
X124457500Y-95490000D02*
X120597500Y-95490000D01*
X124457500Y-97490000D02*
X120597500Y-97490000D01*
X124457500Y-97490000D02*
X124457500Y-95490000D01*
X82062258Y-89347500D02*
X81587742Y-89347500D01*
X82062258Y-90392500D02*
X81587742Y-90392500D01*
X100192258Y-75197500D02*
X99717742Y-75197500D01*
X100192258Y-76242500D02*
X99717742Y-76242500D01*
X118167258Y-89507500D02*
X117692742Y-89507500D01*
X118167258Y-90552500D02*
X117692742Y-90552500D01*
X116030000Y-74980000D02*
X116030000Y-75900000D01*
X116030000Y-75900000D02*
X117630000Y-75900000D01*
X116030000Y-80180000D02*
X116030000Y-81100000D01*
X116030000Y-81100000D02*
X123850000Y-81100000D01*
X117630000Y-74980000D02*
X117630000Y-75900000D01*
X117630000Y-75900000D02*
X117630000Y-76180000D01*
X117630000Y-79900000D02*
X116415000Y-79900000D01*
X117630000Y-79900000D02*
X117630000Y-80180000D01*
X117630000Y-80180000D02*
X116030000Y-80180000D01*
X117630000Y-81100000D02*
X117630000Y-80180000D01*
X119490000Y-77540000D02*
X123850000Y-77540000D01*
X119490000Y-78540000D02*
X119490000Y-77540000D01*
X119990000Y-75740000D02*
X121590000Y-75740000D01*
X119990000Y-76740000D02*
X119990000Y-75740000D01*
X119990000Y-79340000D02*
X119990000Y-80340000D01*
X119990000Y-80340000D02*
X121590000Y-80340000D01*
X121590000Y-75740000D02*
X121590000Y-76740000D01*
X121590000Y-76740000D02*
X119990000Y-76740000D01*
X121590000Y-79340000D02*
X119990000Y-79340000D01*
X121590000Y-79340000D02*
X123850000Y-79340000D01*
X121590000Y-79840000D02*
X123850000Y-79840000D01*
X121590000Y-80340000D02*
X121590000Y-79340000D01*
X123850000Y-74980000D02*
X116030000Y-74980000D01*
X123850000Y-78540000D02*
X119490000Y-78540000D01*
X123850000Y-81100000D02*
X123850000Y-74980000D01*
X97090000Y-62960000D02*
X97090000Y-70780000D01*
X97090000Y-69180000D02*
X98010000Y-69180000D01*
X97090000Y-70780000D02*
X98010000Y-70780000D01*
X97850000Y-65220000D02*
X98850000Y-65220000D01*
X97850000Y-66820000D02*
X97850000Y-65220000D01*
X98010000Y-69180000D02*
X98290000Y-69180000D01*
X98010000Y-70780000D02*
X98010000Y-69180000D01*
X98850000Y-65220000D02*
X98850000Y-66820000D01*
X98850000Y-66820000D02*
X97850000Y-66820000D01*
X99650000Y-67320000D02*
X99650000Y-62960000D01*
X100650000Y-62960000D02*
X100650000Y-67320000D01*
X100650000Y-67320000D02*
X99650000Y-67320000D01*
X101450000Y-65220000D02*
X101450000Y-62960000D01*
X101450000Y-65220000D02*
X101450000Y-66820000D01*
X101450000Y-66820000D02*
X102450000Y-66820000D01*
X101950000Y-65220000D02*
X101950000Y-62960000D01*
X102010000Y-69180000D02*
X102010000Y-70395000D01*
X102010000Y-69180000D02*
X102290000Y-69180000D01*
X102290000Y-69180000D02*
X102290000Y-70780000D01*
X102290000Y-70780000D02*
X103210000Y-70780000D01*
X102450000Y-65220000D02*
X101450000Y-65220000D01*
X102450000Y-66820000D02*
X102450000Y-65220000D01*
X103210000Y-62960000D02*
X97090000Y-62960000D01*
X103210000Y-69180000D02*
X102290000Y-69180000D01*
X103210000Y-70780000D02*
X103210000Y-62960000D01*
X75010000Y-98502500D02*
X74360000Y-98502500D01*
X75010000Y-98502500D02*
X75660000Y-98502500D01*
X75010000Y-101622500D02*
X74360000Y-101622500D01*
X75010000Y-101622500D02*
X75660000Y-101622500D01*
X76412500Y-101902500D02*
X75932500Y-101902500D01*
X76172500Y-101572500D01*
X76412500Y-101902500D01*
G36*
X76412500Y-101902500D02*
G01*
X75932500Y-101902500D01*
X76172500Y-101572500D01*
X76412500Y-101902500D01*
G37*
X82652742Y-100627500D02*
X83127258Y-100627500D01*
X82652742Y-101672500D02*
X83127258Y-101672500D01*
X105977742Y-90147500D02*
X106452258Y-90147500D01*
X105977742Y-91192500D02*
X106452258Y-91192500D01*
X115132500Y-110910000D02*
X115132500Y-112910000D01*
X115132500Y-110910000D02*
X118992500Y-110910000D01*
X115132500Y-112910000D02*
X118992500Y-112910000D01*
X91930000Y-66990000D02*
X91930000Y-68990000D01*
X91930000Y-66990000D02*
X95790000Y-66990000D01*
X91930000Y-68990000D02*
X95790000Y-68990000D01*
X94262742Y-87127500D02*
X94737258Y-87127500D01*
X94262742Y-88172500D02*
X94737258Y-88172500D01*
X99847742Y-110077500D02*
X100322258Y-110077500D01*
X99847742Y-111122500D02*
X100322258Y-111122500D01*
X105957742Y-93327500D02*
X106432258Y-93327500D01*
X105957742Y-94372500D02*
X106432258Y-94372500D01*
X97230000Y-113610000D02*
X97230000Y-121430000D01*
X97230000Y-115210000D02*
X98150000Y-115210000D01*
X97230000Y-121430000D02*
X103350000Y-121430000D01*
X97990000Y-117570000D02*
X97990000Y-119170000D01*
X97990000Y-119170000D02*
X98990000Y-119170000D01*
X98150000Y-113610000D02*
X97230000Y-113610000D01*
X98150000Y-115210000D02*
X98150000Y-113610000D01*
X98430000Y-115210000D02*
X98150000Y-115210000D01*
X98430000Y-115210000D02*
X98430000Y-113995000D01*
X98490000Y-119170000D02*
X98490000Y-121430000D01*
X98990000Y-117570000D02*
X97990000Y-117570000D01*
X98990000Y-119170000D02*
X98990000Y-117570000D01*
X98990000Y-119170000D02*
X98990000Y-121430000D01*
X99790000Y-117070000D02*
X100790000Y-117070000D01*
X99790000Y-121430000D02*
X99790000Y-117070000D01*
X100790000Y-117070000D02*
X100790000Y-121430000D01*
X101590000Y-117570000D02*
X102590000Y-117570000D01*
X101590000Y-119170000D02*
X101590000Y-117570000D01*
X102430000Y-113610000D02*
X102430000Y-115210000D01*
X102430000Y-115210000D02*
X102150000Y-115210000D01*
X102590000Y-117570000D02*
X102590000Y-119170000D01*
X102590000Y-119170000D02*
X101590000Y-119170000D01*
X103350000Y-113610000D02*
X102430000Y-113610000D01*
X103350000Y-115210000D02*
X102430000Y-115210000D01*
X103350000Y-121430000D02*
X103350000Y-113610000D01*
X84927500Y-72290000D02*
X81067500Y-72290000D01*
X84927500Y-74290000D02*
X81067500Y-74290000D01*
X84927500Y-74290000D02*
X84927500Y-72290000D01*
X126470000Y-89995000D02*
X127800000Y-89995000D01*
X126470000Y-91325000D02*
X126470000Y-89995000D01*
X126470000Y-92595000D02*
X126470000Y-95195000D01*
X126470000Y-92595000D02*
X129130000Y-92595000D01*
X126470000Y-95195000D02*
X129130000Y-95195000D01*
X129130000Y-92595000D02*
X129130000Y-95195000D01*
X122245580Y-89530000D02*
X121964420Y-89530000D01*
X122245580Y-90550000D02*
X121964420Y-90550000D01*
X71140000Y-91860000D02*
X71140000Y-91960000D01*
X71140000Y-93460000D02*
X75540000Y-93460000D01*
X75540000Y-90360000D02*
X71140000Y-90360000D01*
X75540000Y-91860000D02*
X75540000Y-91960000D01*
X94777258Y-93297500D02*
X94302742Y-93297500D01*
X94777258Y-94342500D02*
X94302742Y-94342500D01*
X105867742Y-86877500D02*
X106342258Y-86877500D01*
X105867742Y-87922500D02*
X106342258Y-87922500D01*
X82812742Y-82847500D02*
X83287258Y-82847500D01*
X82812742Y-83892500D02*
X83287258Y-83892500D01*
X106392500Y-63770000D02*
X105742500Y-63770000D01*
X106392500Y-63770000D02*
X107042500Y-63770000D01*
X106392500Y-66890000D02*
X105742500Y-66890000D01*
X106392500Y-66890000D02*
X107042500Y-66890000D01*
X107795000Y-67170000D02*
X107315000Y-67170000D01*
X107555000Y-66840000D01*
X107795000Y-67170000D01*
G36*
X107795000Y-67170000D02*
G01*
X107315000Y-67170000D01*
X107555000Y-66840000D01*
X107795000Y-67170000D01*
G37*
X97475000Y-94500000D02*
X97475000Y-94240000D01*
X97475000Y-94500000D02*
X97735000Y-94500000D01*
X102895000Y-90480000D02*
X102635000Y-90480000D01*
X102895000Y-90480000D02*
X102895000Y-90740000D01*
X102895000Y-94500000D02*
X102635000Y-94500000D01*
X102895000Y-94500000D02*
X102895000Y-94240000D01*
D12*
X97475000Y-90480000D02*
X97115000Y-90480000D01*
X97475000Y-90120000D01*
X97475000Y-90480000D01*
G36*
X97475000Y-90480000D02*
G01*
X97115000Y-90480000D01*
X97475000Y-90120000D01*
X97475000Y-90480000D01*
G37*
D13*
X86215000Y-115620000D02*
X86215000Y-69360000D01*
X87215000Y-68360000D02*
X91185000Y-68360000D01*
X87215000Y-116620000D02*
X96135000Y-116620000D01*
X91185000Y-61620000D02*
X109185000Y-61620000D01*
X91185000Y-68360000D02*
X91185000Y-61620000D01*
X96135000Y-116620000D02*
X96135000Y-117620000D01*
X96135000Y-117620000D02*
X104235000Y-117620000D01*
X104235000Y-116620000D02*
X113155000Y-116620000D01*
X104235000Y-117620000D02*
X104235000Y-116620000D01*
X109185000Y-61620000D02*
X109185000Y-68360000D01*
X109185000Y-68360000D02*
X113155000Y-68360000D01*
X114155000Y-115620000D02*
X114155000Y-69360000D01*
X86215000Y-69360000D02*
G75*
G02*
X87215000Y-68360000I999999J1D01*
G01*
X87215000Y-116620000D02*
G75*
G02*
X86215000Y-115620000I-1J999999D01*
G01*
X113155000Y-68360000D02*
G75*
G02*
X114155000Y-69360000I0J-1000000D01*
G01*
X114155000Y-115620000D02*
G75*
G02*
X113155000Y-116620000I-1000000J0D01*
G01*
D14*
X85785000Y-69655000D02*
G75*
G02*
X85585000Y-69655000I-100000J0D01*
G01*
X85585000Y-69655000D02*
G75*
G02*
X85785000Y-69655000I100000J0D01*
G01*
D11*
X100229420Y-95870000D02*
X100510580Y-95870000D01*
X100229420Y-96890000D02*
X100510580Y-96890000D01*
X98700580Y-86580000D02*
X98419420Y-86580000D01*
X98700580Y-87600000D02*
X98419420Y-87600000D01*
X106870000Y-115080000D02*
X106220000Y-115080000D01*
X106870000Y-115080000D02*
X107520000Y-115080000D01*
X106870000Y-118200000D02*
X106220000Y-118200000D01*
X106870000Y-118200000D02*
X107520000Y-118200000D01*
X108272500Y-118480000D02*
X107792500Y-118480000D01*
X108032500Y-118150000D01*
X108272500Y-118480000D01*
G36*
X108272500Y-118480000D02*
G01*
X107792500Y-118480000D01*
X108032500Y-118150000D01*
X108272500Y-118480000D01*
G37*
X83540580Y-70130000D02*
X83259420Y-70130000D01*
X83540580Y-71150000D02*
X83259420Y-71150000D01*
X102370580Y-87110000D02*
X102089420Y-87110000D01*
X102370580Y-88130000D02*
X102089420Y-88130000D01*
X94064420Y-64730000D02*
X94345580Y-64730000D01*
X94064420Y-65750000D02*
X94345580Y-65750000D01*
X84920000Y-109860000D02*
X81060000Y-109860000D01*
X84920000Y-111860000D02*
X81060000Y-111860000D01*
X84920000Y-111860000D02*
X84920000Y-109860000D01*
X117692742Y-92607500D02*
X118167258Y-92607500D01*
X117692742Y-93652500D02*
X118167258Y-93652500D01*
X125230000Y-82130000D02*
X124580000Y-82130000D01*
X125230000Y-82130000D02*
X125880000Y-82130000D01*
X125230000Y-85250000D02*
X124580000Y-85250000D01*
X125230000Y-85250000D02*
X125880000Y-85250000D01*
X124067500Y-82180000D02*
X123827500Y-81850000D01*
X124307500Y-81850000D01*
X124067500Y-82180000D01*
G36*
X124067500Y-82180000D02*
G01*
X123827500Y-81850000D01*
X124307500Y-81850000D01*
X124067500Y-82180000D01*
G37*
X121899420Y-92640000D02*
X122180580Y-92640000D01*
X121899420Y-93660000D02*
X122180580Y-93660000D01*
X90692500Y-114740000D02*
X90692500Y-116740000D01*
X90692500Y-114740000D02*
X94552500Y-114740000D01*
X90692500Y-116740000D02*
X94552500Y-116740000D01*
M02*
