G04 #@! TF.GenerationSoftware,KiCad,Pcbnew,8.0.8-8.0.8-0~ubuntu24.04.1*
G04 #@! TF.CreationDate,2025-03-31T18:32:50+09:00*
G04 #@! TF.ProjectId,multicopter,6d756c74-6963-46f7-9074-65722e6b6963,rev?*
G04 #@! TF.SameCoordinates,Original*
G04 #@! TF.FileFunction,Profile,NP*
%FSLAX46Y46*%
G04 Gerber Fmt 4.6, Leading zero omitted, Abs format (unit mm)*
G04 Created by KiCad (PCBNEW 8.0.8-8.0.8-0~ubuntu24.04.1) date 2025-03-31 18:32:50*
%MOMM*%
%LPD*%
G01*
G04 APERTURE LIST*
G04 #@! TA.AperFunction,Profile*
%ADD10C,0.200000*%
G04 #@! TD*
G04 APERTURE END LIST*
D10*
X127410000Y-117850000D02*
G75*
G02*
X124210000Y-117850000I-1600000J0D01*
G01*
X124210000Y-117850000D02*
G75*
G02*
X127410000Y-117850000I1600000J0D01*
G01*
X72758320Y-68475275D02*
G75*
G02*
X76435272Y-64798321I1838475J1838478D01*
G01*
X127648477Y-116011521D02*
X123175259Y-111538304D01*
X72758363Y-116011562D02*
X72758321Y-116011520D01*
X123175268Y-72948484D02*
G75*
G02*
X130203385Y-92243398I-22971968J-19294916D01*
G01*
X76435274Y-64798319D02*
X80908490Y-69271535D01*
X77231536Y-111538306D02*
G75*
G02*
X77231537Y-72948492I22971854J19294906D01*
G01*
X80908490Y-69271535D02*
G75*
G02*
X119498307Y-69271535I19294909J-22971862D01*
G01*
X95303398Y-108243398D02*
G75*
G02*
X92103398Y-108243398I-1600000J0D01*
G01*
X92103398Y-108243398D02*
G75*
G02*
X95303398Y-108243398I1600000J0D01*
G01*
X76196797Y-117850000D02*
G75*
G02*
X72996797Y-117850000I-1600000J0D01*
G01*
X72996797Y-117850000D02*
G75*
G02*
X76196797Y-117850000I1600000J0D01*
G01*
X76435273Y-64798320D02*
X76435274Y-64798319D01*
X123971520Y-64798321D02*
X119498307Y-69271535D01*
X95303398Y-76243398D02*
G75*
G02*
X92103398Y-76243398I-1600000J0D01*
G01*
X92103398Y-76243398D02*
G75*
G02*
X95303398Y-76243398I1600000J0D01*
G01*
X76435276Y-119688476D02*
X80908492Y-115215260D01*
X108303398Y-76243398D02*
G75*
G02*
X105103398Y-76243398I-1600000J0D01*
G01*
X105103398Y-76243398D02*
G75*
G02*
X108303398Y-76243398I1600000J0D01*
G01*
X127410000Y-66636797D02*
G75*
G02*
X124210000Y-66636797I-1600000J0D01*
G01*
X124210000Y-66636797D02*
G75*
G02*
X127410000Y-66636797I1600000J0D01*
G01*
X127635986Y-68487766D02*
X123175268Y-72948484D01*
X108303398Y-108243398D02*
G75*
G02*
X105103398Y-108243398I-1600000J0D01*
G01*
X105103398Y-108243398D02*
G75*
G02*
X108303398Y-108243398I1600000J0D01*
G01*
X72758320Y-68475275D02*
X77231537Y-72948492D01*
X76435276Y-119688476D02*
G75*
G02*
X72758314Y-116011514I-1838457J1838505D01*
G01*
X123971520Y-64798321D02*
G75*
G02*
X127635947Y-68487727I1838480J-1838479D01*
G01*
X127648477Y-116011521D02*
G75*
G02*
X123971521Y-119688477I-1838478J-1838478D01*
G01*
X123971521Y-119688477D02*
X119498306Y-115215260D01*
X72758321Y-116011520D02*
X77231536Y-111538306D01*
X130203398Y-92243398D02*
G75*
G02*
X123175262Y-111538307I-29999998J-2D01*
G01*
X76196797Y-66636797D02*
G75*
G02*
X72996797Y-66636797I-1600000J0D01*
G01*
X72996797Y-66636797D02*
G75*
G02*
X76196797Y-66636797I1600000J0D01*
G01*
X119498306Y-115215260D02*
G75*
G02*
X80908492Y-115215260I-19294907J22971853D01*
G01*
M02*
