G04 #@! TF.GenerationSoftware,KiCad,Pcbnew,8.0.8-8.0.8-0~ubuntu24.04.1*
G04 #@! TF.CreationDate,2025-03-31T18:32:50+09:00*
G04 #@! TF.ProjectId,multicopter,6d756c74-6963-46f7-9074-65722e6b6963,rev?*
G04 #@! TF.SameCoordinates,Original*
G04 #@! TF.FileFunction,Copper,L2,Bot*
G04 #@! TF.FilePolarity,Positive*
%FSLAX46Y46*%
G04 Gerber Fmt 4.6, Leading zero omitted, Abs format (unit mm)*
G04 Created by KiCad (PCBNEW 8.0.8-8.0.8-0~ubuntu24.04.1) date 2025-03-31 18:32:50*
%MOMM*%
%LPD*%
G01*
G04 APERTURE LIST*
G04 Aperture macros list*
%AMRoundRect*
0 Rectangle with rounded corners*
0 $1 Rounding radius*
0 $2 $3 $4 $5 $6 $7 $8 $9 X,Y pos of 4 corners*
0 Add a 4 corners polygon primitive as box body*
4,1,4,$2,$3,$4,$5,$6,$7,$8,$9,$2,$3,0*
0 Add four circle primitives for the rounded corners*
1,1,$1+$1,$2,$3*
1,1,$1+$1,$4,$5*
1,1,$1+$1,$6,$7*
1,1,$1+$1,$8,$9*
0 Add four rect primitives between the rounded corners*
20,1,$1+$1,$2,$3,$4,$5,0*
20,1,$1+$1,$4,$5,$6,$7,0*
20,1,$1+$1,$6,$7,$8,$9,0*
20,1,$1+$1,$8,$9,$2,$3,0*%
G04 Aperture macros list end*
G04 #@! TA.AperFunction,ComponentPad*
%ADD10RoundRect,0.250000X-0.625000X0.350000X-0.625000X-0.350000X0.625000X-0.350000X0.625000X0.350000X0*%
G04 #@! TD*
G04 #@! TA.AperFunction,ComponentPad*
%ADD11O,1.750000X1.200000*%
G04 #@! TD*
G04 #@! TA.AperFunction,ComponentPad*
%ADD12RoundRect,0.250000X0.625000X-0.350000X0.625000X0.350000X-0.625000X0.350000X-0.625000X-0.350000X0*%
G04 #@! TD*
G04 #@! TA.AperFunction,ComponentPad*
%ADD13RoundRect,0.250000X0.350000X0.625000X-0.350000X0.625000X-0.350000X-0.625000X0.350000X-0.625000X0*%
G04 #@! TD*
G04 #@! TA.AperFunction,ComponentPad*
%ADD14O,1.200000X1.750000*%
G04 #@! TD*
G04 #@! TA.AperFunction,ComponentPad*
%ADD15RoundRect,0.250000X-0.350000X-0.625000X0.350000X-0.625000X0.350000X0.625000X-0.350000X0.625000X0*%
G04 #@! TD*
G04 #@! TA.AperFunction,ComponentPad*
%ADD16R,1.700000X1.700000*%
G04 #@! TD*
G04 #@! TA.AperFunction,ComponentPad*
%ADD17O,1.700000X1.700000*%
G04 #@! TD*
G04 #@! TA.AperFunction,ComponentPad*
%ADD18R,1.408000X1.408000*%
G04 #@! TD*
G04 #@! TA.AperFunction,ComponentPad*
%ADD19C,1.408000*%
G04 #@! TD*
G04 #@! TA.AperFunction,SMDPad,CuDef*
%ADD20R,1.903000X2.790000*%
G04 #@! TD*
G04 #@! TA.AperFunction,ViaPad*
%ADD21C,0.600000*%
G04 #@! TD*
G04 #@! TA.AperFunction,Conductor*
%ADD22C,0.800000*%
G04 #@! TD*
G04 #@! TA.AperFunction,Conductor*
%ADD23C,0.150000*%
G04 #@! TD*
G04 APERTURE END LIST*
D10*
X82580000Y-104830000D03*
D11*
X82580000Y-106830000D03*
D10*
X82650000Y-77640000D03*
D11*
X82650000Y-79640000D03*
D12*
X117410000Y-107230000D03*
D11*
X117410000Y-105230000D03*
D12*
X117490000Y-79040000D03*
D11*
X117490000Y-77040000D03*
D13*
X101150000Y-69320000D03*
D14*
X99150000Y-69320000D03*
D15*
X99290000Y-115070000D03*
D14*
X101290000Y-115070000D03*
D16*
X127800000Y-91325000D03*
D17*
X127800000Y-93865000D03*
D18*
X87485000Y-69655000D03*
D19*
X87485000Y-72195000D03*
X87485000Y-74735000D03*
X87485000Y-77275000D03*
X87485000Y-79815000D03*
X87485000Y-82355000D03*
X87485000Y-84895000D03*
X87485000Y-87435000D03*
X87485000Y-89975000D03*
X87485000Y-92515000D03*
X87485000Y-95055000D03*
X87485000Y-97595000D03*
X87485000Y-100135000D03*
X87485000Y-102675000D03*
X87485000Y-105215000D03*
X87485000Y-107755000D03*
X87485000Y-110295000D03*
X87485000Y-112835000D03*
X87485000Y-115375000D03*
X112885000Y-69655000D03*
X112885000Y-72195000D03*
X112885000Y-74735000D03*
X112885000Y-77275000D03*
X112885000Y-79815000D03*
X112885000Y-82355000D03*
X112885000Y-84895000D03*
X112885000Y-87435000D03*
X112885000Y-89975000D03*
X112885000Y-92515000D03*
X112885000Y-95055000D03*
X112885000Y-97595000D03*
X112885000Y-100135000D03*
X112885000Y-102675000D03*
X112885000Y-105215000D03*
X112885000Y-107755000D03*
X112885000Y-110295000D03*
X112885000Y-112835000D03*
X112885000Y-115375000D03*
D13*
X106160000Y-101470000D03*
D14*
X104160000Y-101470000D03*
X102160000Y-101470000D03*
X100160000Y-101470000D03*
X98160000Y-101470000D03*
X96160000Y-101470000D03*
X94160000Y-101470000D03*
D20*
X122416500Y-90480000D03*
X117563500Y-90480000D03*
D15*
X94060000Y-82820000D03*
D14*
X96060000Y-82820000D03*
X98060000Y-82820000D03*
X100060000Y-82820000D03*
X102060000Y-82820000D03*
X104060000Y-82820000D03*
X106060000Y-82820000D03*
D21*
X82910000Y-114510000D03*
X85060000Y-101140000D03*
X76650000Y-92740000D03*
X79450000Y-70640000D03*
X100750000Y-86360000D03*
X96480000Y-87090000D03*
X99250000Y-106230000D03*
X94820000Y-120570000D03*
X116100000Y-99280000D03*
X107360000Y-65340000D03*
X117540000Y-71270000D03*
X102280000Y-73870000D03*
X95540000Y-70520000D03*
X106470000Y-89160000D03*
X119420000Y-113610000D03*
X109790000Y-117050000D03*
X102253413Y-96323413D03*
X121860000Y-99100000D03*
X77810000Y-90600000D03*
X122625000Y-101485000D03*
X123950000Y-101770000D03*
X93280000Y-111820000D03*
X97430000Y-66430000D03*
X99940000Y-89865000D03*
X93715000Y-96145000D03*
X123990000Y-93150000D03*
X91445000Y-96450000D03*
X109490000Y-100090000D03*
X78060000Y-83400000D03*
X100250000Y-98585000D03*
X125770000Y-98010000D03*
X103640000Y-88540000D03*
X96700000Y-90130000D03*
X95150000Y-80930000D03*
X106645000Y-91930000D03*
X102600000Y-65330000D03*
X94280000Y-116590000D03*
X117710000Y-94600000D03*
X104890000Y-67460000D03*
X100910000Y-109800000D03*
X103130000Y-116960000D03*
X102540000Y-79420000D03*
X106610000Y-79390000D03*
X92660000Y-102960000D03*
X116135000Y-101580000D03*
X90536587Y-97293413D03*
X104735027Y-89859125D03*
X106250000Y-85390000D03*
X94080000Y-88920000D03*
X100600000Y-92815000D03*
X107880000Y-92780000D03*
X101570000Y-92815000D03*
X115050000Y-93130000D03*
X105663763Y-85934363D03*
D22*
X82910000Y-114510000D02*
X85420000Y-117020000D01*
X85420000Y-117020000D02*
X93280000Y-117020000D01*
X79460000Y-70650000D02*
X79450000Y-70640000D01*
X82650000Y-70650000D02*
X79460000Y-70650000D01*
D23*
X99940000Y-89865000D02*
X99940000Y-87700000D01*
X100126592Y-86983408D02*
X100750000Y-86360000D01*
X99940000Y-87700000D02*
X100126592Y-87513408D01*
X100126592Y-87513408D02*
X100126592Y-86983408D01*
X97080000Y-87430000D02*
X97080000Y-89750000D01*
X96480000Y-87090000D02*
X96740000Y-87090000D01*
X96740000Y-87090000D02*
X97080000Y-87430000D01*
D22*
X93280000Y-117020000D02*
X93280000Y-119030000D01*
X93280000Y-119030000D02*
X94820000Y-120570000D01*
X116100000Y-97340000D02*
X116100000Y-99280000D01*
X114460000Y-95700000D02*
X116100000Y-97340000D01*
X107330000Y-65370000D02*
X107360000Y-65340000D01*
X107330000Y-69190000D02*
X107330000Y-65370000D01*
X116080000Y-69810000D02*
X117540000Y-71270000D01*
X114540000Y-69810000D02*
X116080000Y-69810000D01*
X102280000Y-73870000D02*
X103610000Y-73870000D01*
X99150000Y-69320000D02*
X96740000Y-69320000D01*
X96740000Y-69320000D02*
X95540000Y-70520000D01*
D23*
X105310027Y-88000027D02*
X106470000Y-89160000D01*
X106470000Y-89160000D02*
X106950000Y-89640000D01*
D22*
X117790000Y-115240000D02*
X119420000Y-113610000D01*
X116350000Y-115240000D02*
X117790000Y-115240000D01*
X114540000Y-117050000D02*
X116350000Y-115240000D01*
X114540000Y-117050000D02*
X109790000Y-117050000D01*
X109790000Y-117050000D02*
X109220000Y-117050000D01*
D23*
X77810000Y-83650000D02*
X78060000Y-83400000D01*
X102720000Y-99240000D02*
X102720000Y-98550000D01*
D22*
X107330000Y-69190000D02*
X107795000Y-69655000D01*
D23*
X102720000Y-99240000D02*
X102530000Y-99240000D01*
X105088763Y-87178736D02*
X105088763Y-85101237D01*
D22*
X93280000Y-111820000D02*
X93280000Y-117020000D01*
D23*
X106060000Y-84130000D02*
X106060000Y-82820000D01*
D22*
X107860000Y-115690000D02*
X107807500Y-115690000D01*
D23*
X102720000Y-96790000D02*
X102253413Y-96323413D01*
D22*
X123950000Y-101770000D02*
X123950000Y-93190000D01*
X93280000Y-118955000D02*
X93515000Y-119190000D01*
D23*
X77810000Y-90600000D02*
X77810000Y-83650000D01*
D22*
X109220000Y-117050000D02*
X107860000Y-115690000D01*
D23*
X93410000Y-96450000D02*
X91445000Y-96450000D01*
X100250000Y-98585000D02*
X102685000Y-98585000D01*
X121860000Y-99100000D02*
X122625000Y-99865000D01*
D22*
X107795000Y-69655000D02*
X112885000Y-69655000D01*
X114540000Y-83240000D02*
X112885000Y-84895000D01*
X114540000Y-69810000D02*
X114540000Y-83240000D01*
D23*
X102720000Y-98550000D02*
X102720000Y-96790000D01*
X106950000Y-89640000D02*
X106950000Y-90580000D01*
X122625000Y-99865000D02*
X122625000Y-101485000D01*
D22*
X123950000Y-93190000D02*
X123990000Y-93150000D01*
X86870000Y-66430000D02*
X97430000Y-66430000D01*
D23*
X105310027Y-87400000D02*
X105088763Y-87178736D01*
X102685000Y-98585000D02*
X102720000Y-98550000D01*
X102160000Y-99610000D02*
X102160000Y-101470000D01*
X102720000Y-99240000D02*
X108640000Y-99240000D01*
X102530000Y-99240000D02*
X102160000Y-99610000D01*
X108640000Y-99240000D02*
X109490000Y-100090000D01*
X105310027Y-87400000D02*
X105310027Y-88000027D01*
D22*
X114540000Y-69810000D02*
X113040000Y-69810000D01*
D23*
X93715000Y-96145000D02*
X93410000Y-96450000D01*
D22*
X113040000Y-69810000D02*
X112885000Y-69655000D01*
X82650000Y-70650000D02*
X86870000Y-66430000D01*
D23*
X105088763Y-85101237D02*
X106060000Y-84130000D01*
D22*
X125770000Y-105580000D02*
X124120000Y-107230000D01*
X122416500Y-90480000D02*
X125770000Y-90480000D01*
X124910000Y-79040000D02*
X125900000Y-80030000D01*
X125770000Y-98010000D02*
X125770000Y-105580000D01*
X126965000Y-91325000D02*
X127800000Y-91325000D01*
X125900000Y-90350000D02*
X126920000Y-91370000D01*
X117490000Y-79040000D02*
X124910000Y-79040000D01*
X125770000Y-90480000D02*
X125900000Y-90350000D01*
X125900000Y-80030000D02*
X125900000Y-90350000D01*
X125770000Y-90480000D02*
X125770000Y-98010000D01*
X126920000Y-91370000D02*
X126965000Y-91325000D01*
X124120000Y-107230000D02*
X117410000Y-107230000D01*
D23*
X103800000Y-88540000D02*
X103970000Y-88710000D01*
X103970000Y-91360000D02*
X104580000Y-91970000D01*
X106605000Y-91970000D02*
X106645000Y-91930000D01*
X92790000Y-79570000D02*
X92790000Y-79400000D01*
X92790000Y-79400000D02*
X93820501Y-79400000D01*
X87485000Y-69655000D02*
X88705000Y-69655000D01*
X89660000Y-70610000D02*
X89660000Y-78440000D01*
X88770000Y-83590000D02*
X92790000Y-79570000D01*
X93820501Y-79400000D02*
X95150000Y-80729499D01*
X104580000Y-91970000D02*
X106605000Y-91970000D01*
X103640000Y-88540000D02*
X103800000Y-88540000D01*
X88705000Y-69655000D02*
X89660000Y-70610000D01*
X103970000Y-88710000D02*
X103970000Y-91360000D01*
X90620000Y-79400000D02*
X92790000Y-79400000D01*
X97080000Y-89750000D02*
X96700000Y-90130000D01*
X95150000Y-80729499D02*
X95150000Y-80930000D01*
X85800000Y-83590000D02*
X88770000Y-83590000D01*
X76650000Y-92740000D02*
X85800000Y-83590000D01*
X89660000Y-78440000D02*
X90620000Y-79400000D01*
D22*
X102600000Y-65330000D02*
X99980000Y-65330000D01*
X99150000Y-66160000D02*
X99150000Y-67970000D01*
X99150000Y-67970000D02*
X99150000Y-69320000D01*
X99980000Y-65330000D02*
X99150000Y-66160000D01*
X95280000Y-117530000D02*
X94340000Y-116590000D01*
X94340000Y-116590000D02*
X94280000Y-116590000D01*
X101290000Y-115345000D02*
X99105000Y-117530000D01*
X99105000Y-117530000D02*
X95280000Y-117530000D01*
X101290000Y-115070000D02*
X101290000Y-115345000D01*
X117710000Y-90626500D02*
X117563500Y-90480000D01*
X117710000Y-94600000D02*
X117710000Y-90626500D01*
X104890000Y-73030000D02*
X104040000Y-73880000D01*
X103620000Y-73880000D02*
X103610000Y-73870000D01*
X104040000Y-73880000D02*
X103620000Y-73880000D01*
X104890000Y-67460000D02*
X104890000Y-73030000D01*
X103130000Y-110540000D02*
X102390000Y-109800000D01*
X103130000Y-116960000D02*
X103130000Y-110540000D01*
X102390000Y-109800000D02*
X100910000Y-109800000D01*
D23*
X102540000Y-79420000D02*
X106580000Y-79420000D01*
X106580000Y-79420000D02*
X106610000Y-79390000D01*
X89845000Y-87435000D02*
X90520000Y-88110000D01*
X90520000Y-97276826D02*
X90536587Y-97293413D01*
X108370000Y-102960000D02*
X92660000Y-102960000D01*
X87485000Y-87435000D02*
X89845000Y-87435000D01*
X90520000Y-95430000D02*
X90520000Y-97276826D01*
X90520000Y-88110000D02*
X90520000Y-95430000D01*
X109750000Y-101580000D02*
X108370000Y-102960000D01*
X116135000Y-101580000D02*
X109750000Y-101580000D01*
X98820000Y-105800000D02*
X99250000Y-106230000D01*
X87485000Y-95055000D02*
X91482466Y-99052466D01*
X91482466Y-104752466D02*
X92530000Y-105800000D01*
X92530000Y-105800000D02*
X98820000Y-105800000D01*
X91482466Y-99052466D02*
X91482466Y-104752466D01*
X104735027Y-89859125D02*
X104735027Y-84734973D01*
X104735027Y-84734973D02*
X105100000Y-84370000D01*
X105100000Y-84370000D02*
X105100000Y-81900000D01*
X112265000Y-74735000D02*
X112885000Y-74735000D01*
X105100000Y-81900000D02*
X112265000Y-74735000D01*
X108515000Y-82355000D02*
X112885000Y-82355000D01*
X106250000Y-85390000D02*
X106250000Y-84620000D01*
X106250000Y-84620000D02*
X108515000Y-82355000D01*
X94080000Y-88920000D02*
X97975000Y-92815000D01*
X97975000Y-92815000D02*
X100600000Y-92815000D01*
X107880000Y-92780000D02*
X101605000Y-92780000D01*
X101605000Y-92780000D02*
X101570000Y-92815000D01*
X85985000Y-92515000D02*
X85580000Y-92920000D01*
X85580000Y-92920000D02*
X85580000Y-100620000D01*
X87485000Y-92515000D02*
X85985000Y-92515000D01*
X85580000Y-100620000D02*
X85060000Y-101140000D01*
D22*
X115050000Y-93130000D02*
X114860000Y-93130000D01*
X114860000Y-93130000D02*
X114460000Y-93530000D01*
X114460000Y-93530000D02*
X114460000Y-95700000D01*
D23*
X111845000Y-92515000D02*
X112885000Y-92515000D01*
X111090000Y-91760000D02*
X111845000Y-92515000D01*
X105694400Y-85965000D02*
X110655000Y-85965000D01*
X105663763Y-85934363D02*
X105694400Y-85965000D01*
X110655000Y-85965000D02*
X111090000Y-86400000D01*
X111090000Y-86400000D02*
X111090000Y-91760000D01*
G04 #@! TA.AperFunction,Conductor*
G36*
X93597798Y-79995185D02*
G01*
X93618440Y-80011819D01*
X94321671Y-80715050D01*
X94355156Y-80776373D01*
X94357210Y-80816614D01*
X94344435Y-80929997D01*
X94344435Y-80930003D01*
X94364630Y-81109249D01*
X94364631Y-81109254D01*
X94424219Y-81279545D01*
X94427780Y-81349324D01*
X94393051Y-81409952D01*
X94331058Y-81442179D01*
X94307177Y-81444500D01*
X93659998Y-81444500D01*
X93659980Y-81444501D01*
X93557203Y-81455000D01*
X93557200Y-81455001D01*
X93390668Y-81510185D01*
X93390663Y-81510187D01*
X93241342Y-81602289D01*
X93117289Y-81726342D01*
X93025187Y-81875663D01*
X93025186Y-81875666D01*
X92970001Y-82042203D01*
X92970001Y-82042204D01*
X92970000Y-82042204D01*
X92959500Y-82144983D01*
X92959500Y-83495001D01*
X92959501Y-83495018D01*
X92970000Y-83597796D01*
X92970001Y-83597799D01*
X93025185Y-83764331D01*
X93025187Y-83764336D01*
X93048870Y-83802732D01*
X93117288Y-83913656D01*
X93241344Y-84037712D01*
X93390666Y-84129814D01*
X93557203Y-84184999D01*
X93659991Y-84195500D01*
X94460008Y-84195499D01*
X94460016Y-84195498D01*
X94460019Y-84195498D01*
X94516302Y-84189748D01*
X94562797Y-84184999D01*
X94729334Y-84129814D01*
X94878656Y-84037712D01*
X95002712Y-83913656D01*
X95042310Y-83849456D01*
X95094258Y-83802732D01*
X95163220Y-83791509D01*
X95227303Y-83819352D01*
X95235530Y-83826872D01*
X95343072Y-83934414D01*
X95483212Y-84036232D01*
X95637555Y-84114873D01*
X95802299Y-84168402D01*
X95973389Y-84195500D01*
X95973390Y-84195500D01*
X96146610Y-84195500D01*
X96146611Y-84195500D01*
X96317701Y-84168402D01*
X96482445Y-84114873D01*
X96636788Y-84036232D01*
X96776928Y-83934414D01*
X96899414Y-83811928D01*
X96959682Y-83728975D01*
X97015012Y-83686311D01*
X97084626Y-83680332D01*
X97146421Y-83712938D01*
X97160315Y-83728973D01*
X97220586Y-83811928D01*
X97343072Y-83934414D01*
X97483212Y-84036232D01*
X97637555Y-84114873D01*
X97802299Y-84168402D01*
X97973389Y-84195500D01*
X97973390Y-84195500D01*
X98146610Y-84195500D01*
X98146611Y-84195500D01*
X98317701Y-84168402D01*
X98482445Y-84114873D01*
X98636788Y-84036232D01*
X98776928Y-83934414D01*
X98899414Y-83811928D01*
X98959682Y-83728975D01*
X99015012Y-83686311D01*
X99084626Y-83680332D01*
X99146421Y-83712938D01*
X99160315Y-83728973D01*
X99220586Y-83811928D01*
X99343072Y-83934414D01*
X99483212Y-84036232D01*
X99637555Y-84114873D01*
X99802299Y-84168402D01*
X99973389Y-84195500D01*
X99973390Y-84195500D01*
X100146610Y-84195500D01*
X100146611Y-84195500D01*
X100317701Y-84168402D01*
X100482445Y-84114873D01*
X100636788Y-84036232D01*
X100776928Y-83934414D01*
X100899414Y-83811928D01*
X100959682Y-83728975D01*
X101015012Y-83686311D01*
X101084626Y-83680332D01*
X101146421Y-83712938D01*
X101160315Y-83728973D01*
X101220586Y-83811928D01*
X101343072Y-83934414D01*
X101483212Y-84036232D01*
X101637555Y-84114873D01*
X101802299Y-84168402D01*
X101973389Y-84195500D01*
X101973390Y-84195500D01*
X102146610Y-84195500D01*
X102146611Y-84195500D01*
X102317701Y-84168402D01*
X102482445Y-84114873D01*
X102636788Y-84036232D01*
X102776928Y-83934414D01*
X102899414Y-83811928D01*
X102959682Y-83728975D01*
X103015012Y-83686311D01*
X103084626Y-83680332D01*
X103146421Y-83712938D01*
X103160315Y-83728973D01*
X103220586Y-83811928D01*
X103343072Y-83934414D01*
X103483212Y-84036232D01*
X103637555Y-84114873D01*
X103802299Y-84168402D01*
X103973389Y-84195500D01*
X103973390Y-84195500D01*
X104146606Y-84195500D01*
X104146611Y-84195500D01*
X104148868Y-84195142D01*
X104149733Y-84195254D01*
X104151462Y-84195118D01*
X104151490Y-84195481D01*
X104218159Y-84204089D01*
X104271616Y-84249079D01*
X104292263Y-84315829D01*
X104275663Y-84379613D01*
X104198747Y-84512834D01*
X104198747Y-84512835D01*
X104159527Y-84659207D01*
X104159527Y-87698936D01*
X104139842Y-87765975D01*
X104087038Y-87811730D01*
X104017880Y-87821674D01*
X103994572Y-87815978D01*
X103819254Y-87754631D01*
X103819249Y-87754630D01*
X103640004Y-87734435D01*
X103639996Y-87734435D01*
X103460750Y-87754630D01*
X103460745Y-87754631D01*
X103290476Y-87814211D01*
X103137737Y-87910184D01*
X103010184Y-88037737D01*
X102914211Y-88190476D01*
X102854631Y-88360745D01*
X102854630Y-88360750D01*
X102834435Y-88539996D01*
X102834435Y-88540003D01*
X102854630Y-88719249D01*
X102854631Y-88719254D01*
X102914211Y-88889523D01*
X102969501Y-88977516D01*
X103010184Y-89042262D01*
X103137738Y-89169816D01*
X103290478Y-89265789D01*
X103311454Y-89273128D01*
X103368229Y-89313848D01*
X103393978Y-89378800D01*
X103394500Y-89390170D01*
X103394500Y-91435765D01*
X103433719Y-91582136D01*
X103471602Y-91647750D01*
X103509485Y-91713365D01*
X103750752Y-91954632D01*
X103788940Y-91992819D01*
X103822425Y-92054142D01*
X103817441Y-92123833D01*
X103775570Y-92179767D01*
X103710105Y-92204184D01*
X103701259Y-92204500D01*
X102138727Y-92204500D01*
X102072755Y-92185494D01*
X102060042Y-92177506D01*
X102032055Y-92159920D01*
X101919523Y-92089211D01*
X101749254Y-92029631D01*
X101749249Y-92029630D01*
X101570004Y-92009435D01*
X101569996Y-92009435D01*
X101390750Y-92029630D01*
X101390737Y-92029633D01*
X101220479Y-92089209D01*
X101150971Y-92132884D01*
X101083734Y-92151884D01*
X101019029Y-92132884D01*
X100949520Y-92089209D01*
X100779262Y-92029633D01*
X100779249Y-92029630D01*
X100600004Y-92009435D01*
X100599996Y-92009435D01*
X100420750Y-92029630D01*
X100420745Y-92029631D01*
X100250476Y-92089211D01*
X100097737Y-92185184D01*
X100079741Y-92203181D01*
X100018418Y-92236666D01*
X99992060Y-92239500D01*
X98264742Y-92239500D01*
X98197703Y-92219815D01*
X98177061Y-92203181D01*
X97024454Y-91050574D01*
X96990969Y-90989251D01*
X96995953Y-90919559D01*
X97037825Y-90863626D01*
X97046163Y-90857899D01*
X97049519Y-90855789D01*
X97049522Y-90855789D01*
X97202262Y-90759816D01*
X97329816Y-90632262D01*
X97425789Y-90479522D01*
X97485368Y-90309255D01*
X97496704Y-90208648D01*
X97499651Y-90182487D01*
X97526717Y-90118073D01*
X97535186Y-90108693D01*
X97540515Y-90103365D01*
X97616281Y-89972135D01*
X97634011Y-89905964D01*
X97655500Y-89825767D01*
X97655500Y-89674234D01*
X97655500Y-87354234D01*
X97616281Y-87207865D01*
X97540515Y-87076635D01*
X97433365Y-86969485D01*
X97218089Y-86754209D01*
X97200776Y-86732500D01*
X97168535Y-86681189D01*
X97109816Y-86587738D01*
X96982262Y-86460184D01*
X96916241Y-86418700D01*
X96829523Y-86364211D01*
X96659254Y-86304631D01*
X96659249Y-86304630D01*
X96480004Y-86284435D01*
X96479996Y-86284435D01*
X96300750Y-86304630D01*
X96300745Y-86304631D01*
X96130476Y-86364211D01*
X95977737Y-86460184D01*
X95850184Y-86587737D01*
X95754211Y-86740476D01*
X95694631Y-86910745D01*
X95694630Y-86910750D01*
X95674435Y-87089996D01*
X95674435Y-87090003D01*
X95694630Y-87269249D01*
X95694631Y-87269254D01*
X95754211Y-87439523D01*
X95798652Y-87510250D01*
X95850184Y-87592262D01*
X95977738Y-87719816D01*
X96036335Y-87756635D01*
X96127966Y-87814211D01*
X96130478Y-87815789D01*
X96291048Y-87871975D01*
X96300745Y-87875368D01*
X96300750Y-87875369D01*
X96359609Y-87882000D01*
X96394382Y-87885918D01*
X96458796Y-87912984D01*
X96498352Y-87970578D01*
X96504500Y-88009138D01*
X96504500Y-89262333D01*
X96484815Y-89329372D01*
X96432011Y-89375127D01*
X96421456Y-89379374D01*
X96350476Y-89404211D01*
X96350475Y-89404212D01*
X96197737Y-89500184D01*
X96070182Y-89627739D01*
X95972099Y-89783837D01*
X95919765Y-89830127D01*
X95850711Y-89840775D01*
X95786863Y-89812400D01*
X95779425Y-89805545D01*
X94915190Y-88941310D01*
X94881705Y-88879987D01*
X94879651Y-88867512D01*
X94865369Y-88740750D01*
X94865368Y-88740745D01*
X94829941Y-88639500D01*
X94805789Y-88570478D01*
X94786638Y-88540000D01*
X94709815Y-88417737D01*
X94582262Y-88290184D01*
X94429523Y-88194211D01*
X94259254Y-88134631D01*
X94259249Y-88134630D01*
X94080004Y-88114435D01*
X94079996Y-88114435D01*
X93900750Y-88134630D01*
X93900745Y-88134631D01*
X93730476Y-88194211D01*
X93577737Y-88290184D01*
X93450184Y-88417737D01*
X93354211Y-88570476D01*
X93294631Y-88740745D01*
X93294630Y-88740750D01*
X93274435Y-88919996D01*
X93274435Y-88920003D01*
X93294630Y-89099249D01*
X93294631Y-89099254D01*
X93354211Y-89269523D01*
X93430019Y-89390170D01*
X93450184Y-89422262D01*
X93577738Y-89549816D01*
X93661619Y-89602522D01*
X93701751Y-89627739D01*
X93730478Y-89645789D01*
X93900745Y-89705368D01*
X93900750Y-89705369D01*
X94027512Y-89719651D01*
X94091926Y-89746717D01*
X94101310Y-89755190D01*
X97514485Y-93168365D01*
X97621635Y-93275515D01*
X97752865Y-93351281D01*
X97899234Y-93390500D01*
X99992060Y-93390500D01*
X100059099Y-93410185D01*
X100079741Y-93426819D01*
X100097738Y-93444816D01*
X100150733Y-93478115D01*
X100225935Y-93525368D01*
X100250478Y-93540789D01*
X100413523Y-93597841D01*
X100420745Y-93600368D01*
X100420750Y-93600369D01*
X100599996Y-93620565D01*
X100600000Y-93620565D01*
X100600004Y-93620565D01*
X100779249Y-93600369D01*
X100779252Y-93600368D01*
X100779255Y-93600368D01*
X100949522Y-93540789D01*
X100974065Y-93525368D01*
X101019027Y-93497116D01*
X101086264Y-93478115D01*
X101150973Y-93497116D01*
X101220475Y-93540788D01*
X101390745Y-93600368D01*
X101390750Y-93600369D01*
X101569996Y-93620565D01*
X101570000Y-93620565D01*
X101570004Y-93620565D01*
X101749249Y-93600369D01*
X101749252Y-93600368D01*
X101749255Y-93600368D01*
X101919522Y-93540789D01*
X102072262Y-93444816D01*
X102125259Y-93391819D01*
X102186582Y-93358334D01*
X102212940Y-93355500D01*
X107272060Y-93355500D01*
X107339099Y-93375185D01*
X107359741Y-93391819D01*
X107377738Y-93409816D01*
X107530478Y-93505789D01*
X107700745Y-93565368D01*
X107700750Y-93565369D01*
X107879996Y-93585565D01*
X107880000Y-93585565D01*
X107880004Y-93585565D01*
X108059249Y-93565369D01*
X108059252Y-93565368D01*
X108059255Y-93565368D01*
X108229522Y-93505789D01*
X108382262Y-93409816D01*
X108509816Y-93282262D01*
X108605789Y-93129522D01*
X108665368Y-92959255D01*
X108666188Y-92951980D01*
X108685565Y-92780003D01*
X108685565Y-92779996D01*
X108665369Y-92600750D01*
X108665368Y-92600745D01*
X108641503Y-92532544D01*
X108605789Y-92430478D01*
X108597526Y-92417328D01*
X108535614Y-92318796D01*
X108509816Y-92277738D01*
X108382262Y-92150184D01*
X108333157Y-92119329D01*
X108229523Y-92054211D01*
X108059254Y-91994631D01*
X108059249Y-91994630D01*
X107880004Y-91974435D01*
X107879996Y-91974435D01*
X107700750Y-91994630D01*
X107700742Y-91994632D01*
X107613825Y-92025046D01*
X107544046Y-92028607D01*
X107483419Y-91993878D01*
X107451192Y-91931885D01*
X107449651Y-91921887D01*
X107430369Y-91750750D01*
X107430368Y-91750745D01*
X107417288Y-91713364D01*
X107370789Y-91580478D01*
X107274816Y-91427738D01*
X107147262Y-91300184D01*
X107121878Y-91284234D01*
X106994523Y-91204211D01*
X106824254Y-91144631D01*
X106824249Y-91144630D01*
X106645004Y-91124435D01*
X106644996Y-91124435D01*
X106465750Y-91144630D01*
X106465745Y-91144631D01*
X106295476Y-91204211D01*
X106142737Y-91300184D01*
X106084741Y-91358181D01*
X106023418Y-91391666D01*
X105997060Y-91394500D01*
X104869741Y-91394500D01*
X104802702Y-91374815D01*
X104782060Y-91358181D01*
X104581819Y-91157939D01*
X104548334Y-91096616D01*
X104545500Y-91070258D01*
X104545500Y-90782091D01*
X104565185Y-90715052D01*
X104617989Y-90669297D01*
X104683383Y-90658871D01*
X104723635Y-90663406D01*
X104735026Y-90664690D01*
X104735027Y-90664690D01*
X104735031Y-90664690D01*
X104914276Y-90644494D01*
X104914279Y-90644493D01*
X104914282Y-90644493D01*
X105084549Y-90584914D01*
X105237289Y-90488941D01*
X105364843Y-90361387D01*
X105460816Y-90208647D01*
X105520395Y-90038380D01*
X105520396Y-90038374D01*
X105540592Y-89859128D01*
X105540592Y-89859121D01*
X105520396Y-89679875D01*
X105520395Y-89679870D01*
X105518423Y-89674234D01*
X105460816Y-89509603D01*
X105459187Y-89507011D01*
X105385771Y-89390170D01*
X105364843Y-89356863D01*
X105346846Y-89338866D01*
X105313361Y-89277543D01*
X105310527Y-89251185D01*
X105310527Y-86833614D01*
X105330212Y-86766575D01*
X105383016Y-86720820D01*
X105452174Y-86710876D01*
X105475485Y-86716573D01*
X105484508Y-86719731D01*
X105484509Y-86719731D01*
X105484513Y-86719732D01*
X105663759Y-86739928D01*
X105663763Y-86739928D01*
X105663767Y-86739928D01*
X105843012Y-86719732D01*
X105843015Y-86719731D01*
X105843018Y-86719731D01*
X106013285Y-86660152D01*
X106166025Y-86564179D01*
X106166025Y-86564178D01*
X106171921Y-86560474D01*
X106173392Y-86562816D01*
X106226489Y-86541144D01*
X106239107Y-86540500D01*
X110365258Y-86540500D01*
X110432297Y-86560185D01*
X110452939Y-86576819D01*
X110478181Y-86602061D01*
X110511666Y-86663384D01*
X110514500Y-86689742D01*
X110514500Y-91835765D01*
X110553719Y-91982136D01*
X110581142Y-92029633D01*
X110629485Y-92113365D01*
X110629486Y-92113366D01*
X110629487Y-92113367D01*
X111380144Y-92864023D01*
X111380154Y-92864034D01*
X111384484Y-92868364D01*
X111384485Y-92868365D01*
X111491635Y-92975515D01*
X111598364Y-93037135D01*
X111598365Y-93037136D01*
X111605588Y-93041306D01*
X111622865Y-93051281D01*
X111769233Y-93090500D01*
X111769234Y-93090500D01*
X111769235Y-93090500D01*
X111777083Y-93092603D01*
X111776414Y-93095099D01*
X111828550Y-93118163D01*
X111853890Y-93147549D01*
X111856521Y-93151798D01*
X111991051Y-93329944D01*
X112029506Y-93365000D01*
X112156017Y-93480330D01*
X112156024Y-93480334D01*
X112156025Y-93480335D01*
X112345804Y-93597841D01*
X112345805Y-93597841D01*
X112345808Y-93597843D01*
X112530452Y-93669374D01*
X112585851Y-93711946D01*
X112609442Y-93777713D01*
X112593731Y-93845793D01*
X112543707Y-93894572D01*
X112530461Y-93900621D01*
X112412966Y-93946140D01*
X112345810Y-93972156D01*
X112345804Y-93972158D01*
X112156025Y-94089664D01*
X112156015Y-94089671D01*
X111991051Y-94240055D01*
X111856526Y-94418195D01*
X111757026Y-94618018D01*
X111757023Y-94618024D01*
X111695937Y-94832723D01*
X111695936Y-94832726D01*
X111675340Y-95054999D01*
X111675340Y-95055000D01*
X111695936Y-95277273D01*
X111695937Y-95277276D01*
X111757023Y-95491975D01*
X111757026Y-95491981D01*
X111790500Y-95559206D01*
X111856526Y-95691804D01*
X111991050Y-95869943D01*
X112156017Y-96020330D01*
X112156024Y-96020334D01*
X112156025Y-96020335D01*
X112345804Y-96137841D01*
X112345805Y-96137841D01*
X112345808Y-96137843D01*
X112530452Y-96209374D01*
X112585851Y-96251946D01*
X112609442Y-96317713D01*
X112593731Y-96385793D01*
X112543707Y-96434572D01*
X112530461Y-96440621D01*
X112390170Y-96494971D01*
X112345810Y-96512156D01*
X112345804Y-96512158D01*
X112156025Y-96629664D01*
X112156015Y-96629671D01*
X111991051Y-96780055D01*
X111856526Y-96958195D01*
X111757026Y-97158018D01*
X111757023Y-97158024D01*
X111695937Y-97372723D01*
X111695936Y-97372726D01*
X111675340Y-97594999D01*
X111675340Y-97595000D01*
X111695936Y-97817273D01*
X111695937Y-97817276D01*
X111757023Y-98031975D01*
X111757026Y-98031981D01*
X111790500Y-98099206D01*
X111856526Y-98231804D01*
X111991050Y-98409943D01*
X112156017Y-98560330D01*
X112156024Y-98560334D01*
X112156025Y-98560335D01*
X112345804Y-98677841D01*
X112345805Y-98677841D01*
X112345808Y-98677843D01*
X112530452Y-98749374D01*
X112585851Y-98791946D01*
X112609442Y-98857713D01*
X112593731Y-98925793D01*
X112543707Y-98974572D01*
X112530461Y-98980621D01*
X112387216Y-99036115D01*
X112345810Y-99052156D01*
X112345804Y-99052158D01*
X112156025Y-99169664D01*
X112156015Y-99169671D01*
X111991051Y-99320055D01*
X111856526Y-99498195D01*
X111757026Y-99698018D01*
X111757023Y-99698024D01*
X111695937Y-99912723D01*
X111695936Y-99912726D01*
X111675340Y-100134999D01*
X111675340Y-100135000D01*
X111695936Y-100357273D01*
X111695937Y-100357276D01*
X111757023Y-100571975D01*
X111757026Y-100571981D01*
X111856526Y-100771804D01*
X111882178Y-100805773D01*
X111906870Y-100871135D01*
X111892305Y-100939469D01*
X111843107Y-100989082D01*
X111783224Y-101004500D01*
X109674234Y-101004500D01*
X109527863Y-101043719D01*
X109396635Y-101119485D01*
X109396632Y-101119487D01*
X108167939Y-102348181D01*
X108106616Y-102381666D01*
X108080258Y-102384500D01*
X107373347Y-102384500D01*
X107306308Y-102364815D01*
X107260553Y-102312011D01*
X107249989Y-102247898D01*
X107260499Y-102145018D01*
X107260500Y-102145009D01*
X107260499Y-100794992D01*
X107249999Y-100692203D01*
X107194814Y-100525666D01*
X107102712Y-100376344D01*
X106978656Y-100252288D01*
X106885888Y-100195069D01*
X106829336Y-100160187D01*
X106829331Y-100160185D01*
X106827862Y-100159698D01*
X106662797Y-100105001D01*
X106662795Y-100105000D01*
X106560010Y-100094500D01*
X105759998Y-100094500D01*
X105759980Y-100094501D01*
X105657203Y-100105000D01*
X105657200Y-100105001D01*
X105490668Y-100160185D01*
X105490663Y-100160187D01*
X105341342Y-100252289D01*
X105217287Y-100376344D01*
X105177688Y-100440544D01*
X105125739Y-100487268D01*
X105056777Y-100498489D01*
X104992695Y-100470645D01*
X104984469Y-100463127D01*
X104876930Y-100355588D01*
X104876928Y-100355586D01*
X104736788Y-100253768D01*
X104582445Y-100175127D01*
X104417701Y-100121598D01*
X104417699Y-100121597D01*
X104417698Y-100121597D01*
X104286271Y-100100781D01*
X104246611Y-100094500D01*
X104073389Y-100094500D01*
X104033728Y-100100781D01*
X103902302Y-100121597D01*
X103737552Y-100175128D01*
X103583211Y-100253768D01*
X103523828Y-100296913D01*
X103443072Y-100355586D01*
X103443070Y-100355588D01*
X103443069Y-100355588D01*
X103320585Y-100478072D01*
X103260007Y-100561450D01*
X103204677Y-100604115D01*
X103135063Y-100610093D01*
X103073269Y-100577486D01*
X103059371Y-100561447D01*
X102999036Y-100478401D01*
X102876602Y-100355967D01*
X102736524Y-100254195D01*
X102582257Y-100175591D01*
X102417589Y-100122087D01*
X102417581Y-100122085D01*
X102410000Y-100120884D01*
X102410000Y-101189670D01*
X102390255Y-101169925D01*
X102304745Y-101120556D01*
X102209370Y-101095000D01*
X102110630Y-101095000D01*
X102015255Y-101120556D01*
X101929745Y-101169925D01*
X101910000Y-101189670D01*
X101910000Y-100120884D01*
X101909999Y-100120884D01*
X101902418Y-100122085D01*
X101902410Y-100122087D01*
X101737742Y-100175591D01*
X101583475Y-100254195D01*
X101443397Y-100355967D01*
X101320965Y-100478399D01*
X101320961Y-100478404D01*
X101260627Y-100561448D01*
X101205297Y-100604114D01*
X101135684Y-100610093D01*
X101073889Y-100577488D01*
X101059991Y-100561449D01*
X101059990Y-100561447D01*
X100999414Y-100478072D01*
X100876928Y-100355586D01*
X100736788Y-100253768D01*
X100582445Y-100175127D01*
X100417701Y-100121598D01*
X100417699Y-100121597D01*
X100417698Y-100121597D01*
X100286271Y-100100781D01*
X100246611Y-100094500D01*
X100073389Y-100094500D01*
X100033728Y-100100781D01*
X99902302Y-100121597D01*
X99737552Y-100175128D01*
X99583211Y-100253768D01*
X99523828Y-100296913D01*
X99443072Y-100355586D01*
X99443070Y-100355588D01*
X99443069Y-100355588D01*
X99320588Y-100478069D01*
X99320581Y-100478078D01*
X99260317Y-100561023D01*
X99204987Y-100603689D01*
X99135374Y-100609667D01*
X99073579Y-100577061D01*
X99059683Y-100561023D01*
X98999653Y-100478401D01*
X98999414Y-100478072D01*
X98876928Y-100355586D01*
X98736788Y-100253768D01*
X98582445Y-100175127D01*
X98417701Y-100121598D01*
X98417699Y-100121597D01*
X98417698Y-100121597D01*
X98286271Y-100100781D01*
X98246611Y-100094500D01*
X98073389Y-100094500D01*
X98033728Y-100100781D01*
X97902302Y-100121597D01*
X97737552Y-100175128D01*
X97583211Y-100253768D01*
X97523828Y-100296913D01*
X97443072Y-100355586D01*
X97443070Y-100355588D01*
X97443069Y-100355588D01*
X97320588Y-100478069D01*
X97320581Y-100478078D01*
X97260317Y-100561023D01*
X97204987Y-100603689D01*
X97135374Y-100609667D01*
X97073579Y-100577061D01*
X97059683Y-100561023D01*
X96999653Y-100478401D01*
X96999414Y-100478072D01*
X96876928Y-100355586D01*
X96736788Y-100253768D01*
X96582445Y-100175127D01*
X96417701Y-100121598D01*
X96417699Y-100121597D01*
X96417698Y-100121597D01*
X96286271Y-100100781D01*
X96246611Y-100094500D01*
X96073389Y-100094500D01*
X96033728Y-100100781D01*
X95902302Y-100121597D01*
X95737552Y-100175128D01*
X95583211Y-100253768D01*
X95523828Y-100296913D01*
X95443072Y-100355586D01*
X95443070Y-100355588D01*
X95443069Y-100355588D01*
X95320588Y-100478069D01*
X95320581Y-100478078D01*
X95260317Y-100561023D01*
X95204987Y-100603689D01*
X95135374Y-100609667D01*
X95073579Y-100577061D01*
X95059683Y-100561023D01*
X94999653Y-100478401D01*
X94999414Y-100478072D01*
X94876928Y-100355586D01*
X94736788Y-100253768D01*
X94582445Y-100175127D01*
X94417701Y-100121598D01*
X94417699Y-100121597D01*
X94417698Y-100121597D01*
X94286271Y-100100781D01*
X94246611Y-100094500D01*
X94073389Y-100094500D01*
X94033728Y-100100781D01*
X93902302Y-100121597D01*
X93737552Y-100175128D01*
X93583211Y-100253768D01*
X93523828Y-100296913D01*
X93443072Y-100355586D01*
X93443070Y-100355588D01*
X93443069Y-100355588D01*
X93320588Y-100478069D01*
X93320588Y-100478070D01*
X93320586Y-100478072D01*
X93320345Y-100478404D01*
X93218768Y-100618211D01*
X93140128Y-100772552D01*
X93086597Y-100937302D01*
X93059500Y-101108389D01*
X93059500Y-101831610D01*
X93086597Y-102002698D01*
X93104020Y-102056320D01*
X93106015Y-102126161D01*
X93069934Y-102185994D01*
X93007233Y-102216822D01*
X92945135Y-102211680D01*
X92839257Y-102174632D01*
X92839249Y-102174630D01*
X92660004Y-102154435D01*
X92659996Y-102154435D01*
X92480750Y-102174630D01*
X92480745Y-102174631D01*
X92310476Y-102234211D01*
X92247938Y-102273507D01*
X92180701Y-102292507D01*
X92113866Y-102272139D01*
X92068652Y-102218871D01*
X92057966Y-102168513D01*
X92057966Y-98976702D01*
X92057966Y-98976700D01*
X92018747Y-98830331D01*
X91942981Y-98699101D01*
X91835831Y-98591951D01*
X91187378Y-97943498D01*
X91153893Y-97882175D01*
X91158877Y-97812483D01*
X91170062Y-97789850D01*
X91262376Y-97642935D01*
X91321955Y-97472668D01*
X91333216Y-97372723D01*
X91342152Y-97293416D01*
X91342152Y-97293409D01*
X91321956Y-97114163D01*
X91321955Y-97114158D01*
X91275337Y-96980932D01*
X91262376Y-96943891D01*
X91166403Y-96791151D01*
X91131819Y-96756567D01*
X91098334Y-96695244D01*
X91095500Y-96668886D01*
X91095500Y-88034236D01*
X91095500Y-88034234D01*
X91056281Y-87887865D01*
X90980515Y-87756635D01*
X90873365Y-87649485D01*
X90873364Y-87649484D01*
X90869034Y-87645154D01*
X90869023Y-87645144D01*
X90198367Y-86974487D01*
X90198366Y-86974486D01*
X90198365Y-86974485D01*
X90132750Y-86936602D01*
X90067136Y-86898719D01*
X89993950Y-86879109D01*
X89920766Y-86859500D01*
X89920765Y-86859500D01*
X88620500Y-86859500D01*
X88553461Y-86839815D01*
X88516988Y-86802726D01*
X88516929Y-86802771D01*
X88516588Y-86802319D01*
X88515076Y-86800782D01*
X88513477Y-86798199D01*
X88409228Y-86660152D01*
X88378950Y-86620057D01*
X88316159Y-86562816D01*
X88213984Y-86469671D01*
X88213974Y-86469664D01*
X88024195Y-86352158D01*
X88024186Y-86352154D01*
X87938430Y-86318932D01*
X87839547Y-86280625D01*
X87784148Y-86238054D01*
X87760557Y-86172288D01*
X87776268Y-86104207D01*
X87826292Y-86055428D01*
X87839538Y-86049378D01*
X88024192Y-85977843D01*
X88213983Y-85860330D01*
X88378950Y-85709943D01*
X88513474Y-85531804D01*
X88612974Y-85331980D01*
X88612974Y-85331977D01*
X88612976Y-85331975D01*
X88648086Y-85208574D01*
X88674063Y-85117274D01*
X88694660Y-84895000D01*
X88674063Y-84672726D01*
X88636711Y-84541446D01*
X88612976Y-84458024D01*
X88612971Y-84458013D01*
X88556584Y-84344771D01*
X88544323Y-84275986D01*
X88571196Y-84211491D01*
X88628672Y-84171764D01*
X88667584Y-84165500D01*
X88845764Y-84165500D01*
X88845766Y-84165500D01*
X88992135Y-84126281D01*
X89123365Y-84050515D01*
X93162061Y-80011819D01*
X93223384Y-79978334D01*
X93249742Y-79975500D01*
X93530759Y-79975500D01*
X93597798Y-79995185D01*
G37*
G04 #@! TD.AperFunction*
G04 #@! TA.AperFunction,Conductor*
G36*
X111816539Y-82950185D02*
G01*
X111853011Y-82987273D01*
X111853071Y-82987229D01*
X111853411Y-82987680D01*
X111854924Y-82989218D01*
X111856522Y-82991800D01*
X111954357Y-83121354D01*
X111991050Y-83169943D01*
X112156017Y-83320330D01*
X112156024Y-83320334D01*
X112156025Y-83320335D01*
X112345804Y-83437841D01*
X112345806Y-83437842D01*
X112345808Y-83437843D01*
X112531142Y-83509642D01*
X112586542Y-83552213D01*
X112610133Y-83617979D01*
X112594422Y-83686060D01*
X112544399Y-83734839D01*
X112531141Y-83740893D01*
X112346042Y-83812601D01*
X112346026Y-83812609D01*
X112228766Y-83885212D01*
X112228765Y-83885213D01*
X112796415Y-84452861D01*
X112711306Y-84475667D01*
X112608694Y-84534910D01*
X112524910Y-84618694D01*
X112465667Y-84721306D01*
X112442861Y-84806414D01*
X111873282Y-84236834D01*
X111856948Y-84258466D01*
X111757500Y-84458186D01*
X111757493Y-84458204D01*
X111696429Y-84672818D01*
X111675842Y-84894999D01*
X111675842Y-84895000D01*
X111696429Y-85117181D01*
X111757493Y-85331795D01*
X111757498Y-85331808D01*
X111856953Y-85531541D01*
X111873281Y-85553163D01*
X111873282Y-85553163D01*
X112442861Y-84983584D01*
X112465667Y-85068694D01*
X112524910Y-85171306D01*
X112608694Y-85255090D01*
X112711306Y-85314333D01*
X112796414Y-85337137D01*
X112228765Y-85904785D01*
X112346034Y-85977394D01*
X112531141Y-86049105D01*
X112586542Y-86091678D01*
X112610133Y-86157445D01*
X112594422Y-86225525D01*
X112544398Y-86274304D01*
X112531147Y-86280355D01*
X112479431Y-86300391D01*
X112345810Y-86352155D01*
X112345804Y-86352158D01*
X112156025Y-86469664D01*
X112156015Y-86469671D01*
X111991051Y-86620055D01*
X111888454Y-86755916D01*
X111832345Y-86797552D01*
X111762633Y-86802243D01*
X111701451Y-86768501D01*
X111668224Y-86707038D01*
X111665500Y-86681189D01*
X111665500Y-86324236D01*
X111665500Y-86324234D01*
X111626281Y-86177865D01*
X111550515Y-86046635D01*
X111443365Y-85939485D01*
X111008365Y-85504485D01*
X110942750Y-85466602D01*
X110877136Y-85428719D01*
X110803950Y-85409109D01*
X110730766Y-85389500D01*
X110730765Y-85389500D01*
X107166322Y-85389500D01*
X107099283Y-85369815D01*
X107053528Y-85317011D01*
X107043102Y-85279383D01*
X107035369Y-85210750D01*
X107035368Y-85210748D01*
X107035368Y-85210745D01*
X106975789Y-85040478D01*
X106975788Y-85040474D01*
X106900139Y-84920081D01*
X106881138Y-84852845D01*
X106901505Y-84786010D01*
X106917446Y-84766433D01*
X108717061Y-82966819D01*
X108778384Y-82933334D01*
X108804742Y-82930500D01*
X111749500Y-82930500D01*
X111816539Y-82950185D01*
G37*
G04 #@! TD.AperFunction*
G04 #@! TA.AperFunction,Conductor*
G36*
X100734038Y-62748711D02*
G01*
X100779009Y-62750322D01*
X101785754Y-62786406D01*
X101790094Y-62786639D01*
X102839858Y-62861987D01*
X102844270Y-62862384D01*
X103890552Y-62975275D01*
X103894943Y-62975828D01*
X104936553Y-63126128D01*
X104940926Y-63126839D01*
X105816976Y-63285469D01*
X105976480Y-63314352D01*
X105980836Y-63315222D01*
X107008969Y-63539698D01*
X107013292Y-63540723D01*
X108032750Y-63801888D01*
X108037019Y-63803064D01*
X108480727Y-63933838D01*
X109046486Y-64100584D01*
X109050725Y-64101916D01*
X110048887Y-64435403D01*
X110053006Y-64436862D01*
X110570260Y-64630536D01*
X111038593Y-64805893D01*
X111042724Y-64807525D01*
X112014438Y-65211611D01*
X112018510Y-65213390D01*
X112975131Y-65652027D01*
X112979111Y-65653939D01*
X113919406Y-66126558D01*
X113923314Y-66128611D01*
X114846095Y-66634618D01*
X114849900Y-66636793D01*
X115753983Y-67175540D01*
X115757708Y-67177851D01*
X116641891Y-67748620D01*
X116645560Y-67751082D01*
X117295453Y-68204392D01*
X117508726Y-68353153D01*
X117512319Y-68355756D01*
X117760197Y-68542200D01*
X118353337Y-68988337D01*
X118356839Y-68991070D01*
X119157352Y-69639353D01*
X119166994Y-69648036D01*
X119190993Y-69672035D01*
X119199156Y-69676748D01*
X119200609Y-69677587D01*
X119218361Y-69690024D01*
X119226859Y-69697162D01*
X119262005Y-69713571D01*
X119271522Y-69718528D01*
X119305121Y-69737927D01*
X119315843Y-69740799D01*
X119336212Y-69748219D01*
X119346271Y-69752916D01*
X119384461Y-69759668D01*
X119394946Y-69761994D01*
X119432415Y-69772035D01*
X119443514Y-69772035D01*
X119465107Y-69773929D01*
X119476039Y-69775863D01*
X119514672Y-69772501D01*
X119525420Y-69772035D01*
X119564197Y-69772035D01*
X119564200Y-69772035D01*
X119574922Y-69769161D01*
X119596276Y-69765402D01*
X119596302Y-69765399D01*
X119607328Y-69764441D01*
X119643779Y-69751193D01*
X119654017Y-69747968D01*
X119691493Y-69737927D01*
X119701110Y-69732373D01*
X119720747Y-69723222D01*
X119731187Y-69719429D01*
X119732460Y-69718539D01*
X119762961Y-69697203D01*
X119772030Y-69691427D01*
X119805621Y-69672035D01*
X119813475Y-69664180D01*
X119830070Y-69650262D01*
X119839175Y-69643894D01*
X119864129Y-69614183D01*
X119871375Y-69606279D01*
X123600225Y-65877428D01*
X123661548Y-65843944D01*
X123731240Y-65848928D01*
X123787173Y-65890800D01*
X123811590Y-65956264D01*
X123804747Y-66006634D01*
X123782666Y-66068764D01*
X123724201Y-66350116D01*
X123704592Y-66636797D01*
X123724201Y-66923477D01*
X123782666Y-67204831D01*
X123782667Y-67204834D01*
X123878894Y-67475590D01*
X123878893Y-67475590D01*
X124011098Y-67730732D01*
X124176812Y-67965497D01*
X124218550Y-68010187D01*
X124372947Y-68175505D01*
X124595853Y-68356852D01*
X124768540Y-68461866D01*
X124841382Y-68506162D01*
X124994356Y-68572607D01*
X125104942Y-68620641D01*
X125381642Y-68698168D01*
X125631920Y-68732568D01*
X125666321Y-68737297D01*
X125666322Y-68737297D01*
X125953679Y-68737297D01*
X125984370Y-68733078D01*
X126238358Y-68698168D01*
X126448401Y-68639317D01*
X126518263Y-68640185D01*
X126576568Y-68678686D01*
X126604801Y-68742597D01*
X126594000Y-68811627D01*
X126569535Y-68846400D01*
X122840530Y-72575406D01*
X122832602Y-72582674D01*
X122802910Y-72607613D01*
X122796540Y-72616720D01*
X122782619Y-72633318D01*
X122774767Y-72641169D01*
X122755379Y-72674751D01*
X122749603Y-72683822D01*
X122727374Y-72715601D01*
X122727373Y-72715602D01*
X122723577Y-72726047D01*
X122714428Y-72745679D01*
X122708877Y-72755293D01*
X122708876Y-72755296D01*
X122698836Y-72792764D01*
X122695606Y-72803017D01*
X122682361Y-72839464D01*
X122681397Y-72850536D01*
X122677643Y-72871857D01*
X122674768Y-72882590D01*
X122674768Y-72921369D01*
X122674301Y-72932117D01*
X122670939Y-72970748D01*
X122672873Y-72981680D01*
X122674768Y-73003275D01*
X122674768Y-73014380D01*
X122684803Y-73051830D01*
X122687133Y-73062327D01*
X122693887Y-73100521D01*
X122698584Y-73110580D01*
X122706001Y-73130943D01*
X122708873Y-73141663D01*
X122708877Y-73141672D01*
X122728269Y-73175262D01*
X122733234Y-73184795D01*
X122749639Y-73219927D01*
X122749642Y-73219933D01*
X122756782Y-73228433D01*
X122769212Y-73246175D01*
X122774768Y-73255798D01*
X122774770Y-73255800D01*
X122798830Y-73279860D01*
X122807478Y-73289459D01*
X122896743Y-73399585D01*
X123349940Y-73958691D01*
X123439492Y-74069170D01*
X123442156Y-74072578D01*
X123669533Y-74374032D01*
X124060034Y-74891758D01*
X124062581Y-74895261D01*
X124092586Y-74938073D01*
X124626808Y-75700328D01*
X124651458Y-75735499D01*
X124653877Y-75739081D01*
X124948367Y-76192156D01*
X125213063Y-76599393D01*
X125215360Y-76603065D01*
X125744161Y-77482382D01*
X125746328Y-77486132D01*
X126244105Y-78383397D01*
X126246139Y-78387221D01*
X126634543Y-79148885D01*
X126647462Y-79217550D01*
X126621207Y-79282299D01*
X126564114Y-79322575D01*
X126494309Y-79325590D01*
X126436396Y-79292897D01*
X125484041Y-78340540D01*
X125484040Y-78340539D01*
X125484036Y-78340536D01*
X125424959Y-78301063D01*
X125424958Y-78301061D01*
X125336544Y-78241985D01*
X125336542Y-78241984D01*
X125254607Y-78208046D01*
X125254606Y-78208046D01*
X125172666Y-78174105D01*
X125172658Y-78174103D01*
X124998696Y-78139500D01*
X124998692Y-78139500D01*
X124998691Y-78139500D01*
X118677230Y-78139500D01*
X118610191Y-78119815D01*
X118589549Y-78103181D01*
X118583656Y-78097288D01*
X118583652Y-78097285D01*
X118519456Y-78057688D01*
X118472731Y-78005740D01*
X118461510Y-77936777D01*
X118489353Y-77872695D01*
X118496850Y-77864491D01*
X118604414Y-77756928D01*
X118706232Y-77616788D01*
X118784873Y-77462445D01*
X118838402Y-77297701D01*
X118865500Y-77126611D01*
X118865500Y-76953389D01*
X118838402Y-76782299D01*
X118784873Y-76617555D01*
X118706232Y-76463212D01*
X118604414Y-76323072D01*
X118481928Y-76200586D01*
X118341788Y-76098768D01*
X118187445Y-76020127D01*
X118022701Y-75966598D01*
X118022699Y-75966597D01*
X118022698Y-75966597D01*
X117881330Y-75944207D01*
X117851611Y-75939500D01*
X117128389Y-75939500D01*
X117098670Y-75944207D01*
X116957302Y-75966597D01*
X116792552Y-76020128D01*
X116638211Y-76098768D01*
X116558256Y-76156859D01*
X116498072Y-76200586D01*
X116498070Y-76200588D01*
X116498069Y-76200588D01*
X116375588Y-76323069D01*
X116375588Y-76323070D01*
X116375586Y-76323072D01*
X116331859Y-76383256D01*
X116273768Y-76463211D01*
X116195128Y-76617552D01*
X116141597Y-76782302D01*
X116114500Y-76953389D01*
X116114500Y-77126610D01*
X116138002Y-77275000D01*
X116141598Y-77297701D01*
X116195127Y-77462445D01*
X116273768Y-77616788D01*
X116375586Y-77756928D01*
X116375588Y-77756930D01*
X116483127Y-77864469D01*
X116516612Y-77925792D01*
X116511628Y-77995484D01*
X116469756Y-78051417D01*
X116460544Y-78057688D01*
X116396344Y-78097287D01*
X116272289Y-78221342D01*
X116180187Y-78370663D01*
X116180185Y-78370668D01*
X116175321Y-78385347D01*
X116125001Y-78537203D01*
X116125001Y-78537204D01*
X116125000Y-78537204D01*
X116114500Y-78639983D01*
X116114500Y-79440001D01*
X116114501Y-79440019D01*
X116125000Y-79542796D01*
X116125001Y-79542799D01*
X116143707Y-79599249D01*
X116180186Y-79709334D01*
X116272288Y-79858656D01*
X116396344Y-79982712D01*
X116545666Y-80074814D01*
X116712203Y-80129999D01*
X116814991Y-80140500D01*
X118165008Y-80140499D01*
X118267797Y-80129999D01*
X118434334Y-80074814D01*
X118583656Y-79982712D01*
X118589549Y-79976819D01*
X118650872Y-79943334D01*
X118677230Y-79940500D01*
X124485638Y-79940500D01*
X124552677Y-79960185D01*
X124573319Y-79976819D01*
X124963181Y-80366680D01*
X124996666Y-80428003D01*
X124999500Y-80454361D01*
X124999500Y-89455500D01*
X124979815Y-89522539D01*
X124927011Y-89568294D01*
X124875500Y-89579500D01*
X123992499Y-89579500D01*
X123925460Y-89559815D01*
X123879705Y-89507011D01*
X123868499Y-89455500D01*
X123868499Y-89037129D01*
X123868498Y-89037123D01*
X123868497Y-89037116D01*
X123862091Y-88977517D01*
X123837143Y-88910629D01*
X123811797Y-88842671D01*
X123811793Y-88842664D01*
X123725547Y-88727455D01*
X123725544Y-88727452D01*
X123610335Y-88641206D01*
X123610328Y-88641202D01*
X123475482Y-88590908D01*
X123475483Y-88590908D01*
X123415883Y-88584501D01*
X123415881Y-88584500D01*
X123415873Y-88584500D01*
X123415864Y-88584500D01*
X121417129Y-88584500D01*
X121417123Y-88584501D01*
X121357516Y-88590908D01*
X121222671Y-88641202D01*
X121222664Y-88641206D01*
X121107455Y-88727452D01*
X121107452Y-88727455D01*
X121021206Y-88842664D01*
X121021202Y-88842671D01*
X120970908Y-88977517D01*
X120964501Y-89037116D01*
X120964501Y-89037123D01*
X120964500Y-89037135D01*
X120964500Y-91922870D01*
X120964501Y-91922876D01*
X120970908Y-91982483D01*
X121021202Y-92117328D01*
X121021206Y-92117335D01*
X121107452Y-92232544D01*
X121107455Y-92232547D01*
X121222664Y-92318793D01*
X121222671Y-92318797D01*
X121357517Y-92369091D01*
X121357516Y-92369091D01*
X121364444Y-92369835D01*
X121417127Y-92375500D01*
X123415872Y-92375499D01*
X123475483Y-92369091D01*
X123610331Y-92318796D01*
X123725546Y-92232546D01*
X123811796Y-92117331D01*
X123862091Y-91982483D01*
X123868500Y-91922873D01*
X123868500Y-91504500D01*
X123888185Y-91437461D01*
X123940989Y-91391706D01*
X123992500Y-91380500D01*
X124745500Y-91380500D01*
X124812539Y-91400185D01*
X124858294Y-91452989D01*
X124869500Y-91504500D01*
X124869500Y-105155638D01*
X124849815Y-105222677D01*
X124833181Y-105243319D01*
X123783319Y-106293181D01*
X123721996Y-106326666D01*
X123695638Y-106329500D01*
X118597230Y-106329500D01*
X118530191Y-106309815D01*
X118509549Y-106293181D01*
X118503656Y-106287288D01*
X118503652Y-106287285D01*
X118439456Y-106247688D01*
X118392731Y-106195740D01*
X118381510Y-106126777D01*
X118409353Y-106062695D01*
X118416850Y-106054491D01*
X118524414Y-105946928D01*
X118626232Y-105806788D01*
X118704873Y-105652445D01*
X118758402Y-105487701D01*
X118785500Y-105316611D01*
X118785500Y-105143389D01*
X118758402Y-104972299D01*
X118704873Y-104807555D01*
X118626232Y-104653212D01*
X118524414Y-104513072D01*
X118401928Y-104390586D01*
X118261788Y-104288768D01*
X118107445Y-104210127D01*
X117942701Y-104156598D01*
X117942699Y-104156597D01*
X117942698Y-104156597D01*
X117811271Y-104135781D01*
X117771611Y-104129500D01*
X117048389Y-104129500D01*
X117008728Y-104135781D01*
X116877302Y-104156597D01*
X116712552Y-104210128D01*
X116558211Y-104288768D01*
X116478256Y-104346859D01*
X116418072Y-104390586D01*
X116418070Y-104390588D01*
X116418069Y-104390588D01*
X116295588Y-104513069D01*
X116295588Y-104513070D01*
X116295586Y-104513072D01*
X116268462Y-104550405D01*
X116193768Y-104653211D01*
X116115128Y-104807552D01*
X116061597Y-104972302D01*
X116040448Y-105105833D01*
X116034500Y-105143389D01*
X116034500Y-105316611D01*
X116037064Y-105332797D01*
X116054776Y-105444632D01*
X116061598Y-105487701D01*
X116115127Y-105652445D01*
X116193768Y-105806788D01*
X116295586Y-105946928D01*
X116295588Y-105946930D01*
X116403127Y-106054469D01*
X116436612Y-106115792D01*
X116431628Y-106185484D01*
X116389756Y-106241417D01*
X116380544Y-106247688D01*
X116316344Y-106287287D01*
X116192289Y-106411342D01*
X116100187Y-106560663D01*
X116100185Y-106560668D01*
X116088581Y-106595688D01*
X116045001Y-106727203D01*
X116045001Y-106727204D01*
X116045000Y-106727204D01*
X116034500Y-106829983D01*
X116034500Y-107630001D01*
X116034501Y-107630019D01*
X116045000Y-107732796D01*
X116045001Y-107732799D01*
X116083796Y-107849873D01*
X116100186Y-107899334D01*
X116192288Y-108048656D01*
X116316344Y-108172712D01*
X116465666Y-108264814D01*
X116632203Y-108319999D01*
X116734991Y-108330500D01*
X118085008Y-108330499D01*
X118187797Y-108319999D01*
X118354334Y-108264814D01*
X118503656Y-108172712D01*
X118509549Y-108166819D01*
X118570872Y-108133334D01*
X118597230Y-108130500D01*
X124208693Y-108130500D01*
X124208694Y-108130499D01*
X124382666Y-108095895D01*
X124464606Y-108061953D01*
X124546547Y-108028013D01*
X124622483Y-107977274D01*
X124653255Y-107956713D01*
X124692485Y-107930500D01*
X124694036Y-107929464D01*
X125217633Y-107405866D01*
X125278955Y-107372382D01*
X125348646Y-107377366D01*
X125404580Y-107419237D01*
X125428997Y-107484702D01*
X125414145Y-107552975D01*
X125411577Y-107557453D01*
X125215374Y-107883709D01*
X125213078Y-107887381D01*
X124653883Y-108747703D01*
X124651459Y-108751293D01*
X124062580Y-109591530D01*
X124060033Y-109595033D01*
X123442157Y-110414209D01*
X123439489Y-110417621D01*
X122807508Y-111197287D01*
X122798865Y-111206882D01*
X122774759Y-111230990D01*
X122774757Y-111230992D01*
X122769201Y-111240614D01*
X122756780Y-111258345D01*
X122749629Y-111266859D01*
X122733224Y-111301995D01*
X122728258Y-111311530D01*
X122708868Y-111345115D01*
X122708865Y-111345122D01*
X122705991Y-111355848D01*
X122698577Y-111376203D01*
X122693878Y-111386266D01*
X122687125Y-111424456D01*
X122684795Y-111434953D01*
X122674759Y-111472406D01*
X122674759Y-111483508D01*
X122672865Y-111505099D01*
X122670930Y-111516038D01*
X122674292Y-111554667D01*
X122674759Y-111565416D01*
X122674759Y-111604197D01*
X122677633Y-111614923D01*
X122681391Y-111636270D01*
X122682352Y-111647322D01*
X122682353Y-111647327D01*
X122695595Y-111683766D01*
X122698826Y-111694021D01*
X122708866Y-111731488D01*
X122714417Y-111741103D01*
X122723571Y-111760745D01*
X122727365Y-111771184D01*
X122749595Y-111802966D01*
X122755370Y-111812037D01*
X122773924Y-111844172D01*
X122774759Y-111845618D01*
X122774761Y-111845620D01*
X122782605Y-111853464D01*
X122796532Y-111870069D01*
X122802898Y-111879170D01*
X122802902Y-111879174D01*
X122832594Y-111904113D01*
X122840524Y-111911383D01*
X126569538Y-115640397D01*
X126603023Y-115701720D01*
X126598039Y-115771412D01*
X126556167Y-115827345D01*
X126490703Y-115851762D01*
X126448402Y-115847480D01*
X126238364Y-115788630D01*
X126238359Y-115788629D01*
X126238358Y-115788629D01*
X126015854Y-115758046D01*
X125953679Y-115749500D01*
X125953678Y-115749500D01*
X125666322Y-115749500D01*
X125666321Y-115749500D01*
X125381642Y-115788629D01*
X125381635Y-115788630D01*
X125177391Y-115845857D01*
X125104942Y-115866156D01*
X125104939Y-115866156D01*
X125104936Y-115866158D01*
X125104935Y-115866158D01*
X124841382Y-115980634D01*
X124595853Y-116129944D01*
X124372950Y-116311289D01*
X124176812Y-116521299D01*
X124011098Y-116756064D01*
X123878894Y-117011206D01*
X123782667Y-117281962D01*
X123782666Y-117281965D01*
X123724201Y-117563319D01*
X123704592Y-117850000D01*
X123724201Y-118136680D01*
X123724201Y-118136684D01*
X123724202Y-118136686D01*
X123778066Y-118395894D01*
X123782666Y-118418032D01*
X123804746Y-118480161D01*
X123808647Y-118549922D01*
X123774214Y-118610717D01*
X123712378Y-118643246D01*
X123642772Y-118637180D01*
X123600224Y-118609366D01*
X123127544Y-118136686D01*
X119871385Y-114880525D01*
X119864115Y-114872595D01*
X119839176Y-114842903D01*
X119839172Y-114842899D01*
X119830071Y-114836533D01*
X119813466Y-114822606D01*
X119805622Y-114814762D01*
X119805620Y-114814760D01*
X119804174Y-114813925D01*
X119772039Y-114795371D01*
X119762968Y-114789596D01*
X119731186Y-114767366D01*
X119720747Y-114763572D01*
X119701105Y-114754418D01*
X119691492Y-114748868D01*
X119691489Y-114748867D01*
X119691490Y-114748867D01*
X119654023Y-114738827D01*
X119643768Y-114735596D01*
X119607329Y-114722354D01*
X119607324Y-114722353D01*
X119596272Y-114721392D01*
X119574925Y-114717634D01*
X119564199Y-114714760D01*
X119525419Y-114714760D01*
X119514671Y-114714293D01*
X119476039Y-114710931D01*
X119466949Y-114712539D01*
X119465106Y-114712865D01*
X119443513Y-114714760D01*
X119432414Y-114714760D01*
X119411182Y-114720449D01*
X119394950Y-114724798D01*
X119384453Y-114727127D01*
X119346270Y-114733879D01*
X119346268Y-114733879D01*
X119336205Y-114738578D01*
X119315850Y-114745992D01*
X119305124Y-114748866D01*
X119305117Y-114748869D01*
X119271532Y-114768259D01*
X119261997Y-114773225D01*
X119226861Y-114789630D01*
X119218347Y-114796781D01*
X119200616Y-114809202D01*
X119190994Y-114814758D01*
X119190988Y-114814762D01*
X119166990Y-114838760D01*
X119157351Y-114847440D01*
X118356838Y-115495724D01*
X118353336Y-115498457D01*
X117512322Y-116131035D01*
X117508725Y-116133641D01*
X116645578Y-116735699D01*
X116641889Y-116738175D01*
X115757733Y-117308928D01*
X115753958Y-117311270D01*
X114849925Y-117849986D01*
X114846069Y-117852191D01*
X113923326Y-118358176D01*
X113919393Y-118360242D01*
X112979122Y-118832850D01*
X112975118Y-118834774D01*
X112018508Y-119273404D01*
X112014438Y-119275183D01*
X111042725Y-119679271D01*
X111038593Y-119680903D01*
X110053048Y-120049916D01*
X110048861Y-120051399D01*
X109050716Y-120384882D01*
X109046477Y-120386214D01*
X108037025Y-120683728D01*
X108032743Y-120684907D01*
X107013292Y-120946071D01*
X107008969Y-120947096D01*
X105980836Y-121171573D01*
X105976480Y-121172443D01*
X104940932Y-121359955D01*
X104936547Y-121360668D01*
X103894951Y-121510966D01*
X103890544Y-121511521D01*
X102844274Y-121624410D01*
X102839850Y-121624808D01*
X101790145Y-121700153D01*
X101785709Y-121700391D01*
X100734039Y-121738085D01*
X100729597Y-121738165D01*
X99677201Y-121738165D01*
X99672759Y-121738085D01*
X98621088Y-121700391D01*
X98616652Y-121700153D01*
X97566947Y-121624808D01*
X97562523Y-121624410D01*
X96516253Y-121511521D01*
X96511846Y-121510966D01*
X95470250Y-121360668D01*
X95465865Y-121359955D01*
X94430317Y-121172443D01*
X94425961Y-121171573D01*
X93397828Y-120947096D01*
X93393505Y-120946071D01*
X92374054Y-120684907D01*
X92369772Y-120683728D01*
X91360320Y-120386214D01*
X91356081Y-120384882D01*
X90357936Y-120051399D01*
X90353749Y-120049916D01*
X89368204Y-119680903D01*
X89364072Y-119679271D01*
X88392359Y-119275183D01*
X88388289Y-119273404D01*
X87431679Y-118834774D01*
X87427675Y-118832850D01*
X86487404Y-118360242D01*
X86483471Y-118358176D01*
X85560728Y-117852191D01*
X85556872Y-117849986D01*
X85402523Y-117758009D01*
X84652829Y-117311264D01*
X84649064Y-117308928D01*
X84618912Y-117289464D01*
X83764902Y-116738171D01*
X83761219Y-116735699D01*
X82898072Y-116133641D01*
X82894475Y-116131035D01*
X82053461Y-115498457D01*
X82049959Y-115495724D01*
X81249442Y-114847437D01*
X81239806Y-114838760D01*
X81215806Y-114814760D01*
X81215805Y-114814759D01*
X81206186Y-114809205D01*
X81188445Y-114796776D01*
X81179940Y-114789633D01*
X81144801Y-114773226D01*
X81135263Y-114768258D01*
X81111291Y-114754418D01*
X81101678Y-114748868D01*
X81101677Y-114748867D01*
X81101674Y-114748866D01*
X81101675Y-114748866D01*
X81090943Y-114745990D01*
X81070591Y-114738577D01*
X81060531Y-114733880D01*
X81022340Y-114727126D01*
X81011846Y-114724797D01*
X80995617Y-114720449D01*
X80974385Y-114714760D01*
X80974383Y-114714760D01*
X80963285Y-114714760D01*
X80941691Y-114712865D01*
X80938823Y-114712357D01*
X80930757Y-114710931D01*
X80892127Y-114714293D01*
X80881379Y-114714760D01*
X80842599Y-114714760D01*
X80831865Y-114717635D01*
X80810544Y-114721389D01*
X80799476Y-114722353D01*
X80799467Y-114722355D01*
X80763028Y-114735597D01*
X80752773Y-114738828D01*
X80715306Y-114748868D01*
X80715304Y-114748868D01*
X80705679Y-114754425D01*
X80686050Y-114763572D01*
X80675612Y-114767365D01*
X80675606Y-114767369D01*
X80643827Y-114789597D01*
X80634758Y-114795372D01*
X80601178Y-114814759D01*
X80593322Y-114822615D01*
X80576728Y-114836532D01*
X80567624Y-114842900D01*
X80567621Y-114842903D01*
X80542675Y-114872602D01*
X80535408Y-114880528D01*
X76806573Y-118609363D01*
X76745250Y-118642848D01*
X76675558Y-118637864D01*
X76619625Y-118595992D01*
X76595208Y-118530528D01*
X76602052Y-118480156D01*
X76624131Y-118418032D01*
X76682595Y-118136686D01*
X76702205Y-117850000D01*
X76682595Y-117563314D01*
X76624131Y-117281968D01*
X76527902Y-117011206D01*
X76527903Y-117011206D01*
X76395698Y-116756064D01*
X76229984Y-116521299D01*
X76083889Y-116364871D01*
X76033850Y-116311292D01*
X75852382Y-116163657D01*
X75810943Y-116129944D01*
X75565414Y-115980634D01*
X75301860Y-115866158D01*
X75301858Y-115866157D01*
X75301855Y-115866156D01*
X75172375Y-115829877D01*
X75025161Y-115788630D01*
X75025156Y-115788629D01*
X75025155Y-115788629D01*
X74802651Y-115758046D01*
X74740476Y-115749500D01*
X74740475Y-115749500D01*
X74453119Y-115749500D01*
X74453118Y-115749500D01*
X74168439Y-115788629D01*
X74168428Y-115788631D01*
X73958392Y-115847480D01*
X73888528Y-115846612D01*
X73830224Y-115808110D01*
X73801990Y-115744199D01*
X73812792Y-115675169D01*
X73837257Y-115640397D01*
X75381042Y-114096612D01*
X77566280Y-111911374D01*
X77574184Y-111904128D01*
X77603895Y-111879174D01*
X77610263Y-111870069D01*
X77624181Y-111853474D01*
X77632036Y-111845620D01*
X77651428Y-111812029D01*
X77657204Y-111802960D01*
X77679426Y-111771192D01*
X77679426Y-111771191D01*
X77679430Y-111771186D01*
X77683224Y-111760745D01*
X77692374Y-111741109D01*
X77697928Y-111731492D01*
X77707966Y-111694025D01*
X77711189Y-111683791D01*
X77724442Y-111647327D01*
X77725404Y-111636263D01*
X77729162Y-111614922D01*
X77732036Y-111604198D01*
X77732036Y-111565416D01*
X77732503Y-111554668D01*
X77735864Y-111516039D01*
X77733930Y-111505100D01*
X77732036Y-111483509D01*
X77732036Y-111472414D01*
X77732036Y-111472413D01*
X77721999Y-111434954D01*
X77719668Y-111424452D01*
X77712916Y-111386268D01*
X77708220Y-111376210D01*
X77700803Y-111355847D01*
X77697929Y-111345123D01*
X77697928Y-111345121D01*
X77697928Y-111345120D01*
X77678534Y-111311530D01*
X77673573Y-111302005D01*
X77657163Y-111266858D01*
X77650023Y-111258358D01*
X77637591Y-111240614D01*
X77632036Y-111230992D01*
X77608026Y-111206981D01*
X77599360Y-111197357D01*
X77034179Y-110499461D01*
X76951071Y-110396838D01*
X76948338Y-110393336D01*
X76346593Y-109593313D01*
X76315757Y-109552317D01*
X76313154Y-109548724D01*
X76265258Y-109480057D01*
X75711084Y-108685559D01*
X75708621Y-108681889D01*
X75636357Y-108569944D01*
X75137852Y-107797706D01*
X75135541Y-107793982D01*
X74596794Y-106889899D01*
X74594619Y-106886094D01*
X74088612Y-105963313D01*
X74086553Y-105959393D01*
X74080288Y-105946929D01*
X73613940Y-105019110D01*
X73612022Y-105015118D01*
X73601753Y-104992723D01*
X73343722Y-104429983D01*
X81204500Y-104429983D01*
X81204500Y-105230001D01*
X81204501Y-105230019D01*
X81215000Y-105332796D01*
X81215001Y-105332799D01*
X81270185Y-105499331D01*
X81270187Y-105499336D01*
X81273194Y-105504211D01*
X81362288Y-105648656D01*
X81486344Y-105772712D01*
X81550543Y-105812310D01*
X81597268Y-105864258D01*
X81608489Y-105933221D01*
X81580646Y-105997303D01*
X81573128Y-106005530D01*
X81465585Y-106113073D01*
X81363768Y-106253211D01*
X81285128Y-106407552D01*
X81231597Y-106572302D01*
X81215782Y-106672156D01*
X81204500Y-106743389D01*
X81204500Y-106916611D01*
X81210705Y-106955788D01*
X81224372Y-107042082D01*
X81231598Y-107087701D01*
X81285127Y-107252445D01*
X81363768Y-107406788D01*
X81465586Y-107546928D01*
X81588072Y-107669414D01*
X81728212Y-107771232D01*
X81882555Y-107849873D01*
X82047299Y-107903402D01*
X82218389Y-107930500D01*
X82218390Y-107930500D01*
X82941610Y-107930500D01*
X82941611Y-107930500D01*
X83112701Y-107903402D01*
X83277445Y-107849873D01*
X83431788Y-107771232D01*
X83571928Y-107669414D01*
X83694414Y-107546928D01*
X83796232Y-107406788D01*
X83874873Y-107252445D01*
X83928402Y-107087701D01*
X83955500Y-106916611D01*
X83955500Y-106743389D01*
X83928402Y-106572299D01*
X83874873Y-106407555D01*
X83796232Y-106253212D01*
X83694414Y-106113072D01*
X83586872Y-106005530D01*
X83553387Y-105944207D01*
X83558371Y-105874515D01*
X83600243Y-105818582D01*
X83609457Y-105812310D01*
X83618410Y-105806788D01*
X83673656Y-105772712D01*
X83797712Y-105648656D01*
X83889814Y-105499334D01*
X83944999Y-105332797D01*
X83955500Y-105230009D01*
X83955499Y-104429992D01*
X83944999Y-104327203D01*
X83889814Y-104160666D01*
X83797712Y-104011344D01*
X83673656Y-103887288D01*
X83524334Y-103795186D01*
X83357797Y-103740001D01*
X83357795Y-103740000D01*
X83255010Y-103729500D01*
X81904998Y-103729500D01*
X81904981Y-103729501D01*
X81802203Y-103740000D01*
X81802200Y-103740001D01*
X81635668Y-103795185D01*
X81635663Y-103795187D01*
X81486342Y-103887289D01*
X81362289Y-104011342D01*
X81270187Y-104160663D01*
X81270185Y-104160668D01*
X81253796Y-104210127D01*
X81215001Y-104327203D01*
X81215001Y-104327204D01*
X81215000Y-104327204D01*
X81204500Y-104429983D01*
X73343722Y-104429983D01*
X73173391Y-104058508D01*
X73171612Y-104054438D01*
X72767526Y-103082725D01*
X72765894Y-103078593D01*
X72396879Y-102093047D01*
X72395396Y-102088860D01*
X72225385Y-101580000D01*
X72061904Y-101090684D01*
X72060592Y-101086510D01*
X71763065Y-100077019D01*
X71761888Y-100072743D01*
X71646727Y-99623215D01*
X71500724Y-99053292D01*
X71499699Y-99048969D01*
X71275223Y-98020835D01*
X71274353Y-98016479D01*
X71157201Y-97369498D01*
X71086840Y-96980926D01*
X71086128Y-96976547D01*
X71045537Y-96695244D01*
X70935828Y-95934943D01*
X70935274Y-95930544D01*
X70928735Y-95869943D01*
X70822385Y-94884270D01*
X70821988Y-94879850D01*
X70818606Y-94832726D01*
X70746640Y-93830094D01*
X70746407Y-93825754D01*
X70708712Y-92774038D01*
X70708632Y-92769597D01*
X70708632Y-92739996D01*
X75844435Y-92739996D01*
X75844435Y-92740003D01*
X75864630Y-92919249D01*
X75864631Y-92919254D01*
X75924211Y-93089523D01*
X76002740Y-93214500D01*
X76020184Y-93242262D01*
X76147738Y-93369816D01*
X76211396Y-93409815D01*
X76299064Y-93464901D01*
X76300478Y-93465789D01*
X76438440Y-93514064D01*
X76470745Y-93525368D01*
X76470750Y-93525369D01*
X76649996Y-93545565D01*
X76650000Y-93545565D01*
X76650004Y-93545565D01*
X76829249Y-93525369D01*
X76829252Y-93525368D01*
X76829255Y-93525368D01*
X76999522Y-93465789D01*
X77152262Y-93369816D01*
X77279816Y-93242262D01*
X77375789Y-93089522D01*
X77435368Y-92919255D01*
X77440708Y-92871865D01*
X77449651Y-92792486D01*
X77476717Y-92728072D01*
X77485180Y-92718698D01*
X86002061Y-84201819D01*
X86063384Y-84168334D01*
X86089742Y-84165500D01*
X86302416Y-84165500D01*
X86369455Y-84185185D01*
X86415210Y-84237989D01*
X86425154Y-84307147D01*
X86413416Y-84344771D01*
X86357028Y-84458013D01*
X86357023Y-84458024D01*
X86295937Y-84672723D01*
X86295936Y-84672726D01*
X86275340Y-84894999D01*
X86275340Y-84895000D01*
X86295936Y-85117273D01*
X86295937Y-85117276D01*
X86357023Y-85331975D01*
X86357026Y-85331980D01*
X86456526Y-85531804D01*
X86591050Y-85709943D01*
X86756017Y-85860330D01*
X86756024Y-85860334D01*
X86756025Y-85860335D01*
X86945804Y-85977841D01*
X86945805Y-85977841D01*
X86945808Y-85977843D01*
X87130452Y-86049374D01*
X87185851Y-86091946D01*
X87209442Y-86157713D01*
X87193731Y-86225793D01*
X87143707Y-86274572D01*
X87130461Y-86280621D01*
X86987216Y-86336115D01*
X86945810Y-86352156D01*
X86945804Y-86352158D01*
X86756025Y-86469664D01*
X86756015Y-86469671D01*
X86591051Y-86620055D01*
X86456526Y-86798195D01*
X86357026Y-86998018D01*
X86357023Y-86998024D01*
X86295937Y-87212723D01*
X86295936Y-87212726D01*
X86275340Y-87434999D01*
X86275340Y-87435000D01*
X86295936Y-87657273D01*
X86295937Y-87657276D01*
X86357023Y-87871975D01*
X86357026Y-87871981D01*
X86425322Y-88009138D01*
X86456526Y-88071804D01*
X86591050Y-88249943D01*
X86756017Y-88400330D01*
X86756024Y-88400334D01*
X86756025Y-88400335D01*
X86945804Y-88517841D01*
X86945805Y-88517841D01*
X86945808Y-88517843D01*
X87130452Y-88589374D01*
X87185851Y-88631946D01*
X87209442Y-88697713D01*
X87193731Y-88765793D01*
X87143707Y-88814572D01*
X87130461Y-88820621D01*
X87009424Y-88867512D01*
X86945810Y-88892156D01*
X86945804Y-88892158D01*
X86756025Y-89009664D01*
X86756015Y-89009671D01*
X86591051Y-89160055D01*
X86456526Y-89338195D01*
X86357026Y-89538018D01*
X86357023Y-89538024D01*
X86295937Y-89752723D01*
X86295936Y-89752726D01*
X86275340Y-89974999D01*
X86275340Y-89975000D01*
X86295936Y-90197273D01*
X86295937Y-90197276D01*
X86357023Y-90411975D01*
X86357026Y-90411981D01*
X86390658Y-90479523D01*
X86456526Y-90611804D01*
X86591050Y-90789943D01*
X86756017Y-90940330D01*
X86756024Y-90940334D01*
X86756025Y-90940335D01*
X86945804Y-91057841D01*
X86945805Y-91057841D01*
X86945808Y-91057843D01*
X87130452Y-91129374D01*
X87185851Y-91171946D01*
X87209442Y-91237713D01*
X87193731Y-91305793D01*
X87143707Y-91354572D01*
X87130461Y-91360621D01*
X86987216Y-91416115D01*
X86945810Y-91432156D01*
X86945804Y-91432158D01*
X86756025Y-91549664D01*
X86756015Y-91549671D01*
X86591051Y-91700055D01*
X86456522Y-91878199D01*
X86454924Y-91880782D01*
X86453837Y-91881755D01*
X86453071Y-91882771D01*
X86452872Y-91882620D01*
X86402894Y-91927415D01*
X86349500Y-91939500D01*
X85909233Y-91939500D01*
X85822343Y-91962781D01*
X85822343Y-91962782D01*
X85762865Y-91978719D01*
X85762863Y-91978719D01*
X85762863Y-91978720D01*
X85631635Y-92054485D01*
X85631632Y-92054487D01*
X85119487Y-92566632D01*
X85119485Y-92566635D01*
X85043719Y-92697863D01*
X85004500Y-92844234D01*
X85004500Y-100229874D01*
X84984815Y-100296913D01*
X84932011Y-100342668D01*
X84894387Y-100353094D01*
X84880749Y-100354630D01*
X84710478Y-100414210D01*
X84557737Y-100510184D01*
X84430184Y-100637737D01*
X84334211Y-100790476D01*
X84274631Y-100960745D01*
X84274630Y-100960750D01*
X84254435Y-101139996D01*
X84254435Y-101140003D01*
X84274630Y-101319249D01*
X84274631Y-101319254D01*
X84334211Y-101489523D01*
X84398985Y-101592609D01*
X84430184Y-101642262D01*
X84557738Y-101769816D01*
X84648080Y-101826582D01*
X84677392Y-101845000D01*
X84710478Y-101865789D01*
X84880745Y-101925368D01*
X84880750Y-101925369D01*
X85059996Y-101945565D01*
X85060000Y-101945565D01*
X85060004Y-101945565D01*
X85239249Y-101925369D01*
X85239252Y-101925368D01*
X85239255Y-101925368D01*
X85409522Y-101865789D01*
X85562262Y-101769816D01*
X85689816Y-101642262D01*
X85785789Y-101489522D01*
X85845368Y-101319255D01*
X85854327Y-101239745D01*
X85859651Y-101192487D01*
X85886717Y-101128073D01*
X85895179Y-101118700D01*
X86040515Y-100973365D01*
X86116281Y-100842135D01*
X86155500Y-100695767D01*
X86155500Y-100694477D01*
X86155807Y-100693429D01*
X86156561Y-100687707D01*
X86157453Y-100687824D01*
X86175185Y-100627438D01*
X86227989Y-100581683D01*
X86297147Y-100571739D01*
X86360703Y-100600764D01*
X86390500Y-100639206D01*
X86417500Y-100693429D01*
X86456526Y-100771804D01*
X86591050Y-100949943D01*
X86591051Y-100949944D01*
X86646039Y-101000072D01*
X86756017Y-101100330D01*
X86756024Y-101100334D01*
X86756025Y-101100335D01*
X86945804Y-101217841D01*
X86945806Y-101217842D01*
X86945808Y-101217843D01*
X87131142Y-101289642D01*
X87186542Y-101332213D01*
X87210133Y-101397979D01*
X87194422Y-101466060D01*
X87144399Y-101514839D01*
X87131141Y-101520893D01*
X86946042Y-101592601D01*
X86946026Y-101592609D01*
X86828766Y-101665212D01*
X86828765Y-101665213D01*
X87396415Y-102232861D01*
X87311306Y-102255667D01*
X87208694Y-102314910D01*
X87124910Y-102398694D01*
X87065667Y-102501306D01*
X87042861Y-102586414D01*
X86473282Y-102016834D01*
X86456948Y-102038466D01*
X86357500Y-102238186D01*
X86357493Y-102238204D01*
X86296429Y-102452818D01*
X86275842Y-102674999D01*
X86275842Y-102675000D01*
X86296429Y-102897181D01*
X86357493Y-103111795D01*
X86357498Y-103111808D01*
X86456953Y-103311541D01*
X86473281Y-103333163D01*
X86473282Y-103333163D01*
X87042861Y-102763584D01*
X87065667Y-102848694D01*
X87124910Y-102951306D01*
X87208694Y-103035090D01*
X87311306Y-103094333D01*
X87396414Y-103117137D01*
X86828765Y-103684785D01*
X86946034Y-103757394D01*
X87131141Y-103829105D01*
X87186542Y-103871678D01*
X87210133Y-103937445D01*
X87194422Y-104005525D01*
X87144398Y-104054304D01*
X87131147Y-104060355D01*
X87079431Y-104080391D01*
X86945810Y-104132155D01*
X86945804Y-104132158D01*
X86756025Y-104249664D01*
X86756015Y-104249671D01*
X86591051Y-104400055D01*
X86456526Y-104578195D01*
X86357026Y-104778018D01*
X86357023Y-104778024D01*
X86295937Y-104992723D01*
X86295936Y-104992726D01*
X86275340Y-105214999D01*
X86275340Y-105215000D01*
X86295936Y-105437273D01*
X86295937Y-105437276D01*
X86357023Y-105651975D01*
X86357026Y-105651981D01*
X86456526Y-105851804D01*
X86528358Y-105946926D01*
X86591050Y-106029943D01*
X86756017Y-106180330D01*
X86756024Y-106180334D01*
X86756025Y-106180335D01*
X86945804Y-106297841D01*
X86945805Y-106297841D01*
X86945808Y-106297843D01*
X87130452Y-106369374D01*
X87185851Y-106411946D01*
X87209442Y-106477713D01*
X87193731Y-106545793D01*
X87143707Y-106594572D01*
X87130461Y-106600621D01*
X86987216Y-106656115D01*
X86945810Y-106672156D01*
X86945804Y-106672158D01*
X86756025Y-106789664D01*
X86756015Y-106789671D01*
X86591051Y-106940055D01*
X86456526Y-107118195D01*
X86357026Y-107318018D01*
X86357023Y-107318024D01*
X86295937Y-107532723D01*
X86295936Y-107532726D01*
X86275340Y-107754999D01*
X86275340Y-107755000D01*
X86295936Y-107977273D01*
X86295937Y-107977276D01*
X86357023Y-108191975D01*
X86357026Y-108191981D01*
X86425999Y-108330498D01*
X86456526Y-108391804D01*
X86591050Y-108569943D01*
X86756017Y-108720330D01*
X86756024Y-108720334D01*
X86756025Y-108720335D01*
X86945804Y-108837841D01*
X86945805Y-108837841D01*
X86945808Y-108837843D01*
X87130452Y-108909374D01*
X87185851Y-108951946D01*
X87209442Y-109017713D01*
X87193731Y-109085793D01*
X87143707Y-109134572D01*
X87130461Y-109140621D01*
X86987216Y-109196115D01*
X86945810Y-109212156D01*
X86945804Y-109212158D01*
X86756025Y-109329664D01*
X86756015Y-109329671D01*
X86591051Y-109480055D01*
X86456526Y-109658195D01*
X86357026Y-109858018D01*
X86357023Y-109858024D01*
X86295937Y-110072723D01*
X86295936Y-110072726D01*
X86275340Y-110294999D01*
X86275340Y-110295000D01*
X86295936Y-110517273D01*
X86295937Y-110517276D01*
X86357023Y-110731975D01*
X86357026Y-110731981D01*
X86429078Y-110876681D01*
X86456526Y-110931804D01*
X86591050Y-111109943D01*
X86756017Y-111260330D01*
X86756024Y-111260334D01*
X86756025Y-111260335D01*
X86945804Y-111377841D01*
X86945805Y-111377841D01*
X86945808Y-111377843D01*
X87130452Y-111449374D01*
X87185851Y-111491946D01*
X87209442Y-111557713D01*
X87193731Y-111625793D01*
X87143707Y-111674572D01*
X87130461Y-111680621D01*
X86987216Y-111736115D01*
X86945810Y-111752156D01*
X86945804Y-111752158D01*
X86756025Y-111869664D01*
X86756015Y-111869671D01*
X86591051Y-112020055D01*
X86456526Y-112198195D01*
X86357026Y-112398018D01*
X86357023Y-112398024D01*
X86295937Y-112612723D01*
X86295936Y-112612726D01*
X86275340Y-112834999D01*
X86275340Y-112835000D01*
X86295936Y-113057273D01*
X86295937Y-113057276D01*
X86357023Y-113271975D01*
X86357026Y-113271980D01*
X86456526Y-113471804D01*
X86591050Y-113649943D01*
X86756017Y-113800330D01*
X86756024Y-113800334D01*
X86756025Y-113800335D01*
X86945804Y-113917841D01*
X86945805Y-113917841D01*
X86945808Y-113917843D01*
X87130452Y-113989374D01*
X87185851Y-114031946D01*
X87209442Y-114097713D01*
X87193731Y-114165793D01*
X87143707Y-114214572D01*
X87130461Y-114220621D01*
X86987216Y-114276115D01*
X86945810Y-114292156D01*
X86945804Y-114292158D01*
X86756025Y-114409664D01*
X86756015Y-114409671D01*
X86591051Y-114560055D01*
X86456526Y-114738195D01*
X86357026Y-114938018D01*
X86357023Y-114938024D01*
X86295937Y-115152723D01*
X86295936Y-115152726D01*
X86275340Y-115374999D01*
X86275340Y-115375000D01*
X86295936Y-115597273D01*
X86295937Y-115597276D01*
X86357023Y-115811975D01*
X86357026Y-115811981D01*
X86441005Y-115980634D01*
X86456526Y-116011804D01*
X86591050Y-116189943D01*
X86756017Y-116340330D01*
X86756024Y-116340334D01*
X86756025Y-116340335D01*
X86945804Y-116457841D01*
X86945805Y-116457841D01*
X86945808Y-116457843D01*
X87153961Y-116538482D01*
X87373387Y-116579500D01*
X87373389Y-116579500D01*
X87596611Y-116579500D01*
X87596613Y-116579500D01*
X87816039Y-116538482D01*
X87912006Y-116501304D01*
X93379500Y-116501304D01*
X93379500Y-116678695D01*
X93414103Y-116852658D01*
X93414106Y-116852667D01*
X93481983Y-117016540D01*
X93481990Y-117016553D01*
X93580535Y-117164034D01*
X93580538Y-117164038D01*
X93705961Y-117289461D01*
X93705965Y-117289464D01*
X93853453Y-117388013D01*
X93853459Y-117388015D01*
X93858824Y-117390883D01*
X93858148Y-117392147D01*
X93889774Y-117413274D01*
X94296935Y-117820434D01*
X94580536Y-118104035D01*
X94705960Y-118229459D01*
X94705966Y-118229465D01*
X94765389Y-118269170D01*
X94853453Y-118328013D01*
X94901452Y-118347895D01*
X95017334Y-118395895D01*
X95182822Y-118428812D01*
X95191303Y-118430499D01*
X95191307Y-118430500D01*
X95191308Y-118430500D01*
X99193693Y-118430500D01*
X99193694Y-118430499D01*
X99367666Y-118395895D01*
X99456143Y-118359246D01*
X99531547Y-118328013D01*
X99619595Y-118269181D01*
X99652513Y-118247186D01*
X99661354Y-118241278D01*
X99679036Y-118229464D01*
X101450767Y-116457730D01*
X101512088Y-116424247D01*
X101519049Y-116422940D01*
X101528388Y-116421460D01*
X101547701Y-116418402D01*
X101712445Y-116364873D01*
X101866788Y-116286232D01*
X102006928Y-116184414D01*
X102017819Y-116173523D01*
X102079142Y-116140038D01*
X102148834Y-116145022D01*
X102204767Y-116186894D01*
X102229184Y-116252358D01*
X102229500Y-116261204D01*
X102229500Y-117048695D01*
X102264103Y-117222658D01*
X102264106Y-117222667D01*
X102331983Y-117386540D01*
X102331990Y-117386553D01*
X102430535Y-117534034D01*
X102430538Y-117534038D01*
X102555961Y-117659461D01*
X102555965Y-117659464D01*
X102703446Y-117758009D01*
X102703459Y-117758016D01*
X102826363Y-117808923D01*
X102867334Y-117825894D01*
X102867336Y-117825894D01*
X102867341Y-117825896D01*
X103041304Y-117860499D01*
X103041307Y-117860500D01*
X103041309Y-117860500D01*
X103218693Y-117860500D01*
X103218694Y-117860499D01*
X103276682Y-117848964D01*
X103392658Y-117825896D01*
X103392661Y-117825894D01*
X103392666Y-117825894D01*
X103556547Y-117758013D01*
X103704035Y-117659464D01*
X103829464Y-117534035D01*
X103928013Y-117386547D01*
X103995894Y-117222666D01*
X104030500Y-117048691D01*
X104030500Y-110451309D01*
X104026225Y-110429816D01*
X104023799Y-110417621D01*
X104001352Y-110304768D01*
X103995895Y-110277334D01*
X103942953Y-110149522D01*
X103928013Y-110113453D01*
X103864065Y-110017749D01*
X103864065Y-110017748D01*
X103829465Y-109965965D01*
X103829459Y-109965958D01*
X102964035Y-109100535D01*
X102964030Y-109100531D01*
X102904961Y-109061064D01*
X102904960Y-109061063D01*
X102816544Y-109001985D01*
X102816542Y-109001984D01*
X102734607Y-108968046D01*
X102734606Y-108968046D01*
X102652666Y-108934105D01*
X102652658Y-108934103D01*
X102478696Y-108899500D01*
X102478692Y-108899500D01*
X102478691Y-108899500D01*
X100821309Y-108899500D01*
X100821306Y-108899500D01*
X100647341Y-108934103D01*
X100647332Y-108934106D01*
X100483459Y-109001983D01*
X100483446Y-109001990D01*
X100335965Y-109100535D01*
X100335961Y-109100538D01*
X100210538Y-109225961D01*
X100210535Y-109225965D01*
X100111990Y-109373446D01*
X100111983Y-109373459D01*
X100044106Y-109537332D01*
X100044103Y-109537341D01*
X100009500Y-109711304D01*
X100009500Y-109888695D01*
X100044103Y-110062658D01*
X100044106Y-110062667D01*
X100111983Y-110226540D01*
X100111990Y-110226553D01*
X100210535Y-110374034D01*
X100210538Y-110374038D01*
X100335961Y-110499461D01*
X100335965Y-110499464D01*
X100483446Y-110598009D01*
X100483459Y-110598016D01*
X100606363Y-110648923D01*
X100647334Y-110665894D01*
X100647336Y-110665894D01*
X100647341Y-110665896D01*
X100821304Y-110700499D01*
X100821307Y-110700500D01*
X100821309Y-110700500D01*
X101965638Y-110700500D01*
X102032677Y-110720185D01*
X102053319Y-110736819D01*
X102193181Y-110876681D01*
X102226666Y-110938004D01*
X102229500Y-110964362D01*
X102229500Y-113878796D01*
X102209815Y-113945835D01*
X102157011Y-113991590D01*
X102087853Y-114001534D01*
X102024297Y-113972509D01*
X102017819Y-113966477D01*
X102006930Y-113955588D01*
X102006928Y-113955586D01*
X101866788Y-113853768D01*
X101712445Y-113775127D01*
X101547701Y-113721598D01*
X101547699Y-113721597D01*
X101547698Y-113721597D01*
X101416271Y-113700781D01*
X101376611Y-113694500D01*
X101203389Y-113694500D01*
X101163728Y-113700781D01*
X101032302Y-113721597D01*
X100867552Y-113775128D01*
X100713211Y-113853768D01*
X100573073Y-113955585D01*
X100465530Y-114063128D01*
X100404207Y-114096612D01*
X100334515Y-114091628D01*
X100278582Y-114049756D01*
X100272310Y-114040543D01*
X100248249Y-114001534D01*
X100232712Y-113976344D01*
X100108656Y-113852288D01*
X99983559Y-113775128D01*
X99959336Y-113760187D01*
X99959331Y-113760185D01*
X99957862Y-113759698D01*
X99792797Y-113705001D01*
X99792795Y-113705000D01*
X99690010Y-113694500D01*
X98889998Y-113694500D01*
X98889980Y-113694501D01*
X98787203Y-113705000D01*
X98787200Y-113705001D01*
X98620668Y-113760185D01*
X98620663Y-113760187D01*
X98471342Y-113852289D01*
X98347289Y-113976342D01*
X98255187Y-114125663D01*
X98255186Y-114125666D01*
X98200001Y-114292203D01*
X98200001Y-114292204D01*
X98200000Y-114292204D01*
X98189500Y-114394983D01*
X98189500Y-115745001D01*
X98189501Y-115745018D01*
X98200000Y-115847796D01*
X98200001Y-115847799D01*
X98255185Y-116014331D01*
X98255187Y-116014336D01*
X98256192Y-116015965D01*
X98347288Y-116163656D01*
X98471344Y-116287712D01*
X98620666Y-116379814D01*
X98644749Y-116387794D01*
X98702194Y-116427567D01*
X98729017Y-116492083D01*
X98716702Y-116560859D01*
X98669159Y-116612058D01*
X98605745Y-116629500D01*
X95704361Y-116629500D01*
X95637322Y-116609815D01*
X95616680Y-116593181D01*
X94914041Y-115890540D01*
X94914038Y-115890537D01*
X94847169Y-115845857D01*
X94766544Y-115791985D01*
X94766542Y-115791984D01*
X94684607Y-115758046D01*
X94684606Y-115758046D01*
X94602666Y-115724105D01*
X94602658Y-115724103D01*
X94428696Y-115689500D01*
X94428692Y-115689500D01*
X94428691Y-115689500D01*
X94191309Y-115689500D01*
X94191306Y-115689500D01*
X94017341Y-115724103D01*
X94017332Y-115724106D01*
X93853459Y-115791983D01*
X93853446Y-115791990D01*
X93705965Y-115890535D01*
X93705961Y-115890538D01*
X93580538Y-116015961D01*
X93580535Y-116015965D01*
X93481990Y-116163446D01*
X93481983Y-116163459D01*
X93414106Y-116327332D01*
X93414103Y-116327341D01*
X93379500Y-116501304D01*
X87912006Y-116501304D01*
X88024192Y-116457843D01*
X88213983Y-116340330D01*
X88378950Y-116189943D01*
X88513474Y-116011804D01*
X88612974Y-115811980D01*
X88612974Y-115811977D01*
X88612976Y-115811975D01*
X88661793Y-115640397D01*
X88674063Y-115597274D01*
X88694660Y-115375000D01*
X88674063Y-115152726D01*
X88665191Y-115121544D01*
X88612976Y-114938024D01*
X88612973Y-114938018D01*
X88513474Y-114738196D01*
X88378950Y-114560057D01*
X88213983Y-114409670D01*
X88213979Y-114409667D01*
X88213974Y-114409664D01*
X88024195Y-114292158D01*
X88024186Y-114292154D01*
X87938430Y-114258932D01*
X87839547Y-114220625D01*
X87784148Y-114178054D01*
X87760557Y-114112288D01*
X87776268Y-114044207D01*
X87826292Y-113995428D01*
X87839538Y-113989378D01*
X88024192Y-113917843D01*
X88213983Y-113800330D01*
X88378950Y-113649943D01*
X88513474Y-113471804D01*
X88612974Y-113271980D01*
X88612974Y-113271977D01*
X88612976Y-113271975D01*
X88674062Y-113057276D01*
X88674063Y-113057273D01*
X88694660Y-112835000D01*
X88694660Y-112834999D01*
X88674063Y-112612726D01*
X88674062Y-112612723D01*
X88612976Y-112398024D01*
X88612973Y-112398018D01*
X88513474Y-112198196D01*
X88378950Y-112020057D01*
X88213983Y-111869670D01*
X88213979Y-111869667D01*
X88213974Y-111869664D01*
X88024195Y-111752158D01*
X88024186Y-111752154D01*
X87938430Y-111718932D01*
X87839547Y-111680625D01*
X87784148Y-111638054D01*
X87760557Y-111572288D01*
X87776268Y-111504207D01*
X87826292Y-111455428D01*
X87839538Y-111449378D01*
X88024192Y-111377843D01*
X88213983Y-111260330D01*
X88378950Y-111109943D01*
X88513474Y-110931804D01*
X88612974Y-110731980D01*
X88612974Y-110731977D01*
X88612976Y-110731975D01*
X88674062Y-110517276D01*
X88674063Y-110517273D01*
X88683614Y-110414209D01*
X88694660Y-110295000D01*
X88674063Y-110072726D01*
X88658421Y-110017749D01*
X88612976Y-109858024D01*
X88612973Y-109858018D01*
X88513474Y-109658196D01*
X88378950Y-109480057D01*
X88213983Y-109329670D01*
X88213979Y-109329667D01*
X88213974Y-109329664D01*
X88024195Y-109212158D01*
X88024186Y-109212154D01*
X87938430Y-109178932D01*
X87839547Y-109140625D01*
X87784148Y-109098054D01*
X87760557Y-109032288D01*
X87776268Y-108964207D01*
X87826292Y-108915428D01*
X87839538Y-108909378D01*
X88024192Y-108837843D01*
X88213983Y-108720330D01*
X88378950Y-108569943D01*
X88513474Y-108391804D01*
X88612974Y-108191980D01*
X88612974Y-108191977D01*
X88612976Y-108191975D01*
X88647954Y-108069036D01*
X88674063Y-107977274D01*
X88694660Y-107755000D01*
X88692602Y-107732796D01*
X88674063Y-107532726D01*
X88674062Y-107532723D01*
X88612976Y-107318024D01*
X88612973Y-107318018D01*
X88547172Y-107185871D01*
X88513474Y-107118196D01*
X88378950Y-106940057D01*
X88213983Y-106789670D01*
X88213979Y-106789667D01*
X88213974Y-106789664D01*
X88024195Y-106672158D01*
X88024186Y-106672154D01*
X87938430Y-106638932D01*
X87839547Y-106600625D01*
X87784148Y-106558054D01*
X87760557Y-106492288D01*
X87776268Y-106424207D01*
X87826292Y-106375428D01*
X87839538Y-106369378D01*
X88024192Y-106297843D01*
X88213983Y-106180330D01*
X88378950Y-106029943D01*
X88513474Y-105851804D01*
X88612974Y-105651980D01*
X88612974Y-105651977D01*
X88612976Y-105651975D01*
X88674062Y-105437276D01*
X88674063Y-105437273D01*
X88683745Y-105332795D01*
X88694660Y-105215000D01*
X88674063Y-104992726D01*
X88627261Y-104828232D01*
X88612976Y-104778024D01*
X88612973Y-104778018D01*
X88550827Y-104653211D01*
X88513474Y-104578196D01*
X88378950Y-104400057D01*
X88213983Y-104249670D01*
X88213979Y-104249667D01*
X88213974Y-104249664D01*
X88024195Y-104132158D01*
X88024189Y-104132156D01*
X87838855Y-104060357D01*
X87783457Y-104017786D01*
X87759866Y-103952019D01*
X87775577Y-103883939D01*
X87825601Y-103835160D01*
X87838859Y-103829105D01*
X88023964Y-103757395D01*
X88023968Y-103757393D01*
X88141233Y-103684785D01*
X87573585Y-103117137D01*
X87658694Y-103094333D01*
X87761306Y-103035090D01*
X87845090Y-102951306D01*
X87904333Y-102848694D01*
X87927138Y-102763585D01*
X88496716Y-103333163D01*
X88513046Y-103311541D01*
X88612501Y-103111808D01*
X88612506Y-103111795D01*
X88673570Y-102897181D01*
X88694158Y-102675000D01*
X88694158Y-102674999D01*
X88673570Y-102452818D01*
X88612506Y-102238204D01*
X88612501Y-102238191D01*
X88513044Y-102038455D01*
X88496717Y-102016834D01*
X88496716Y-102016834D01*
X87927137Y-102586413D01*
X87904333Y-102501306D01*
X87845090Y-102398694D01*
X87761306Y-102314910D01*
X87658694Y-102255667D01*
X87573584Y-102232861D01*
X88141233Y-101665213D01*
X88141232Y-101665212D01*
X88023971Y-101592607D01*
X88023965Y-101592604D01*
X87838858Y-101520894D01*
X87783456Y-101478321D01*
X87759866Y-101412554D01*
X87775577Y-101344474D01*
X87825601Y-101295695D01*
X87838837Y-101289649D01*
X88024192Y-101217843D01*
X88213983Y-101100330D01*
X88378950Y-100949943D01*
X88513474Y-100771804D01*
X88612974Y-100571980D01*
X88612974Y-100571977D01*
X88612976Y-100571975D01*
X88657863Y-100414210D01*
X88674063Y-100357274D01*
X88694660Y-100135000D01*
X88693463Y-100122087D01*
X88674063Y-99912726D01*
X88674062Y-99912723D01*
X88612976Y-99698024D01*
X88612973Y-99698018D01*
X88602769Y-99677526D01*
X88513474Y-99498196D01*
X88378950Y-99320057D01*
X88213983Y-99169670D01*
X88213979Y-99169667D01*
X88213974Y-99169664D01*
X88024195Y-99052158D01*
X88024186Y-99052154D01*
X87938430Y-99018932D01*
X87839547Y-98980625D01*
X87784148Y-98938054D01*
X87760557Y-98872288D01*
X87776268Y-98804207D01*
X87826292Y-98755428D01*
X87839538Y-98749378D01*
X88024192Y-98677843D01*
X88213983Y-98560330D01*
X88378950Y-98409943D01*
X88513474Y-98231804D01*
X88612974Y-98031980D01*
X88612974Y-98031977D01*
X88612976Y-98031975D01*
X88674062Y-97817276D01*
X88674063Y-97817273D01*
X88694660Y-97595000D01*
X88683324Y-97472667D01*
X88674063Y-97372726D01*
X88674062Y-97372723D01*
X88673602Y-97367757D01*
X88687017Y-97299187D01*
X88735374Y-97248755D01*
X88803320Y-97232472D01*
X88869282Y-97255509D01*
X88884754Y-97268634D01*
X90870647Y-99254527D01*
X90904132Y-99315850D01*
X90906966Y-99342208D01*
X90906966Y-104828231D01*
X90946185Y-104974602D01*
X90970737Y-105017126D01*
X91021951Y-105105831D01*
X92069485Y-106153365D01*
X92176635Y-106260515D01*
X92307865Y-106336281D01*
X92382866Y-106356377D01*
X92442524Y-106392741D01*
X92473054Y-106455587D01*
X92464760Y-106524963D01*
X92429026Y-106572339D01*
X92266348Y-106704686D01*
X92070210Y-106914697D01*
X91904496Y-107149462D01*
X91772292Y-107404604D01*
X91676065Y-107675360D01*
X91676064Y-107675363D01*
X91617599Y-107956717D01*
X91597990Y-108243398D01*
X91617599Y-108530078D01*
X91676064Y-108811432D01*
X91676065Y-108811435D01*
X91772292Y-109082191D01*
X91772291Y-109082191D01*
X91904496Y-109337333D01*
X92070210Y-109572098D01*
X92150620Y-109658195D01*
X92266345Y-109782106D01*
X92359654Y-109858018D01*
X92489251Y-109963453D01*
X92734780Y-110112763D01*
X92921635Y-110193924D01*
X92998340Y-110227242D01*
X93275040Y-110304769D01*
X93525318Y-110339169D01*
X93559719Y-110343898D01*
X93559720Y-110343898D01*
X93847077Y-110343898D01*
X93877768Y-110339679D01*
X94131756Y-110304769D01*
X94408456Y-110227242D01*
X94587386Y-110149522D01*
X94672015Y-110112763D01*
X94672018Y-110112761D01*
X94672023Y-110112759D01*
X94917545Y-109963453D01*
X95140451Y-109782106D01*
X95336587Y-109572096D01*
X95502299Y-109337334D01*
X95634502Y-109082195D01*
X95730732Y-108811430D01*
X95789196Y-108530084D01*
X95808806Y-108243398D01*
X104597990Y-108243398D01*
X104617599Y-108530078D01*
X104676064Y-108811432D01*
X104676065Y-108811435D01*
X104772292Y-109082191D01*
X104772291Y-109082191D01*
X104904496Y-109337333D01*
X105070210Y-109572098D01*
X105150620Y-109658195D01*
X105266345Y-109782106D01*
X105359654Y-109858018D01*
X105489251Y-109963453D01*
X105734780Y-110112763D01*
X105921635Y-110193924D01*
X105998340Y-110227242D01*
X106275040Y-110304769D01*
X106525318Y-110339169D01*
X106559719Y-110343898D01*
X106559720Y-110343898D01*
X106847077Y-110343898D01*
X106877768Y-110339679D01*
X107131756Y-110304769D01*
X107408456Y-110227242D01*
X107587386Y-110149522D01*
X107672015Y-110112763D01*
X107672018Y-110112761D01*
X107672023Y-110112759D01*
X107917545Y-109963453D01*
X108140451Y-109782106D01*
X108336587Y-109572096D01*
X108502299Y-109337334D01*
X108634502Y-109082195D01*
X108730732Y-108811430D01*
X108789196Y-108530084D01*
X108808806Y-108243398D01*
X108789196Y-107956712D01*
X108730732Y-107675366D01*
X108634503Y-107404604D01*
X108634504Y-107404604D01*
X108502299Y-107149462D01*
X108336585Y-106914697D01*
X108257467Y-106829983D01*
X108140451Y-106704690D01*
X107986600Y-106579523D01*
X107917544Y-106523342D01*
X107672015Y-106374032D01*
X107408461Y-106259556D01*
X107408459Y-106259555D01*
X107408456Y-106259554D01*
X107278976Y-106223275D01*
X107131762Y-106182028D01*
X107131757Y-106182027D01*
X107131756Y-106182027D01*
X106923228Y-106153365D01*
X106847077Y-106142898D01*
X106847076Y-106142898D01*
X106559720Y-106142898D01*
X106559719Y-106142898D01*
X106275040Y-106182027D01*
X106275033Y-106182028D01*
X106067259Y-106240243D01*
X105998340Y-106259554D01*
X105998337Y-106259554D01*
X105998334Y-106259556D01*
X105998333Y-106259556D01*
X105734780Y-106374032D01*
X105489251Y-106523342D01*
X105266348Y-106704687D01*
X105070210Y-106914697D01*
X104904496Y-107149462D01*
X104772292Y-107404604D01*
X104676065Y-107675360D01*
X104676064Y-107675363D01*
X104617599Y-107956717D01*
X104597990Y-108243398D01*
X95808806Y-108243398D01*
X95789196Y-107956712D01*
X95730732Y-107675366D01*
X95634503Y-107404604D01*
X95634504Y-107404604D01*
X95502299Y-107149462D01*
X95336585Y-106914697D01*
X95257467Y-106829983D01*
X95140451Y-106704690D01*
X95006468Y-106595687D01*
X94966889Y-106538111D01*
X94964720Y-106468275D01*
X95000651Y-106408353D01*
X95063275Y-106377369D01*
X95084724Y-106375500D01*
X98364838Y-106375500D01*
X98431877Y-106395185D01*
X98477632Y-106447989D01*
X98481877Y-106458539D01*
X98493687Y-106492288D01*
X98524210Y-106579521D01*
X98582417Y-106672156D01*
X98620184Y-106732262D01*
X98747738Y-106859816D01*
X98795655Y-106889924D01*
X98875440Y-106940057D01*
X98900478Y-106955789D01*
X99034125Y-107002554D01*
X99070745Y-107015368D01*
X99070750Y-107015369D01*
X99249996Y-107035565D01*
X99250000Y-107035565D01*
X99250004Y-107035565D01*
X99429249Y-107015369D01*
X99429252Y-107015368D01*
X99429255Y-107015368D01*
X99599522Y-106955789D01*
X99752262Y-106859816D01*
X99879816Y-106732262D01*
X99975789Y-106579522D01*
X100035368Y-106409255D01*
X100035560Y-106407552D01*
X100055565Y-106230003D01*
X100055565Y-106229996D01*
X100035369Y-106050750D01*
X100035368Y-106050745D01*
X100004096Y-105961376D01*
X99975789Y-105880478D01*
X99879816Y-105727738D01*
X99752262Y-105600184D01*
X99599521Y-105504210D01*
X99429249Y-105444630D01*
X99302485Y-105430347D01*
X99238071Y-105403280D01*
X99228688Y-105394808D01*
X99173367Y-105339487D01*
X99173365Y-105339485D01*
X99107750Y-105301602D01*
X99042136Y-105263719D01*
X98916352Y-105230016D01*
X98895766Y-105224500D01*
X98895765Y-105224500D01*
X92819742Y-105224500D01*
X92752703Y-105204815D01*
X92732061Y-105188181D01*
X92094285Y-104550405D01*
X92060800Y-104489082D01*
X92057966Y-104462724D01*
X92057966Y-103751486D01*
X92077651Y-103684447D01*
X92130455Y-103638692D01*
X92199613Y-103628748D01*
X92247939Y-103646493D01*
X92310475Y-103685788D01*
X92480745Y-103745368D01*
X92480750Y-103745369D01*
X92659996Y-103765565D01*
X92660000Y-103765565D01*
X92660004Y-103765565D01*
X92839249Y-103745369D01*
X92839252Y-103745368D01*
X92839255Y-103745368D01*
X93009522Y-103685789D01*
X93162262Y-103589816D01*
X93180259Y-103571819D01*
X93241582Y-103538334D01*
X93267940Y-103535500D01*
X108445764Y-103535500D01*
X108445766Y-103535500D01*
X108592135Y-103496281D01*
X108723365Y-103420515D01*
X109952061Y-102191819D01*
X110013384Y-102158334D01*
X110039742Y-102155500D01*
X111616302Y-102155500D01*
X111683341Y-102175185D01*
X111729096Y-102227989D01*
X111739040Y-102297147D01*
X111735569Y-102313432D01*
X111711311Y-102398694D01*
X111695936Y-102452730D01*
X111675340Y-102674999D01*
X111675340Y-102675000D01*
X111695936Y-102897273D01*
X111695937Y-102897276D01*
X111757023Y-103111975D01*
X111757026Y-103111981D01*
X111856526Y-103311804D01*
X111991051Y-103489944D01*
X112046039Y-103540072D01*
X112156017Y-103640330D01*
X112156024Y-103640334D01*
X112156025Y-103640335D01*
X112345804Y-103757841D01*
X112345805Y-103757841D01*
X112345808Y-103757843D01*
X112530452Y-103829374D01*
X112585851Y-103871946D01*
X112609442Y-103937713D01*
X112593731Y-104005793D01*
X112543707Y-104054572D01*
X112530461Y-104060621D01*
X112387216Y-104116115D01*
X112345810Y-104132156D01*
X112345804Y-104132158D01*
X112156025Y-104249664D01*
X112156015Y-104249671D01*
X111991051Y-104400055D01*
X111856526Y-104578195D01*
X111757026Y-104778018D01*
X111757023Y-104778024D01*
X111695937Y-104992723D01*
X111695936Y-104992726D01*
X111675340Y-105214999D01*
X111675340Y-105215000D01*
X111695936Y-105437273D01*
X111695937Y-105437276D01*
X111757023Y-105651975D01*
X111757026Y-105651981D01*
X111856526Y-105851804D01*
X111928358Y-105946926D01*
X111991050Y-106029943D01*
X112156017Y-106180330D01*
X112156024Y-106180334D01*
X112156025Y-106180335D01*
X112345804Y-106297841D01*
X112345805Y-106297841D01*
X112345808Y-106297843D01*
X112530452Y-106369374D01*
X112585851Y-106411946D01*
X112609442Y-106477713D01*
X112593731Y-106545793D01*
X112543707Y-106594572D01*
X112530461Y-106600621D01*
X112387216Y-106656115D01*
X112345810Y-106672156D01*
X112345804Y-106672158D01*
X112156025Y-106789664D01*
X112156015Y-106789671D01*
X111991051Y-106940055D01*
X111856526Y-107118195D01*
X111757026Y-107318018D01*
X111757023Y-107318024D01*
X111695937Y-107532723D01*
X111695936Y-107532726D01*
X111675340Y-107754999D01*
X111675340Y-107755000D01*
X111695936Y-107977273D01*
X111695937Y-107977276D01*
X111757023Y-108191975D01*
X111757026Y-108191981D01*
X111825999Y-108330498D01*
X111856526Y-108391804D01*
X111991050Y-108569943D01*
X112156017Y-108720330D01*
X112156024Y-108720334D01*
X112156025Y-108720335D01*
X112345804Y-108837841D01*
X112345805Y-108837841D01*
X112345808Y-108837843D01*
X112530452Y-108909374D01*
X112585851Y-108951946D01*
X112609442Y-109017713D01*
X112593731Y-109085793D01*
X112543707Y-109134572D01*
X112530461Y-109140621D01*
X112387216Y-109196115D01*
X112345810Y-109212156D01*
X112345804Y-109212158D01*
X112156025Y-109329664D01*
X112156015Y-109329671D01*
X111991051Y-109480055D01*
X111856526Y-109658195D01*
X111757026Y-109858018D01*
X111757023Y-109858024D01*
X111695937Y-110072723D01*
X111695936Y-110072726D01*
X111675340Y-110294999D01*
X111675340Y-110295000D01*
X111695936Y-110517273D01*
X111695937Y-110517276D01*
X111757023Y-110731975D01*
X111757026Y-110731981D01*
X111829078Y-110876681D01*
X111856526Y-110931804D01*
X111991050Y-111109943D01*
X112156017Y-111260330D01*
X112156024Y-111260334D01*
X112156025Y-111260335D01*
X112345804Y-111377841D01*
X112345805Y-111377841D01*
X112345808Y-111377843D01*
X112530452Y-111449374D01*
X112585851Y-111491946D01*
X112609442Y-111557713D01*
X112593731Y-111625793D01*
X112543707Y-111674572D01*
X112530461Y-111680621D01*
X112387216Y-111736115D01*
X112345810Y-111752156D01*
X112345804Y-111752158D01*
X112156025Y-111869664D01*
X112156015Y-111869671D01*
X111991051Y-112020055D01*
X111856526Y-112198195D01*
X111757026Y-112398018D01*
X111757023Y-112398024D01*
X111695937Y-112612723D01*
X111695936Y-112612726D01*
X111675340Y-112834999D01*
X111675340Y-112835000D01*
X111695936Y-113057273D01*
X111695937Y-113057276D01*
X111757023Y-113271975D01*
X111757026Y-113271980D01*
X111856526Y-113471804D01*
X111991050Y-113649943D01*
X112156017Y-113800330D01*
X112156024Y-113800334D01*
X112156025Y-113800335D01*
X112345804Y-113917841D01*
X112345805Y-113917841D01*
X112345808Y-113917843D01*
X112530452Y-113989374D01*
X112585851Y-114031946D01*
X112609442Y-114097713D01*
X112593731Y-114165793D01*
X112543707Y-114214572D01*
X112530461Y-114220621D01*
X112387216Y-114276115D01*
X112345810Y-114292156D01*
X112345804Y-114292158D01*
X112156025Y-114409664D01*
X112156015Y-114409671D01*
X111991051Y-114560055D01*
X111856526Y-114738195D01*
X111757026Y-114938018D01*
X111757023Y-114938024D01*
X111695937Y-115152723D01*
X111695936Y-115152726D01*
X111675340Y-115374999D01*
X111675340Y-115375000D01*
X111695936Y-115597273D01*
X111695937Y-115597276D01*
X111757023Y-115811975D01*
X111757026Y-115811981D01*
X111841005Y-115980634D01*
X111856526Y-116011804D01*
X111991050Y-116189943D01*
X112156017Y-116340330D01*
X112156024Y-116340334D01*
X112156025Y-116340335D01*
X112345804Y-116457841D01*
X112345805Y-116457841D01*
X112345808Y-116457843D01*
X112553961Y-116538482D01*
X112773387Y-116579500D01*
X112773389Y-116579500D01*
X112996611Y-116579500D01*
X112996613Y-116579500D01*
X113216039Y-116538482D01*
X113424192Y-116457843D01*
X113613983Y-116340330D01*
X113778950Y-116189943D01*
X113913474Y-116011804D01*
X114012974Y-115811980D01*
X114012974Y-115811977D01*
X114012976Y-115811975D01*
X114061793Y-115640397D01*
X114074063Y-115597274D01*
X114094660Y-115375000D01*
X114074063Y-115152726D01*
X114065191Y-115121544D01*
X114012976Y-114938024D01*
X114012973Y-114938018D01*
X113913474Y-114738196D01*
X113778950Y-114560057D01*
X113613983Y-114409670D01*
X113613979Y-114409667D01*
X113613974Y-114409664D01*
X113424195Y-114292158D01*
X113424186Y-114292154D01*
X113338430Y-114258932D01*
X113239547Y-114220625D01*
X113184148Y-114178054D01*
X113160557Y-114112288D01*
X113176268Y-114044207D01*
X113226292Y-113995428D01*
X113239538Y-113989378D01*
X113424192Y-113917843D01*
X113613983Y-113800330D01*
X113778950Y-113649943D01*
X113913474Y-113471804D01*
X114012974Y-113271980D01*
X114012974Y-113271977D01*
X114012976Y-113271975D01*
X114074062Y-113057276D01*
X114074063Y-113057273D01*
X114094660Y-112835000D01*
X114094660Y-112834999D01*
X114074063Y-112612726D01*
X114074062Y-112612723D01*
X114012976Y-112398024D01*
X114012973Y-112398018D01*
X113913474Y-112198196D01*
X113778950Y-112020057D01*
X113613983Y-111869670D01*
X113613979Y-111869667D01*
X113613974Y-111869664D01*
X113424195Y-111752158D01*
X113424186Y-111752154D01*
X113338430Y-111718932D01*
X113239547Y-111680625D01*
X113184148Y-111638054D01*
X113160557Y-111572288D01*
X113176268Y-111504207D01*
X113226292Y-111455428D01*
X113239538Y-111449378D01*
X113424192Y-111377843D01*
X113613983Y-111260330D01*
X113778950Y-111109943D01*
X113913474Y-110931804D01*
X114012974Y-110731980D01*
X114012974Y-110731977D01*
X114012976Y-110731975D01*
X114074062Y-110517276D01*
X114074063Y-110517273D01*
X114083614Y-110414209D01*
X114094660Y-110295000D01*
X114074063Y-110072726D01*
X114058421Y-110017749D01*
X114012976Y-109858024D01*
X114012973Y-109858018D01*
X113913474Y-109658196D01*
X113778950Y-109480057D01*
X113613983Y-109329670D01*
X113613979Y-109329667D01*
X113613974Y-109329664D01*
X113424195Y-109212158D01*
X113424186Y-109212154D01*
X113338430Y-109178932D01*
X113239547Y-109140625D01*
X113184148Y-109098054D01*
X113160557Y-109032288D01*
X113176268Y-108964207D01*
X113226292Y-108915428D01*
X113239538Y-108909378D01*
X113424192Y-108837843D01*
X113613983Y-108720330D01*
X113778950Y-108569943D01*
X113913474Y-108391804D01*
X114012974Y-108191980D01*
X114012974Y-108191977D01*
X114012976Y-108191975D01*
X114047954Y-108069036D01*
X114074063Y-107977274D01*
X114094660Y-107755000D01*
X114092602Y-107732796D01*
X114074063Y-107532726D01*
X114074062Y-107532723D01*
X114012976Y-107318024D01*
X114012973Y-107318018D01*
X113947172Y-107185871D01*
X113913474Y-107118196D01*
X113778950Y-106940057D01*
X113613983Y-106789670D01*
X113613979Y-106789667D01*
X113613974Y-106789664D01*
X113424195Y-106672158D01*
X113424186Y-106672154D01*
X113338430Y-106638932D01*
X113239547Y-106600625D01*
X113184148Y-106558054D01*
X113160557Y-106492288D01*
X113176268Y-106424207D01*
X113226292Y-106375428D01*
X113239538Y-106369378D01*
X113424192Y-106297843D01*
X113613983Y-106180330D01*
X113778950Y-106029943D01*
X113913474Y-105851804D01*
X114012974Y-105651980D01*
X114012974Y-105651977D01*
X114012976Y-105651975D01*
X114074062Y-105437276D01*
X114074063Y-105437273D01*
X114083745Y-105332795D01*
X114094660Y-105215000D01*
X114074063Y-104992726D01*
X114027261Y-104828232D01*
X114012976Y-104778024D01*
X114012973Y-104778018D01*
X113950827Y-104653211D01*
X113913474Y-104578196D01*
X113778950Y-104400057D01*
X113613983Y-104249670D01*
X113613979Y-104249667D01*
X113613974Y-104249664D01*
X113424195Y-104132158D01*
X113424186Y-104132154D01*
X113338430Y-104098932D01*
X113239547Y-104060625D01*
X113184148Y-104018054D01*
X113160557Y-103952288D01*
X113176268Y-103884207D01*
X113226292Y-103835428D01*
X113239538Y-103829378D01*
X113424192Y-103757843D01*
X113613983Y-103640330D01*
X113778950Y-103489943D01*
X113913474Y-103311804D01*
X114012974Y-103111980D01*
X114012974Y-103111977D01*
X114012976Y-103111975D01*
X114047954Y-102989036D01*
X114074063Y-102897274D01*
X114094660Y-102675000D01*
X114074063Y-102452726D01*
X114034431Y-102313433D01*
X114035019Y-102243566D01*
X114073286Y-102185108D01*
X114137083Y-102156618D01*
X114153698Y-102155500D01*
X115527060Y-102155500D01*
X115594099Y-102175185D01*
X115614741Y-102191819D01*
X115632738Y-102209816D01*
X115693345Y-102247898D01*
X115734101Y-102273507D01*
X115785478Y-102305789D01*
X115954165Y-102364815D01*
X115955745Y-102365368D01*
X115955750Y-102365369D01*
X116134996Y-102385565D01*
X116135000Y-102385565D01*
X116135004Y-102385565D01*
X116314249Y-102365369D01*
X116314252Y-102365368D01*
X116314255Y-102365368D01*
X116484522Y-102305789D01*
X116637262Y-102209816D01*
X116764816Y-102082262D01*
X116860789Y-101929522D01*
X116920368Y-101759255D01*
X116933550Y-101642262D01*
X116940565Y-101580003D01*
X116940565Y-101579996D01*
X116920369Y-101400750D01*
X116920368Y-101400745D01*
X116898937Y-101339500D01*
X116860789Y-101230478D01*
X116764816Y-101077738D01*
X116637262Y-100950184D01*
X116620209Y-100939469D01*
X116484523Y-100854211D01*
X116314254Y-100794631D01*
X116314249Y-100794630D01*
X116135004Y-100774435D01*
X116134996Y-100774435D01*
X115955750Y-100794630D01*
X115955745Y-100794631D01*
X115785476Y-100854211D01*
X115632737Y-100950184D01*
X115614741Y-100968181D01*
X115553418Y-101001666D01*
X115527060Y-101004500D01*
X113986776Y-101004500D01*
X113919737Y-100984815D01*
X113873982Y-100932011D01*
X113864038Y-100862853D01*
X113887822Y-100805773D01*
X113895963Y-100794992D01*
X113913474Y-100771804D01*
X114012974Y-100571980D01*
X114012974Y-100571977D01*
X114012976Y-100571975D01*
X114057863Y-100414210D01*
X114074063Y-100357274D01*
X114094660Y-100135000D01*
X114093463Y-100122087D01*
X114074063Y-99912726D01*
X114074062Y-99912723D01*
X114012976Y-99698024D01*
X114012973Y-99698018D01*
X114002769Y-99677526D01*
X113913474Y-99498196D01*
X113778950Y-99320057D01*
X113613983Y-99169670D01*
X113613979Y-99169667D01*
X113613974Y-99169664D01*
X113424195Y-99052158D01*
X113424186Y-99052154D01*
X113338430Y-99018932D01*
X113239547Y-98980625D01*
X113184148Y-98938054D01*
X113160557Y-98872288D01*
X113176268Y-98804207D01*
X113226292Y-98755428D01*
X113239538Y-98749378D01*
X113424192Y-98677843D01*
X113613983Y-98560330D01*
X113778950Y-98409943D01*
X113913474Y-98231804D01*
X114012974Y-98031980D01*
X114012974Y-98031977D01*
X114012976Y-98031975D01*
X114074062Y-97817276D01*
X114074063Y-97817273D01*
X114094660Y-97595000D01*
X114094660Y-97594999D01*
X114074063Y-97372726D01*
X114074062Y-97372723D01*
X114073144Y-97369498D01*
X114065191Y-97341544D01*
X114012976Y-97158024D01*
X114012973Y-97158018D01*
X113991133Y-97114158D01*
X113913474Y-96958196D01*
X113778950Y-96780057D01*
X113613983Y-96629670D01*
X113613979Y-96629667D01*
X113613974Y-96629664D01*
X113424195Y-96512158D01*
X113424186Y-96512154D01*
X113310976Y-96468297D01*
X113239547Y-96440625D01*
X113184148Y-96398054D01*
X113160557Y-96332288D01*
X113176268Y-96264207D01*
X113226292Y-96215428D01*
X113239538Y-96209378D01*
X113424192Y-96137843D01*
X113495901Y-96093442D01*
X113563260Y-96074886D01*
X113629960Y-96095694D01*
X113664278Y-96129976D01*
X113686845Y-96163750D01*
X113721063Y-96214960D01*
X113760537Y-96274038D01*
X113760540Y-96274041D01*
X115163181Y-97676680D01*
X115196666Y-97738003D01*
X115199500Y-97764361D01*
X115199500Y-99368695D01*
X115234103Y-99542658D01*
X115234106Y-99542667D01*
X115301983Y-99706540D01*
X115301990Y-99706553D01*
X115400535Y-99854034D01*
X115400538Y-99854038D01*
X115525961Y-99979461D01*
X115525965Y-99979464D01*
X115673446Y-100078009D01*
X115673459Y-100078016D01*
X115779853Y-100122085D01*
X115837334Y-100145894D01*
X115837336Y-100145894D01*
X115837341Y-100145896D01*
X116011304Y-100180499D01*
X116011307Y-100180500D01*
X116011309Y-100180500D01*
X116188693Y-100180500D01*
X116188694Y-100180499D01*
X116290811Y-100160187D01*
X116362658Y-100145896D01*
X116362661Y-100145894D01*
X116362666Y-100145894D01*
X116526547Y-100078013D01*
X116674035Y-99979464D01*
X116799464Y-99854035D01*
X116898013Y-99706547D01*
X116965894Y-99542666D01*
X117000500Y-99368691D01*
X117000500Y-97251309D01*
X116995194Y-97224632D01*
X116995194Y-97224630D01*
X116995194Y-97224629D01*
X116977518Y-97135769D01*
X116965895Y-97077334D01*
X116929260Y-96988890D01*
X116924147Y-96976547D01*
X116898015Y-96913457D01*
X116898014Y-96913455D01*
X116799465Y-96765966D01*
X116753747Y-96720248D01*
X116674035Y-96640536D01*
X115396819Y-95363319D01*
X115363334Y-95301996D01*
X115360500Y-95275638D01*
X115360500Y-94058934D01*
X115380185Y-93991895D01*
X115432989Y-93946140D01*
X115437013Y-93944387D01*
X115476547Y-93928013D01*
X115624035Y-93829464D01*
X115749464Y-93704035D01*
X115848013Y-93556547D01*
X115915894Y-93392666D01*
X115916063Y-93391819D01*
X115950499Y-93218695D01*
X115950500Y-93218693D01*
X115950500Y-93041306D01*
X115950499Y-93041304D01*
X115915896Y-92867341D01*
X115915893Y-92867332D01*
X115914522Y-92864023D01*
X115879721Y-92780003D01*
X115848016Y-92703459D01*
X115848009Y-92703446D01*
X115749464Y-92555965D01*
X115749461Y-92555961D01*
X115624038Y-92430538D01*
X115624034Y-92430535D01*
X115476553Y-92331990D01*
X115476540Y-92331983D01*
X115312667Y-92264106D01*
X115312658Y-92264103D01*
X115138694Y-92229500D01*
X115138691Y-92229500D01*
X114771309Y-92229500D01*
X114771306Y-92229500D01*
X114597341Y-92264103D01*
X114597332Y-92264106D01*
X114433459Y-92331983D01*
X114433446Y-92331990D01*
X114285957Y-92430540D01*
X114281477Y-92434217D01*
X114217164Y-92461524D01*
X114148298Y-92449725D01*
X114096743Y-92402568D01*
X114079351Y-92349796D01*
X114077700Y-92331983D01*
X114074063Y-92292726D01*
X114048871Y-92204184D01*
X114012976Y-92078024D01*
X114012973Y-92078018D01*
X114001256Y-92054487D01*
X113913474Y-91878196D01*
X113778950Y-91700057D01*
X113768409Y-91690448D01*
X113613984Y-91549671D01*
X113613974Y-91549664D01*
X113424195Y-91432158D01*
X113424186Y-91432154D01*
X113319776Y-91391706D01*
X113239547Y-91360625D01*
X113184148Y-91318054D01*
X113160557Y-91252288D01*
X113176268Y-91184207D01*
X113226292Y-91135428D01*
X113239538Y-91129378D01*
X113424192Y-91057843D01*
X113613983Y-90940330D01*
X113778950Y-90789943D01*
X113913474Y-90611804D01*
X114012974Y-90411980D01*
X114012974Y-90411977D01*
X114012976Y-90411975D01*
X114047954Y-90289036D01*
X114074063Y-90197274D01*
X114094660Y-89975000D01*
X114087896Y-89902011D01*
X114074063Y-89752726D01*
X114074062Y-89752723D01*
X114012976Y-89538024D01*
X114012973Y-89538018D01*
X113971884Y-89455500D01*
X113913474Y-89338196D01*
X113778950Y-89160057D01*
X113644111Y-89037135D01*
X116111500Y-89037135D01*
X116111500Y-91922870D01*
X116111501Y-91922876D01*
X116117908Y-91982483D01*
X116168202Y-92117328D01*
X116168206Y-92117335D01*
X116254452Y-92232544D01*
X116254455Y-92232547D01*
X116369664Y-92318793D01*
X116369671Y-92318797D01*
X116369674Y-92318798D01*
X116504517Y-92369091D01*
X116564127Y-92375500D01*
X116685500Y-92375499D01*
X116752539Y-92395183D01*
X116798294Y-92447987D01*
X116809500Y-92499499D01*
X116809500Y-94688695D01*
X116844103Y-94862658D01*
X116844106Y-94862667D01*
X116911983Y-95026540D01*
X116911990Y-95026553D01*
X117010535Y-95174034D01*
X117010538Y-95174038D01*
X117135961Y-95299461D01*
X117135965Y-95299464D01*
X117283446Y-95398009D01*
X117283459Y-95398016D01*
X117403747Y-95447840D01*
X117447334Y-95465894D01*
X117447336Y-95465894D01*
X117447341Y-95465896D01*
X117621304Y-95500499D01*
X117621307Y-95500500D01*
X117621309Y-95500500D01*
X117798693Y-95500500D01*
X117798694Y-95500499D01*
X117856682Y-95488964D01*
X117972658Y-95465896D01*
X117972661Y-95465894D01*
X117972666Y-95465894D01*
X118136547Y-95398013D01*
X118284035Y-95299464D01*
X118409464Y-95174035D01*
X118508013Y-95026547D01*
X118575894Y-94862666D01*
X118578347Y-94850337D01*
X118610499Y-94688695D01*
X118610500Y-94688693D01*
X118610500Y-92459655D01*
X118630185Y-92392616D01*
X118682989Y-92346861D01*
X118691168Y-92343473D01*
X118757326Y-92318798D01*
X118757326Y-92318797D01*
X118757331Y-92318796D01*
X118872546Y-92232546D01*
X118958796Y-92117331D01*
X119009091Y-91982483D01*
X119015500Y-91922873D01*
X119015499Y-89037128D01*
X119009091Y-88977517D01*
X118984143Y-88910629D01*
X118958797Y-88842671D01*
X118958793Y-88842664D01*
X118872547Y-88727455D01*
X118872544Y-88727452D01*
X118757335Y-88641206D01*
X118757328Y-88641202D01*
X118622482Y-88590908D01*
X118622483Y-88590908D01*
X118562883Y-88584501D01*
X118562881Y-88584500D01*
X118562873Y-88584500D01*
X118562864Y-88584500D01*
X116564129Y-88584500D01*
X116564123Y-88584501D01*
X116504516Y-88590908D01*
X116369671Y-88641202D01*
X116369664Y-88641206D01*
X116254455Y-88727452D01*
X116254452Y-88727455D01*
X116168206Y-88842664D01*
X116168202Y-88842671D01*
X116117908Y-88977517D01*
X116111501Y-89037116D01*
X116111501Y-89037123D01*
X116111500Y-89037135D01*
X113644111Y-89037135D01*
X113613983Y-89009670D01*
X113613979Y-89009667D01*
X113613974Y-89009664D01*
X113424195Y-88892158D01*
X113424186Y-88892154D01*
X113338430Y-88858932D01*
X113239547Y-88820625D01*
X113184148Y-88778054D01*
X113160557Y-88712288D01*
X113176268Y-88644207D01*
X113226292Y-88595428D01*
X113239538Y-88589378D01*
X113424192Y-88517843D01*
X113613983Y-88400330D01*
X113778950Y-88249943D01*
X113913474Y-88071804D01*
X114012974Y-87871980D01*
X114012974Y-87871977D01*
X114012976Y-87871975D01*
X114056268Y-87719816D01*
X114074063Y-87657274D01*
X114094660Y-87435000D01*
X114074063Y-87212726D01*
X114065191Y-87181544D01*
X114012976Y-86998024D01*
X114012973Y-86998018D01*
X113963528Y-86898719D01*
X113913474Y-86798196D01*
X113778950Y-86620057D01*
X113716159Y-86562816D01*
X113613984Y-86469671D01*
X113613974Y-86469664D01*
X113424195Y-86352158D01*
X113424189Y-86352156D01*
X113238855Y-86280357D01*
X113183457Y-86237786D01*
X113159866Y-86172019D01*
X113175577Y-86103939D01*
X113225601Y-86055160D01*
X113238859Y-86049105D01*
X113423964Y-85977395D01*
X113423968Y-85977393D01*
X113541233Y-85904785D01*
X112973585Y-85337137D01*
X113058694Y-85314333D01*
X113161306Y-85255090D01*
X113245090Y-85171306D01*
X113304333Y-85068694D01*
X113327138Y-84983585D01*
X113896716Y-85553163D01*
X113913046Y-85531541D01*
X114012501Y-85331808D01*
X114012506Y-85331795D01*
X114073570Y-85117181D01*
X114094158Y-84895000D01*
X114094158Y-84894999D01*
X114073570Y-84672818D01*
X114012506Y-84458204D01*
X114012501Y-84458191D01*
X113913044Y-84258455D01*
X113896717Y-84236834D01*
X113896716Y-84236834D01*
X113327137Y-84806413D01*
X113304333Y-84721306D01*
X113245090Y-84618694D01*
X113161306Y-84534910D01*
X113058694Y-84475667D01*
X112973584Y-84452861D01*
X113541233Y-83885213D01*
X113541232Y-83885212D01*
X113423971Y-83812607D01*
X113423965Y-83812604D01*
X113238858Y-83740894D01*
X113183456Y-83698321D01*
X113159866Y-83632554D01*
X113175577Y-83564474D01*
X113225601Y-83515695D01*
X113238837Y-83509649D01*
X113424192Y-83437843D01*
X113613983Y-83320330D01*
X113778950Y-83169943D01*
X113913474Y-82991804D01*
X114012974Y-82791980D01*
X114012974Y-82791977D01*
X114012976Y-82791975D01*
X114068519Y-82596758D01*
X114074063Y-82577274D01*
X114094660Y-82355000D01*
X114074063Y-82132726D01*
X114060072Y-82083551D01*
X114012976Y-81918024D01*
X114012973Y-81918018D01*
X113963528Y-81818719D01*
X113913474Y-81718196D01*
X113778950Y-81540057D01*
X113613983Y-81389670D01*
X113613979Y-81389667D01*
X113613974Y-81389664D01*
X113424195Y-81272158D01*
X113424186Y-81272154D01*
X113338430Y-81238932D01*
X113239547Y-81200625D01*
X113184148Y-81158054D01*
X113160557Y-81092288D01*
X113176268Y-81024207D01*
X113226292Y-80975428D01*
X113239538Y-80969378D01*
X113424192Y-80897843D01*
X113613983Y-80780330D01*
X113778950Y-80629943D01*
X113913474Y-80451804D01*
X114012974Y-80251980D01*
X114012974Y-80251977D01*
X114012976Y-80251975D01*
X114063382Y-80074814D01*
X114074063Y-80037274D01*
X114094660Y-79815000D01*
X114084868Y-79709334D01*
X114074063Y-79592726D01*
X114074062Y-79592723D01*
X114012976Y-79378024D01*
X114012973Y-79378018D01*
X113944622Y-79240750D01*
X113913474Y-79178196D01*
X113778950Y-79000057D01*
X113613983Y-78849670D01*
X113613979Y-78849667D01*
X113613974Y-78849664D01*
X113424195Y-78732158D01*
X113424186Y-78732154D01*
X113326242Y-78694211D01*
X113239547Y-78660625D01*
X113184148Y-78618054D01*
X113160557Y-78552288D01*
X113176268Y-78484207D01*
X113226292Y-78435428D01*
X113239538Y-78429378D01*
X113424192Y-78357843D01*
X113613983Y-78240330D01*
X113778950Y-78089943D01*
X113913474Y-77911804D01*
X114012974Y-77711980D01*
X114012974Y-77711977D01*
X114012976Y-77711975D01*
X114074062Y-77497276D01*
X114074063Y-77497273D01*
X114094660Y-77275000D01*
X114094660Y-77274999D01*
X114074063Y-77052726D01*
X114074062Y-77052723D01*
X114012976Y-76838024D01*
X114012973Y-76838018D01*
X113985228Y-76782299D01*
X113913474Y-76638196D01*
X113778950Y-76460057D01*
X113613983Y-76309670D01*
X113613979Y-76309667D01*
X113613974Y-76309664D01*
X113424195Y-76192158D01*
X113424186Y-76192154D01*
X113338430Y-76158932D01*
X113239547Y-76120625D01*
X113184148Y-76078054D01*
X113160557Y-76012288D01*
X113176268Y-75944207D01*
X113226292Y-75895428D01*
X113239538Y-75889378D01*
X113424192Y-75817843D01*
X113613983Y-75700330D01*
X113778950Y-75549943D01*
X113913474Y-75371804D01*
X114012974Y-75171980D01*
X114012974Y-75171977D01*
X114012976Y-75171975D01*
X114074062Y-74957276D01*
X114074063Y-74957273D01*
X114076176Y-74934476D01*
X114094660Y-74735000D01*
X114074063Y-74512726D01*
X114065099Y-74481219D01*
X114012976Y-74298024D01*
X114012973Y-74298018D01*
X113955217Y-74182028D01*
X113913474Y-74098196D01*
X113778950Y-73920057D01*
X113613983Y-73769670D01*
X113613979Y-73769667D01*
X113613974Y-73769664D01*
X113424195Y-73652158D01*
X113424186Y-73652154D01*
X113338430Y-73618932D01*
X113239547Y-73580625D01*
X113184148Y-73538054D01*
X113160557Y-73472288D01*
X113176268Y-73404207D01*
X113226292Y-73355428D01*
X113239538Y-73349378D01*
X113424192Y-73277843D01*
X113613983Y-73160330D01*
X113778950Y-73009943D01*
X113913474Y-72831804D01*
X114012974Y-72631980D01*
X114012974Y-72631977D01*
X114012976Y-72631975D01*
X114074062Y-72417276D01*
X114074063Y-72417273D01*
X114094660Y-72195000D01*
X114094660Y-72194999D01*
X114074063Y-71972726D01*
X114074062Y-71972723D01*
X114012976Y-71758024D01*
X114012973Y-71758018D01*
X113913474Y-71558196D01*
X113778950Y-71380057D01*
X113613983Y-71229670D01*
X113613979Y-71229667D01*
X113613974Y-71229664D01*
X113424195Y-71112158D01*
X113424189Y-71112156D01*
X113238855Y-71040357D01*
X113183457Y-70997786D01*
X113159866Y-70932019D01*
X113175577Y-70863939D01*
X113225601Y-70815160D01*
X113238859Y-70809105D01*
X113423964Y-70737395D01*
X113423968Y-70737393D01*
X113541233Y-70664785D01*
X112973585Y-70097137D01*
X113058694Y-70074333D01*
X113161306Y-70015090D01*
X113245090Y-69931306D01*
X113304333Y-69828694D01*
X113327138Y-69743585D01*
X113896716Y-70313163D01*
X113913046Y-70291541D01*
X114012501Y-70091808D01*
X114012506Y-70091795D01*
X114073570Y-69877181D01*
X114094158Y-69655000D01*
X114094158Y-69654999D01*
X114073570Y-69432818D01*
X114012506Y-69218204D01*
X114012501Y-69218191D01*
X113913044Y-69018455D01*
X113896717Y-68996834D01*
X113896716Y-68996834D01*
X113327137Y-69566413D01*
X113304333Y-69481306D01*
X113245090Y-69378694D01*
X113161306Y-69294910D01*
X113058694Y-69235667D01*
X112973584Y-69212861D01*
X113541233Y-68645213D01*
X113541232Y-68645212D01*
X113423971Y-68572607D01*
X113423965Y-68572604D01*
X113215904Y-68492002D01*
X112996565Y-68451000D01*
X112773435Y-68451000D01*
X112554095Y-68492002D01*
X112346033Y-68572605D01*
X112346026Y-68572609D01*
X112228766Y-68645212D01*
X112228765Y-68645213D01*
X112796415Y-69212861D01*
X112711306Y-69235667D01*
X112608694Y-69294910D01*
X112524910Y-69378694D01*
X112465667Y-69481306D01*
X112442861Y-69566414D01*
X111873282Y-68996834D01*
X111856948Y-69018466D01*
X111757500Y-69218186D01*
X111757493Y-69218204D01*
X111696429Y-69432818D01*
X111675842Y-69654999D01*
X111675842Y-69655000D01*
X111696429Y-69877181D01*
X111757493Y-70091795D01*
X111757498Y-70091808D01*
X111856953Y-70291541D01*
X111873281Y-70313163D01*
X111873282Y-70313163D01*
X112442861Y-69743584D01*
X112465667Y-69828694D01*
X112524910Y-69931306D01*
X112608694Y-70015090D01*
X112711306Y-70074333D01*
X112796414Y-70097137D01*
X112228765Y-70664785D01*
X112346034Y-70737394D01*
X112531141Y-70809105D01*
X112586542Y-70851678D01*
X112610133Y-70917445D01*
X112594422Y-70985525D01*
X112544398Y-71034304D01*
X112531147Y-71040355D01*
X112479431Y-71060391D01*
X112345810Y-71112155D01*
X112345804Y-71112158D01*
X112156025Y-71229664D01*
X112156015Y-71229671D01*
X111991051Y-71380055D01*
X111856526Y-71558195D01*
X111757026Y-71758018D01*
X111757023Y-71758024D01*
X111695937Y-71972723D01*
X111695936Y-71972726D01*
X111675340Y-72194999D01*
X111675340Y-72195000D01*
X111695936Y-72417273D01*
X111695937Y-72417276D01*
X111757023Y-72631975D01*
X111757026Y-72631981D01*
X111818428Y-72755293D01*
X111856526Y-72831804D01*
X111977807Y-72992407D01*
X111991051Y-73009944D01*
X112018029Y-73034538D01*
X112156017Y-73160330D01*
X112156024Y-73160334D01*
X112156025Y-73160335D01*
X112345804Y-73277841D01*
X112345805Y-73277841D01*
X112345808Y-73277843D01*
X112530452Y-73349374D01*
X112585851Y-73391946D01*
X112609442Y-73457713D01*
X112593731Y-73525793D01*
X112543707Y-73574572D01*
X112530461Y-73580621D01*
X112387216Y-73636115D01*
X112345810Y-73652156D01*
X112345804Y-73652158D01*
X112156025Y-73769664D01*
X112156015Y-73769671D01*
X111991051Y-73920055D01*
X111856526Y-74098195D01*
X111757030Y-74298009D01*
X111757025Y-74298022D01*
X111713714Y-74450244D01*
X111682129Y-74503990D01*
X108694767Y-77491351D01*
X108633444Y-77524836D01*
X108563752Y-77519852D01*
X108507819Y-77477980D01*
X108483402Y-77412516D01*
X108498254Y-77344243D01*
X108501146Y-77339228D01*
X108502285Y-77337352D01*
X108502299Y-77337334D01*
X108634502Y-77082195D01*
X108730732Y-76811430D01*
X108789196Y-76530084D01*
X108808806Y-76243398D01*
X108789196Y-75956712D01*
X108730732Y-75675366D01*
X108634503Y-75404604D01*
X108634504Y-75404604D01*
X108502299Y-75149462D01*
X108336585Y-74914697D01*
X108257952Y-74830503D01*
X108140451Y-74704690D01*
X107986527Y-74579464D01*
X107917544Y-74523342D01*
X107672015Y-74374032D01*
X107408461Y-74259556D01*
X107408459Y-74259555D01*
X107408456Y-74259554D01*
X107278976Y-74223275D01*
X107131762Y-74182028D01*
X107131757Y-74182027D01*
X107131756Y-74182027D01*
X106989416Y-74162462D01*
X106847077Y-74142898D01*
X106847076Y-74142898D01*
X106559720Y-74142898D01*
X106559719Y-74142898D01*
X106275040Y-74182027D01*
X106275033Y-74182028D01*
X106067259Y-74240243D01*
X105998340Y-74259554D01*
X105998337Y-74259554D01*
X105998334Y-74259556D01*
X105998333Y-74259556D01*
X105734780Y-74374032D01*
X105489251Y-74523342D01*
X105266348Y-74704687D01*
X105070210Y-74914697D01*
X104904496Y-75149462D01*
X104772292Y-75404604D01*
X104676065Y-75675360D01*
X104676064Y-75675363D01*
X104617599Y-75956717D01*
X104597990Y-76243398D01*
X104617599Y-76530078D01*
X104617599Y-76530082D01*
X104617600Y-76530084D01*
X104635776Y-76617552D01*
X104676064Y-76811432D01*
X104676065Y-76811435D01*
X104772292Y-77082191D01*
X104772291Y-77082191D01*
X104904496Y-77337333D01*
X105070210Y-77572098D01*
X105093349Y-77596873D01*
X105266345Y-77782106D01*
X105489251Y-77963453D01*
X105709332Y-78097288D01*
X105734780Y-78112763D01*
X105921635Y-78193924D01*
X105998340Y-78227242D01*
X106275040Y-78304769D01*
X106530531Y-78339886D01*
X106561618Y-78344159D01*
X106615796Y-78368496D01*
X106661807Y-78345758D01*
X106683201Y-78343898D01*
X106847077Y-78343898D01*
X106877768Y-78339679D01*
X107131756Y-78304769D01*
X107408456Y-78227242D01*
X107579105Y-78153119D01*
X107672015Y-78112763D01*
X107672018Y-78112761D01*
X107672023Y-78112759D01*
X107813900Y-78026481D01*
X107881404Y-78008468D01*
X107947935Y-78029811D01*
X107992364Y-78083735D01*
X108000588Y-78153119D01*
X107969994Y-78215934D01*
X107966007Y-78220111D01*
X107356779Y-78829339D01*
X107295456Y-78862824D01*
X107225764Y-78857840D01*
X107181417Y-78829339D01*
X107112262Y-78760184D01*
X106959523Y-78664211D01*
X106789254Y-78604631D01*
X106789249Y-78604630D01*
X106669318Y-78591118D01*
X106611904Y-78566993D01*
X106563141Y-78589630D01*
X106558616Y-78590224D01*
X106430750Y-78604630D01*
X106430745Y-78604631D01*
X106260476Y-78664211D01*
X106107737Y-78760184D01*
X106059741Y-78808181D01*
X105998418Y-78841666D01*
X105972060Y-78844500D01*
X103147940Y-78844500D01*
X103080901Y-78824815D01*
X103060259Y-78808181D01*
X103042262Y-78790184D01*
X102889523Y-78694211D01*
X102719254Y-78634631D01*
X102719249Y-78634630D01*
X102540004Y-78614435D01*
X102539996Y-78614435D01*
X102360750Y-78634630D01*
X102360745Y-78634631D01*
X102190476Y-78694211D01*
X102037737Y-78790184D01*
X101910184Y-78917737D01*
X101814211Y-79070476D01*
X101754631Y-79240745D01*
X101754630Y-79240750D01*
X101734435Y-79419996D01*
X101734435Y-79420003D01*
X101754630Y-79599249D01*
X101754631Y-79599254D01*
X101814211Y-79769523D01*
X101894749Y-79897697D01*
X101910184Y-79922262D01*
X102037738Y-80049816D01*
X102077519Y-80074812D01*
X102182060Y-80140500D01*
X102190478Y-80145789D01*
X102357441Y-80204212D01*
X102360745Y-80205368D01*
X102360750Y-80205369D01*
X102539996Y-80225565D01*
X102540000Y-80225565D01*
X102540004Y-80225565D01*
X102719249Y-80205369D01*
X102719252Y-80205368D01*
X102719255Y-80205368D01*
X102889522Y-80145789D01*
X103042262Y-80049816D01*
X103060259Y-80031819D01*
X103121582Y-79998334D01*
X103147940Y-79995500D01*
X105891257Y-79995500D01*
X105958296Y-80015185D01*
X106004051Y-80067989D01*
X106013995Y-80137147D01*
X105984970Y-80200703D01*
X105978938Y-80207181D01*
X104729193Y-81456926D01*
X104729193Y-81456927D01*
X104664429Y-81521690D01*
X104603105Y-81555174D01*
X104533414Y-81550189D01*
X104520453Y-81544493D01*
X104482447Y-81525128D01*
X104482446Y-81525127D01*
X104482445Y-81525127D01*
X104317701Y-81471598D01*
X104317699Y-81471597D01*
X104317698Y-81471597D01*
X104186271Y-81450781D01*
X104146611Y-81444500D01*
X103973389Y-81444500D01*
X103933728Y-81450781D01*
X103802302Y-81471597D01*
X103637552Y-81525128D01*
X103483211Y-81603768D01*
X103403256Y-81661859D01*
X103343072Y-81705586D01*
X103343070Y-81705588D01*
X103343069Y-81705588D01*
X103220588Y-81828069D01*
X103220581Y-81828078D01*
X103160317Y-81911023D01*
X103104987Y-81953689D01*
X103035374Y-81959667D01*
X102973579Y-81927061D01*
X102959683Y-81911023D01*
X102899418Y-81828078D01*
X102899414Y-81828072D01*
X102776928Y-81705586D01*
X102636788Y-81603768D01*
X102482445Y-81525127D01*
X102317701Y-81471598D01*
X102317699Y-81471597D01*
X102317698Y-81471597D01*
X102186271Y-81450781D01*
X102146611Y-81444500D01*
X101973389Y-81444500D01*
X101933728Y-81450781D01*
X101802302Y-81471597D01*
X101637552Y-81525128D01*
X101483211Y-81603768D01*
X101403256Y-81661859D01*
X101343072Y-81705586D01*
X101343070Y-81705588D01*
X101343069Y-81705588D01*
X101220588Y-81828069D01*
X101220581Y-81828078D01*
X101160317Y-81911023D01*
X101104987Y-81953689D01*
X101035374Y-81959667D01*
X100973579Y-81927061D01*
X100959683Y-81911023D01*
X100899418Y-81828078D01*
X100899414Y-81828072D01*
X100776928Y-81705586D01*
X100636788Y-81603768D01*
X100482445Y-81525127D01*
X100317701Y-81471598D01*
X100317699Y-81471597D01*
X100317698Y-81471597D01*
X100186271Y-81450781D01*
X100146611Y-81444500D01*
X99973389Y-81444500D01*
X99933728Y-81450781D01*
X99802302Y-81471597D01*
X99637552Y-81525128D01*
X99483211Y-81603768D01*
X99403256Y-81661859D01*
X99343072Y-81705586D01*
X99343070Y-81705588D01*
X99343069Y-81705588D01*
X99220588Y-81828069D01*
X99220581Y-81828078D01*
X99160317Y-81911023D01*
X99104987Y-81953689D01*
X99035374Y-81959667D01*
X98973579Y-81927061D01*
X98959683Y-81911023D01*
X98899418Y-81828078D01*
X98899414Y-81828072D01*
X98776928Y-81705586D01*
X98636788Y-81603768D01*
X98482445Y-81525127D01*
X98317701Y-81471598D01*
X98317699Y-81471597D01*
X98317698Y-81471597D01*
X98186271Y-81450781D01*
X98146611Y-81444500D01*
X97973389Y-81444500D01*
X97933728Y-81450781D01*
X97802302Y-81471597D01*
X97637552Y-81525128D01*
X97483211Y-81603768D01*
X97403256Y-81661859D01*
X97343072Y-81705586D01*
X97343070Y-81705588D01*
X97343069Y-81705588D01*
X97220588Y-81828069D01*
X97220581Y-81828078D01*
X97160317Y-81911023D01*
X97104987Y-81953689D01*
X97035374Y-81959667D01*
X96973579Y-81927061D01*
X96959683Y-81911023D01*
X96899418Y-81828078D01*
X96899414Y-81828072D01*
X96776928Y-81705586D01*
X96636788Y-81603768D01*
X96482445Y-81525127D01*
X96317701Y-81471598D01*
X96317699Y-81471597D01*
X96317698Y-81471597D01*
X96186271Y-81450781D01*
X96146611Y-81444500D01*
X95992823Y-81444500D01*
X95925784Y-81424815D01*
X95880029Y-81372011D01*
X95870085Y-81302853D01*
X95875781Y-81279545D01*
X95882975Y-81258984D01*
X95935368Y-81109255D01*
X95946332Y-81011946D01*
X95955565Y-80930003D01*
X95955565Y-80929996D01*
X95935369Y-80750750D01*
X95935368Y-80750745D01*
X95922301Y-80713402D01*
X95875789Y-80580478D01*
X95779816Y-80427738D01*
X95652262Y-80300184D01*
X95499524Y-80204212D01*
X95499523Y-80204211D01*
X95432507Y-80180761D01*
X95385782Y-80151401D01*
X94173868Y-78939487D01*
X94173866Y-78939485D01*
X94084238Y-78887738D01*
X94042637Y-78863719D01*
X93960332Y-78841666D01*
X93896267Y-78824500D01*
X93896266Y-78824500D01*
X90909742Y-78824500D01*
X90842703Y-78804815D01*
X90822061Y-78788181D01*
X90271819Y-78237939D01*
X90238334Y-78176616D01*
X90235500Y-78150258D01*
X90235500Y-76243398D01*
X91597990Y-76243398D01*
X91617599Y-76530078D01*
X91617599Y-76530082D01*
X91617600Y-76530084D01*
X91635776Y-76617552D01*
X91676064Y-76811432D01*
X91676065Y-76811435D01*
X91772292Y-77082191D01*
X91772291Y-77082191D01*
X91904496Y-77337333D01*
X92070210Y-77572098D01*
X92093349Y-77596873D01*
X92266345Y-77782106D01*
X92489251Y-77963453D01*
X92709332Y-78097288D01*
X92734780Y-78112763D01*
X92921635Y-78193924D01*
X92998340Y-78227242D01*
X93275040Y-78304769D01*
X93525318Y-78339169D01*
X93559719Y-78343898D01*
X93559720Y-78343898D01*
X93847077Y-78343898D01*
X93877768Y-78339679D01*
X94131756Y-78304769D01*
X94408456Y-78227242D01*
X94579105Y-78153119D01*
X94672015Y-78112763D01*
X94672018Y-78112761D01*
X94672023Y-78112759D01*
X94917545Y-77963453D01*
X95140451Y-77782106D01*
X95336587Y-77572096D01*
X95502299Y-77337334D01*
X95634502Y-77082195D01*
X95730732Y-76811430D01*
X95789196Y-76530084D01*
X95808806Y-76243398D01*
X95789196Y-75956712D01*
X95730732Y-75675366D01*
X95634503Y-75404604D01*
X95634504Y-75404604D01*
X95502299Y-75149462D01*
X95336585Y-74914697D01*
X95257952Y-74830503D01*
X95140451Y-74704690D01*
X94986527Y-74579464D01*
X94917544Y-74523342D01*
X94672015Y-74374032D01*
X94408461Y-74259556D01*
X94408459Y-74259555D01*
X94408456Y-74259554D01*
X94278976Y-74223275D01*
X94131762Y-74182028D01*
X94131757Y-74182027D01*
X94131756Y-74182027D01*
X93989416Y-74162462D01*
X93847077Y-74142898D01*
X93847076Y-74142898D01*
X93559720Y-74142898D01*
X93559719Y-74142898D01*
X93275040Y-74182027D01*
X93275033Y-74182028D01*
X93067259Y-74240243D01*
X92998340Y-74259554D01*
X92998337Y-74259554D01*
X92998334Y-74259556D01*
X92998333Y-74259556D01*
X92734780Y-74374032D01*
X92489251Y-74523342D01*
X92266348Y-74704687D01*
X92070210Y-74914697D01*
X91904496Y-75149462D01*
X91772292Y-75404604D01*
X91676065Y-75675360D01*
X91676064Y-75675363D01*
X91617599Y-75956717D01*
X91597990Y-76243398D01*
X90235500Y-76243398D01*
X90235500Y-73781304D01*
X101379500Y-73781304D01*
X101379500Y-73958695D01*
X101414103Y-74132658D01*
X101414106Y-74132667D01*
X101481983Y-74296540D01*
X101481990Y-74296553D01*
X101580535Y-74444034D01*
X101580538Y-74444038D01*
X101705961Y-74569461D01*
X101705965Y-74569464D01*
X101853446Y-74668009D01*
X101853459Y-74668016D01*
X101941995Y-74704688D01*
X102017334Y-74735894D01*
X102017336Y-74735894D01*
X102017341Y-74735896D01*
X102191304Y-74770499D01*
X102191307Y-74770500D01*
X102191309Y-74770500D01*
X103468823Y-74770500D01*
X103493013Y-74772882D01*
X103531306Y-74780499D01*
X103531307Y-74780500D01*
X103531308Y-74780500D01*
X104128693Y-74780500D01*
X104128694Y-74780499D01*
X104302666Y-74745895D01*
X104402142Y-74704690D01*
X104466547Y-74678013D01*
X104554959Y-74618936D01*
X104614036Y-74579464D01*
X105589464Y-73604035D01*
X105611191Y-73571518D01*
X105645295Y-73520479D01*
X105645295Y-73520478D01*
X105688013Y-73456547D01*
X105711642Y-73399500D01*
X105755895Y-73292666D01*
X105790500Y-73118691D01*
X105790500Y-72941308D01*
X105790500Y-67371309D01*
X105790500Y-67371306D01*
X105790499Y-67371304D01*
X105755896Y-67197341D01*
X105755893Y-67197332D01*
X105746860Y-67175525D01*
X105738923Y-67156363D01*
X105688016Y-67033459D01*
X105688009Y-67033446D01*
X105589464Y-66885965D01*
X105589461Y-66885961D01*
X105464038Y-66760538D01*
X105464034Y-66760535D01*
X105316553Y-66661990D01*
X105316540Y-66661983D01*
X105152667Y-66594106D01*
X105152658Y-66594103D01*
X104978694Y-66559500D01*
X104978691Y-66559500D01*
X104801309Y-66559500D01*
X104801306Y-66559500D01*
X104627341Y-66594103D01*
X104627332Y-66594106D01*
X104463459Y-66661983D01*
X104463446Y-66661990D01*
X104315965Y-66760535D01*
X104315961Y-66760538D01*
X104190538Y-66885961D01*
X104190535Y-66885965D01*
X104091990Y-67033446D01*
X104091983Y-67033459D01*
X104024106Y-67197332D01*
X104024103Y-67197341D01*
X103989500Y-67371304D01*
X103989500Y-72605638D01*
X103969815Y-72672677D01*
X103953181Y-72693319D01*
X103713319Y-72933181D01*
X103651996Y-72966666D01*
X103625638Y-72969500D01*
X102191306Y-72969500D01*
X102017341Y-73004103D01*
X102017332Y-73004106D01*
X101853459Y-73071983D01*
X101853446Y-73071990D01*
X101705965Y-73170535D01*
X101705961Y-73170538D01*
X101580538Y-73295961D01*
X101580535Y-73295965D01*
X101481990Y-73443446D01*
X101481983Y-73443459D01*
X101414106Y-73607332D01*
X101414103Y-73607341D01*
X101379500Y-73781304D01*
X90235500Y-73781304D01*
X90235500Y-70534236D01*
X90235500Y-70534234D01*
X90207920Y-70431303D01*
X94639500Y-70431303D01*
X94639500Y-70608696D01*
X94674103Y-70782658D01*
X94674105Y-70782666D01*
X94741988Y-70946548D01*
X94840534Y-71094034D01*
X94840540Y-71094041D01*
X94965958Y-71219459D01*
X94965965Y-71219465D01*
X95113451Y-71318011D01*
X95113452Y-71318011D01*
X95113453Y-71318012D01*
X95277334Y-71385895D01*
X95451303Y-71420499D01*
X95451307Y-71420500D01*
X95451308Y-71420500D01*
X95628693Y-71420500D01*
X95628694Y-71420499D01*
X95802666Y-71385895D01*
X95966547Y-71318012D01*
X96114036Y-71219464D01*
X97076680Y-70256818D01*
X97138003Y-70223334D01*
X97164361Y-70220500D01*
X98180978Y-70220500D01*
X98248017Y-70240185D01*
X98281295Y-70271613D01*
X98310586Y-70311928D01*
X98433072Y-70434414D01*
X98573212Y-70536232D01*
X98727555Y-70614873D01*
X98892299Y-70668402D01*
X99063389Y-70695500D01*
X99063390Y-70695500D01*
X99236610Y-70695500D01*
X99236611Y-70695500D01*
X99407701Y-70668402D01*
X99572445Y-70614873D01*
X99726788Y-70536232D01*
X99866928Y-70434414D01*
X99974472Y-70326869D01*
X100035791Y-70293387D01*
X100105483Y-70298371D01*
X100161417Y-70340242D01*
X100167688Y-70349456D01*
X100207285Y-70413652D01*
X100207288Y-70413656D01*
X100331344Y-70537712D01*
X100480666Y-70629814D01*
X100647203Y-70684999D01*
X100749991Y-70695500D01*
X101550008Y-70695499D01*
X101550016Y-70695498D01*
X101550019Y-70695498D01*
X101606302Y-70689748D01*
X101652797Y-70684999D01*
X101819334Y-70629814D01*
X101968656Y-70537712D01*
X102092712Y-70413656D01*
X102184814Y-70264334D01*
X102239999Y-70097797D01*
X102250500Y-69995009D01*
X102250499Y-68644992D01*
X102245234Y-68593455D01*
X102239999Y-68542203D01*
X102239998Y-68542200D01*
X102223364Y-68492002D01*
X102184814Y-68375666D01*
X102092712Y-68226344D01*
X101968656Y-68102288D01*
X101819334Y-68010186D01*
X101652797Y-67955001D01*
X101652795Y-67955000D01*
X101550010Y-67944500D01*
X100749998Y-67944500D01*
X100749980Y-67944501D01*
X100647203Y-67955000D01*
X100647200Y-67955001D01*
X100480668Y-68010185D01*
X100480663Y-68010187D01*
X100331342Y-68102289D01*
X100262181Y-68171451D01*
X100200858Y-68204936D01*
X100131166Y-68199952D01*
X100075233Y-68158080D01*
X100050816Y-68092616D01*
X100050500Y-68083770D01*
X100050500Y-66584361D01*
X100070185Y-66517322D01*
X100086819Y-66496680D01*
X100316680Y-66266819D01*
X100378003Y-66233334D01*
X100404361Y-66230500D01*
X102688693Y-66230500D01*
X102688694Y-66230499D01*
X102753463Y-66217616D01*
X102862658Y-66195896D01*
X102862661Y-66195894D01*
X102862666Y-66195894D01*
X103002535Y-66137958D01*
X103026540Y-66128016D01*
X103026540Y-66128015D01*
X103026547Y-66128013D01*
X103174035Y-66029464D01*
X103299464Y-65904035D01*
X103398013Y-65756547D01*
X103465894Y-65592666D01*
X103467228Y-65585964D01*
X103500499Y-65418695D01*
X103500500Y-65418693D01*
X103500500Y-65241306D01*
X103500499Y-65241304D01*
X103465896Y-65067341D01*
X103465893Y-65067332D01*
X103398016Y-64903459D01*
X103398009Y-64903446D01*
X103299464Y-64755965D01*
X103299461Y-64755961D01*
X103174037Y-64630537D01*
X103174034Y-64630535D01*
X103026553Y-64531990D01*
X103026540Y-64531983D01*
X102862667Y-64464106D01*
X102862658Y-64464103D01*
X102688694Y-64429500D01*
X102688691Y-64429500D01*
X100068692Y-64429500D01*
X99891308Y-64429500D01*
X99891306Y-64429500D01*
X99717340Y-64464104D01*
X99717332Y-64464106D01*
X99553459Y-64531983D01*
X99553446Y-64531990D01*
X99405966Y-64630534D01*
X99405964Y-64630537D01*
X98450540Y-65585958D01*
X98450536Y-65585964D01*
X98446059Y-65592666D01*
X98444993Y-65594261D01*
X98444992Y-65594262D01*
X98351990Y-65733447D01*
X98351983Y-65733460D01*
X98339115Y-65764529D01*
X98339115Y-65764530D01*
X98284105Y-65897333D01*
X98284103Y-65897341D01*
X98252586Y-66055785D01*
X98252587Y-66055786D01*
X98249500Y-66071307D01*
X98249500Y-68295500D01*
X98229815Y-68362539D01*
X98177011Y-68408294D01*
X98125500Y-68419500D01*
X96651306Y-68419500D01*
X96567520Y-68436166D01*
X96525626Y-68444500D01*
X96492949Y-68451000D01*
X96477333Y-68454106D01*
X96477332Y-68454106D01*
X96313459Y-68521983D01*
X96313446Y-68521990D01*
X96165966Y-68620534D01*
X96165964Y-68620537D01*
X94840540Y-69945958D01*
X94840534Y-69945965D01*
X94741988Y-70093451D01*
X94674105Y-70257333D01*
X94674103Y-70257341D01*
X94639500Y-70431303D01*
X90207920Y-70431303D01*
X90196281Y-70387865D01*
X90120515Y-70256635D01*
X90013365Y-70149485D01*
X89058365Y-69194485D01*
X88927135Y-69118719D01*
X88814790Y-69088616D01*
X88781405Y-69079671D01*
X88721745Y-69043306D01*
X88691216Y-68980459D01*
X88689499Y-68959896D01*
X88689499Y-68903129D01*
X88689498Y-68903123D01*
X88689497Y-68903116D01*
X88683091Y-68843517D01*
X88680620Y-68836893D01*
X88632797Y-68708671D01*
X88632793Y-68708664D01*
X88546547Y-68593455D01*
X88546544Y-68593452D01*
X88431335Y-68507206D01*
X88431328Y-68507202D01*
X88296482Y-68456908D01*
X88296483Y-68456908D01*
X88236883Y-68450501D01*
X88236881Y-68450500D01*
X88236873Y-68450500D01*
X88236864Y-68450500D01*
X86733129Y-68450500D01*
X86733123Y-68450501D01*
X86673516Y-68456908D01*
X86538671Y-68507202D01*
X86538664Y-68507206D01*
X86423455Y-68593452D01*
X86423452Y-68593455D01*
X86337206Y-68708664D01*
X86337202Y-68708671D01*
X86286908Y-68843517D01*
X86280501Y-68903116D01*
X86280501Y-68903123D01*
X86280500Y-68903135D01*
X86280500Y-70406870D01*
X86280501Y-70406876D01*
X86286908Y-70466483D01*
X86337202Y-70601328D01*
X86337206Y-70601335D01*
X86423452Y-70716544D01*
X86423455Y-70716547D01*
X86538664Y-70802793D01*
X86538671Y-70802797D01*
X86673517Y-70853091D01*
X86673516Y-70853091D01*
X86680444Y-70853835D01*
X86733127Y-70859500D01*
X86934649Y-70859499D01*
X87001687Y-70879183D01*
X87047442Y-70931987D01*
X87057386Y-71001145D01*
X87028361Y-71064701D01*
X86979445Y-71099124D01*
X86945819Y-71112151D01*
X86945804Y-71112158D01*
X86756025Y-71229664D01*
X86756015Y-71229671D01*
X86591051Y-71380055D01*
X86456526Y-71558195D01*
X86357026Y-71758018D01*
X86357023Y-71758024D01*
X86295937Y-71972723D01*
X86295936Y-71972726D01*
X86275340Y-72194999D01*
X86275340Y-72195000D01*
X86295936Y-72417273D01*
X86295937Y-72417276D01*
X86357023Y-72631975D01*
X86357026Y-72631981D01*
X86418428Y-72755293D01*
X86456526Y-72831804D01*
X86577807Y-72992407D01*
X86591051Y-73009944D01*
X86618029Y-73034538D01*
X86756017Y-73160330D01*
X86756024Y-73160334D01*
X86756025Y-73160335D01*
X86945804Y-73277841D01*
X86945805Y-73277841D01*
X86945808Y-73277843D01*
X87130452Y-73349374D01*
X87185851Y-73391946D01*
X87209442Y-73457713D01*
X87193731Y-73525793D01*
X87143707Y-73574572D01*
X87130461Y-73580621D01*
X86987216Y-73636115D01*
X86945810Y-73652156D01*
X86945804Y-73652158D01*
X86756025Y-73769664D01*
X86756015Y-73769671D01*
X86591051Y-73920055D01*
X86456526Y-74098195D01*
X86357026Y-74298018D01*
X86357023Y-74298024D01*
X86295937Y-74512723D01*
X86295936Y-74512726D01*
X86275340Y-74734999D01*
X86275340Y-74735000D01*
X86295936Y-74957273D01*
X86295937Y-74957276D01*
X86357023Y-75171975D01*
X86357026Y-75171981D01*
X86400439Y-75259166D01*
X86456526Y-75371804D01*
X86591050Y-75549943D01*
X86756017Y-75700330D01*
X86756024Y-75700334D01*
X86756025Y-75700335D01*
X86945804Y-75817841D01*
X86945805Y-75817841D01*
X86945808Y-75817843D01*
X87130452Y-75889374D01*
X87185851Y-75931946D01*
X87209442Y-75997713D01*
X87193731Y-76065793D01*
X87143707Y-76114572D01*
X87130461Y-76120621D01*
X86987216Y-76176115D01*
X86945810Y-76192156D01*
X86945804Y-76192158D01*
X86756025Y-76309664D01*
X86756015Y-76309671D01*
X86591051Y-76460055D01*
X86456526Y-76638195D01*
X86357026Y-76838018D01*
X86357023Y-76838024D01*
X86295937Y-77052723D01*
X86295936Y-77052726D01*
X86275340Y-77274999D01*
X86275340Y-77275000D01*
X86295936Y-77497273D01*
X86295937Y-77497276D01*
X86357023Y-77711975D01*
X86357026Y-77711981D01*
X86432956Y-77864469D01*
X86456526Y-77911804D01*
X86591050Y-78089943D01*
X86756017Y-78240330D01*
X86756024Y-78240334D01*
X86756025Y-78240335D01*
X86945804Y-78357841D01*
X86945805Y-78357841D01*
X86945808Y-78357843D01*
X87130452Y-78429374D01*
X87185851Y-78471946D01*
X87209442Y-78537713D01*
X87193731Y-78605793D01*
X87143707Y-78654572D01*
X87130461Y-78660621D01*
X86987216Y-78716115D01*
X86945810Y-78732156D01*
X86945804Y-78732158D01*
X86756025Y-78849664D01*
X86756015Y-78849671D01*
X86591051Y-79000055D01*
X86456526Y-79178195D01*
X86357026Y-79378018D01*
X86357023Y-79378024D01*
X86295937Y-79592723D01*
X86295936Y-79592726D01*
X86275340Y-79814999D01*
X86275340Y-79815000D01*
X86295936Y-80037273D01*
X86295937Y-80037276D01*
X86357023Y-80251975D01*
X86357026Y-80251981D01*
X86432224Y-80402999D01*
X86456526Y-80451804D01*
X86554264Y-80581231D01*
X86591051Y-80629944D01*
X86623882Y-80659873D01*
X86756017Y-80780330D01*
X86756024Y-80780334D01*
X86756025Y-80780335D01*
X86945804Y-80897841D01*
X86945805Y-80897841D01*
X86945808Y-80897843D01*
X87130452Y-80969374D01*
X87185851Y-81011946D01*
X87209442Y-81077713D01*
X87193731Y-81145793D01*
X87143707Y-81194572D01*
X87130461Y-81200621D01*
X86987216Y-81256115D01*
X86945810Y-81272156D01*
X86945804Y-81272158D01*
X86756025Y-81389664D01*
X86756015Y-81389671D01*
X86591051Y-81540055D01*
X86456526Y-81718195D01*
X86357026Y-81918018D01*
X86357023Y-81918024D01*
X86295937Y-82132723D01*
X86295936Y-82132726D01*
X86275340Y-82354999D01*
X86275340Y-82355000D01*
X86295936Y-82577273D01*
X86295937Y-82577276D01*
X86357023Y-82791975D01*
X86357024Y-82791977D01*
X86378561Y-82835229D01*
X86390821Y-82904015D01*
X86363947Y-82968509D01*
X86306471Y-83008237D01*
X86267560Y-83014500D01*
X85724233Y-83014500D01*
X85577863Y-83053719D01*
X85446635Y-83129485D01*
X85446632Y-83129487D01*
X76671310Y-91904808D01*
X76609987Y-91938293D01*
X76597513Y-91940347D01*
X76470750Y-91954630D01*
X76300478Y-92014210D01*
X76147737Y-92110184D01*
X76020184Y-92237737D01*
X75924211Y-92390476D01*
X75864631Y-92560745D01*
X75864630Y-92560750D01*
X75844435Y-92739996D01*
X70708632Y-92739996D01*
X70708632Y-91717200D01*
X70708712Y-91712759D01*
X70714557Y-91549670D01*
X70746407Y-90661040D01*
X70746640Y-90656706D01*
X70821989Y-89606933D01*
X70822386Y-89602522D01*
X70832412Y-89509601D01*
X70935276Y-88556238D01*
X70935830Y-88551846D01*
X70937540Y-88540000D01*
X71086130Y-87510235D01*
X71086841Y-87505865D01*
X71114298Y-87354236D01*
X71274354Y-86470308D01*
X71275223Y-86465961D01*
X71499703Y-85437814D01*
X71500725Y-85433505D01*
X71501951Y-85428719D01*
X71761894Y-84414033D01*
X71763068Y-84409771D01*
X71771369Y-84381608D01*
X72060590Y-83400296D01*
X72061918Y-83396074D01*
X72395411Y-82397892D01*
X72396857Y-82393809D01*
X72765913Y-81408151D01*
X72767504Y-81404123D01*
X73171621Y-80432339D01*
X73173392Y-80428289D01*
X73612039Y-79471645D01*
X73613930Y-79467708D01*
X74086572Y-78527369D01*
X74088601Y-78523507D01*
X74594633Y-77600679D01*
X74596781Y-77596922D01*
X74809483Y-77239983D01*
X81274500Y-77239983D01*
X81274500Y-78040001D01*
X81274501Y-78040019D01*
X81285000Y-78142796D01*
X81285001Y-78142799D01*
X81317869Y-78241987D01*
X81340186Y-78309334D01*
X81432288Y-78458656D01*
X81556344Y-78582712D01*
X81613643Y-78618054D01*
X81620543Y-78622310D01*
X81667268Y-78674258D01*
X81678489Y-78743221D01*
X81650646Y-78807303D01*
X81643128Y-78815530D01*
X81535585Y-78923073D01*
X81433768Y-79063211D01*
X81355129Y-79217550D01*
X81355128Y-79217552D01*
X81355127Y-79217555D01*
X81304968Y-79371925D01*
X81301597Y-79382302D01*
X81276178Y-79542796D01*
X81274500Y-79553389D01*
X81274500Y-79726611D01*
X81301598Y-79897701D01*
X81355127Y-80062445D01*
X81433768Y-80216788D01*
X81535586Y-80356928D01*
X81658072Y-80479414D01*
X81798212Y-80581232D01*
X81952555Y-80659873D01*
X82117299Y-80713402D01*
X82288389Y-80740500D01*
X82288390Y-80740500D01*
X83011610Y-80740500D01*
X83011611Y-80740500D01*
X83182701Y-80713402D01*
X83347445Y-80659873D01*
X83501788Y-80581232D01*
X83641928Y-80479414D01*
X83764414Y-80356928D01*
X83866232Y-80216788D01*
X83944873Y-80062445D01*
X83998402Y-79897701D01*
X84025500Y-79726611D01*
X84025500Y-79553389D01*
X83998402Y-79382299D01*
X83944873Y-79217555D01*
X83944871Y-79217552D01*
X83944871Y-79217550D01*
X83866231Y-79063211D01*
X83764414Y-78923072D01*
X83656872Y-78815530D01*
X83623387Y-78754207D01*
X83628371Y-78684515D01*
X83670243Y-78628582D01*
X83679457Y-78622310D01*
X83686357Y-78618054D01*
X83743656Y-78582712D01*
X83867712Y-78458656D01*
X83959814Y-78309334D01*
X84014999Y-78142797D01*
X84025500Y-78040009D01*
X84025499Y-77239992D01*
X84014999Y-77137203D01*
X83959814Y-76970666D01*
X83867712Y-76821344D01*
X83743656Y-76697288D01*
X83647850Y-76638195D01*
X83594336Y-76605187D01*
X83594331Y-76605185D01*
X83576852Y-76599393D01*
X83427797Y-76550001D01*
X83427795Y-76550000D01*
X83325010Y-76539500D01*
X81974998Y-76539500D01*
X81974981Y-76539501D01*
X81872203Y-76550000D01*
X81872200Y-76550001D01*
X81705668Y-76605185D01*
X81705663Y-76605187D01*
X81556342Y-76697289D01*
X81432289Y-76821342D01*
X81340187Y-76970663D01*
X81340186Y-76970666D01*
X81285001Y-77137203D01*
X81285001Y-77137204D01*
X81285000Y-77137204D01*
X81274500Y-77239983D01*
X74809483Y-77239983D01*
X75135558Y-76692789D01*
X75137837Y-76689115D01*
X75708651Y-75804863D01*
X75711068Y-75801263D01*
X76313177Y-74938042D01*
X76315739Y-74934506D01*
X76948356Y-74093439D01*
X76951054Y-74089982D01*
X77599368Y-73289431D01*
X77608045Y-73279797D01*
X77610001Y-73277841D01*
X77632037Y-73255806D01*
X77637587Y-73246192D01*
X77650028Y-73228435D01*
X77657162Y-73219942D01*
X77657164Y-73219940D01*
X77673569Y-73184801D01*
X77678539Y-73175260D01*
X77697929Y-73141678D01*
X77700799Y-73130962D01*
X77708220Y-73110587D01*
X77712917Y-73100530D01*
X77719672Y-73062327D01*
X77721994Y-73051859D01*
X77732037Y-73014384D01*
X77732037Y-73003285D01*
X77733932Y-72981690D01*
X77735865Y-72970758D01*
X77732504Y-72932127D01*
X77732037Y-72921379D01*
X77732037Y-72882597D01*
X77729164Y-72871877D01*
X77725404Y-72850521D01*
X77724443Y-72839476D01*
X77724443Y-72839471D01*
X77717559Y-72820529D01*
X77711199Y-72803026D01*
X77707968Y-72792769D01*
X77697930Y-72755310D01*
X77697929Y-72755306D01*
X77692376Y-72745689D01*
X77683221Y-72726042D01*
X77679430Y-72715610D01*
X77657208Y-72683841D01*
X77651430Y-72674767D01*
X77632039Y-72641181D01*
X77632035Y-72641176D01*
X77624188Y-72633329D01*
X77610258Y-72616720D01*
X77603896Y-72607624D01*
X77574192Y-72582674D01*
X77566266Y-72575407D01*
X73837259Y-68846399D01*
X73803774Y-68785076D01*
X73808758Y-68715384D01*
X73850630Y-68659451D01*
X73916094Y-68635034D01*
X73958389Y-68639315D01*
X74168439Y-68698168D01*
X74418717Y-68732568D01*
X74453118Y-68737297D01*
X74453119Y-68737297D01*
X74740476Y-68737297D01*
X74771167Y-68733078D01*
X75025155Y-68698168D01*
X75301855Y-68620641D01*
X75414812Y-68571576D01*
X75565414Y-68506162D01*
X75565417Y-68506160D01*
X75565422Y-68506158D01*
X75810944Y-68356852D01*
X76033850Y-68175505D01*
X76229986Y-67965495D01*
X76395698Y-67730733D01*
X76527901Y-67475594D01*
X76624131Y-67204829D01*
X76682595Y-66923483D01*
X76702205Y-66636797D01*
X76682595Y-66350111D01*
X76624131Y-66068765D01*
X76602050Y-66006637D01*
X76598148Y-65936877D01*
X76632581Y-65876081D01*
X76694416Y-65843551D01*
X76764022Y-65849617D01*
X76806572Y-65877431D01*
X80535405Y-69606264D01*
X80542674Y-69614192D01*
X80567618Y-69643890D01*
X80567622Y-69643894D01*
X80576721Y-69650258D01*
X80593327Y-69664186D01*
X80601176Y-69672035D01*
X80601177Y-69672036D01*
X80601179Y-69672037D01*
X80634765Y-69691428D01*
X80643839Y-69697206D01*
X80675608Y-69719428D01*
X80675609Y-69719428D01*
X80675610Y-69719429D01*
X80686043Y-69723220D01*
X80705687Y-69732374D01*
X80715304Y-69737927D01*
X80752769Y-69747965D01*
X80763019Y-69751194D01*
X80799469Y-69764441D01*
X80810532Y-69765403D01*
X80831869Y-69769160D01*
X80842598Y-69772035D01*
X80881377Y-69772035D01*
X80892125Y-69772502D01*
X80930756Y-69775863D01*
X80930756Y-69775862D01*
X80930758Y-69775863D01*
X80941689Y-69773929D01*
X80963283Y-69772035D01*
X80974380Y-69772035D01*
X80974383Y-69772035D01*
X81011861Y-69761992D01*
X81022331Y-69759668D01*
X81060528Y-69752915D01*
X81070585Y-69748219D01*
X81090947Y-69740801D01*
X81101676Y-69737927D01*
X81133714Y-69719429D01*
X81135259Y-69718537D01*
X81144802Y-69713566D01*
X81179938Y-69697162D01*
X81188435Y-69690024D01*
X81206190Y-69677585D01*
X81215804Y-69672035D01*
X81239801Y-69648036D01*
X81249434Y-69639361D01*
X82049980Y-68991052D01*
X82053437Y-68988354D01*
X82894504Y-68355737D01*
X82898040Y-68353175D01*
X83761261Y-67751066D01*
X83764861Y-67748649D01*
X84649113Y-67177835D01*
X84652787Y-67175556D01*
X85556920Y-66636779D01*
X85560677Y-66634631D01*
X86483505Y-66128599D01*
X86487367Y-66126570D01*
X87427706Y-65653928D01*
X87431643Y-65652037D01*
X88388308Y-65213381D01*
X88392338Y-65211619D01*
X89364122Y-64807503D01*
X89368151Y-64805912D01*
X90353808Y-64436855D01*
X90357891Y-64435409D01*
X91356103Y-64101906D01*
X91360295Y-64100588D01*
X92369777Y-63803065D01*
X92374032Y-63801893D01*
X93393517Y-63540720D01*
X93397813Y-63539702D01*
X94425971Y-63315219D01*
X94430308Y-63314353D01*
X95465879Y-63126837D01*
X95470234Y-63126129D01*
X96511860Y-62975827D01*
X96516237Y-62975275D01*
X97562531Y-62862384D01*
X97566933Y-62861988D01*
X98616705Y-62786639D01*
X98621039Y-62786406D01*
X99629508Y-62750261D01*
X99672760Y-62748711D01*
X99677201Y-62748631D01*
X100729597Y-62748631D01*
X100734038Y-62748711D01*
G37*
G04 #@! TD.AperFunction*
G04 #@! TA.AperFunction,Conductor*
G36*
X127005703Y-79955400D02*
G01*
X127036866Y-79996674D01*
X127148070Y-80234963D01*
X127149833Y-80238919D01*
X127379831Y-80780335D01*
X127519555Y-81109249D01*
X127551016Y-81183307D01*
X127552636Y-81187315D01*
X127585229Y-81272156D01*
X127920598Y-82145152D01*
X127922080Y-82149221D01*
X128256362Y-83119315D01*
X128257701Y-83123434D01*
X128557894Y-84104591D01*
X128559089Y-84108755D01*
X128824840Y-85099826D01*
X128825888Y-85104028D01*
X129056853Y-86103721D01*
X129057755Y-86107957D01*
X129253682Y-87115193D01*
X129254434Y-87119459D01*
X129415055Y-88132860D01*
X129415658Y-88137149D01*
X129540791Y-89155551D01*
X129541244Y-89159858D01*
X129630733Y-90181997D01*
X129631036Y-90186318D01*
X129684774Y-91211001D01*
X129684925Y-91215329D01*
X129702853Y-92241632D01*
X129702853Y-92245964D01*
X129684939Y-93271466D01*
X129684788Y-93275794D01*
X129631050Y-94300478D01*
X129630747Y-94304799D01*
X129541258Y-95326938D01*
X129540805Y-95331245D01*
X129415672Y-96349647D01*
X129415069Y-96353936D01*
X129254448Y-97367337D01*
X129253696Y-97371603D01*
X129057768Y-98378839D01*
X129056866Y-98383075D01*
X128825900Y-99382768D01*
X128824852Y-99386970D01*
X128559101Y-100378041D01*
X128557906Y-100382205D01*
X128257712Y-101363362D01*
X128256373Y-101367481D01*
X127922085Y-102337590D01*
X127920602Y-102341660D01*
X127552654Y-103299457D01*
X127551031Y-103303472D01*
X127149840Y-104247877D01*
X127148077Y-104251833D01*
X126906866Y-104768700D01*
X126860678Y-104821125D01*
X126793478Y-104840257D01*
X126726603Y-104820021D01*
X126681285Y-104766841D01*
X126670500Y-104716261D01*
X126670500Y-94944050D01*
X126690185Y-94877011D01*
X126742989Y-94831256D01*
X126812147Y-94821312D01*
X126875703Y-94850337D01*
X126882181Y-94856369D01*
X126928917Y-94903105D01*
X127122421Y-95038600D01*
X127336507Y-95138429D01*
X127336516Y-95138433D01*
X127550000Y-95195634D01*
X127550000Y-94298012D01*
X127607007Y-94330925D01*
X127734174Y-94365000D01*
X127865826Y-94365000D01*
X127992993Y-94330925D01*
X128050000Y-94298012D01*
X128050000Y-95195633D01*
X128263483Y-95138433D01*
X128263492Y-95138429D01*
X128477578Y-95038600D01*
X128671082Y-94903105D01*
X128838105Y-94736082D01*
X128973600Y-94542578D01*
X129073429Y-94328492D01*
X129073432Y-94328486D01*
X129130636Y-94115000D01*
X128233012Y-94115000D01*
X128265925Y-94057993D01*
X128300000Y-93930826D01*
X128300000Y-93799174D01*
X128265925Y-93672007D01*
X128233012Y-93615000D01*
X129130636Y-93615000D01*
X129130635Y-93614999D01*
X129073432Y-93401513D01*
X129073429Y-93401507D01*
X128973600Y-93187422D01*
X128973599Y-93187420D01*
X128838113Y-92993926D01*
X128838108Y-92993920D01*
X128716053Y-92871865D01*
X128682568Y-92810542D01*
X128687552Y-92740850D01*
X128729424Y-92684917D01*
X128760400Y-92668002D01*
X128892331Y-92618796D01*
X129007546Y-92532546D01*
X129093796Y-92417331D01*
X129144091Y-92282483D01*
X129150500Y-92222873D01*
X129150499Y-90427128D01*
X129144091Y-90367517D01*
X129122360Y-90309254D01*
X129093797Y-90232671D01*
X129093793Y-90232664D01*
X129007547Y-90117455D01*
X129007544Y-90117452D01*
X128892335Y-90031206D01*
X128892328Y-90031202D01*
X128757482Y-89980908D01*
X128757483Y-89980908D01*
X128697883Y-89974501D01*
X128697881Y-89974500D01*
X128697873Y-89974500D01*
X128697865Y-89974500D01*
X126924500Y-89974500D01*
X126857461Y-89954815D01*
X126811706Y-89902011D01*
X126800500Y-89850500D01*
X126800500Y-80049113D01*
X126820185Y-79982074D01*
X126872989Y-79936319D01*
X126942147Y-79926375D01*
X127005703Y-79955400D01*
G37*
G04 #@! TD.AperFunction*
M02*
