G04 #@! TF.GenerationSoftware,KiCad,Pcbnew,8.0.8-8.0.8-0~ubuntu24.04.1*
G04 #@! TF.CreationDate,2025-03-31T18:32:50+09:00*
G04 #@! TF.ProjectId,multicopter,6d756c74-6963-46f7-9074-65722e6b6963,rev?*
G04 #@! TF.SameCoordinates,Original*
G04 #@! TF.FileFunction,Paste,Top*
G04 #@! TF.FilePolarity,Positive*
%FSLAX46Y46*%
G04 Gerber Fmt 4.6, Leading zero omitted, Abs format (unit mm)*
G04 Created by KiCad (PCBNEW 8.0.8-8.0.8-0~ubuntu24.04.1) date 2025-03-31 18:32:50*
%MOMM*%
%LPD*%
G01*
G04 APERTURE LIST*
G04 Aperture macros list*
%AMRoundRect*
0 Rectangle with rounded corners*
0 $1 Rounding radius*
0 $2 $3 $4 $5 $6 $7 $8 $9 X,Y pos of 4 corners*
0 Add a 4 corners polygon primitive as box body*
4,1,4,$2,$3,$4,$5,$6,$7,$8,$9,$2,$3,0*
0 Add four circle primitives for the rounded corners*
1,1,$1+$1,$2,$3*
1,1,$1+$1,$4,$5*
1,1,$1+$1,$6,$7*
1,1,$1+$1,$8,$9*
0 Add four rect primitives between the rounded corners*
20,1,$1+$1,$2,$3,$4,$5,0*
20,1,$1+$1,$4,$5,$6,$7,0*
20,1,$1+$1,$6,$7,$8,$9,0*
20,1,$1+$1,$8,$9,$2,$3,0*%
G04 Aperture macros list end*
%ADD10RoundRect,0.200000X-0.200000X-0.275000X0.200000X-0.275000X0.200000X0.275000X-0.200000X0.275000X0*%
%ADD11RoundRect,0.225000X-0.225000X-0.250000X0.225000X-0.250000X0.225000X0.250000X-0.225000X0.250000X0*%
%ADD12RoundRect,0.150000X-0.587500X-0.150000X0.587500X-0.150000X0.587500X0.150000X-0.587500X0.150000X0*%
%ADD13RoundRect,0.200000X0.200000X0.275000X-0.200000X0.275000X-0.200000X-0.275000X0.200000X-0.275000X0*%
%ADD14RoundRect,0.150000X-0.512500X-0.150000X0.512500X-0.150000X0.512500X0.150000X-0.512500X0.150000X0*%
%ADD15RoundRect,0.150000X0.587500X0.150000X-0.587500X0.150000X-0.587500X-0.150000X0.587500X-0.150000X0*%
%ADD16RoundRect,0.225000X0.225000X0.250000X-0.225000X0.250000X-0.225000X-0.250000X0.225000X-0.250000X0*%
%ADD17RoundRect,0.250000X-0.300000X-0.300000X0.300000X-0.300000X0.300000X0.300000X-0.300000X0.300000X0*%
%ADD18RoundRect,0.218750X-0.218750X-0.256250X0.218750X-0.256250X0.218750X0.256250X-0.218750X0.256250X0*%
%ADD19RoundRect,0.250000X0.300000X0.300000X-0.300000X0.300000X-0.300000X-0.300000X0.300000X-0.300000X0*%
%ADD20R,0.900000X1.000000*%
%ADD21R,0.254000X0.675000*%
%ADD22R,0.675000X0.254000*%
G04 APERTURE END LIST*
D10*
X78395000Y-84280000D03*
X80045000Y-84280000D03*
D11*
X91965000Y-119190000D03*
X93515000Y-119190000D03*
D10*
X99145000Y-73870000D03*
X100795000Y-73870000D03*
D12*
X123950000Y-99870000D03*
X123950000Y-101770000D03*
X125825000Y-100820000D03*
D13*
X95385000Y-90550000D03*
X93735000Y-90550000D03*
D11*
X116045000Y-69810000D03*
X117595000Y-69810000D03*
D14*
X116160000Y-95500000D03*
X116160000Y-96450000D03*
X116160000Y-97400000D03*
X118435000Y-97400000D03*
X118435000Y-96450000D03*
X118435000Y-95500000D03*
D13*
X100920000Y-108820000D03*
X99270000Y-108820000D03*
D15*
X75857500Y-85300000D03*
X75857500Y-83400000D03*
X73982500Y-84350000D03*
D11*
X115810000Y-114200000D03*
X117360000Y-114200000D03*
D10*
X78385000Y-100600000D03*
X80035000Y-100600000D03*
D13*
X117785000Y-101580000D03*
X116135000Y-101580000D03*
D16*
X84175000Y-113190000D03*
X82625000Y-113190000D03*
D17*
X116180000Y-72290000D03*
X118980000Y-72290000D03*
D13*
X121445000Y-100900000D03*
X119795000Y-100900000D03*
X82615000Y-91760000D03*
X80965000Y-91760000D03*
X117845000Y-82760000D03*
X116195000Y-82760000D03*
D18*
X80962500Y-93560000D03*
X82537500Y-93560000D03*
D10*
X120025000Y-83760000D03*
X121675000Y-83760000D03*
D19*
X123647500Y-96490000D03*
X120847500Y-96490000D03*
D13*
X82650000Y-89870000D03*
X81000000Y-89870000D03*
X100780000Y-75720000D03*
X99130000Y-75720000D03*
X118755000Y-90030000D03*
X117105000Y-90030000D03*
D15*
X75947500Y-101012500D03*
X75947500Y-99112500D03*
X74072500Y-100062500D03*
D10*
X82065000Y-101150000D03*
X83715000Y-101150000D03*
X105390000Y-90670000D03*
X107040000Y-90670000D03*
D17*
X115942500Y-111910000D03*
X118742500Y-111910000D03*
X92740000Y-67990000D03*
X95540000Y-67990000D03*
D10*
X93675000Y-87650000D03*
X95325000Y-87650000D03*
X99260000Y-110600000D03*
X100910000Y-110600000D03*
X105370000Y-93850000D03*
X107020000Y-93850000D03*
D19*
X84117500Y-73290000D03*
X81317500Y-73290000D03*
D16*
X122880000Y-90040000D03*
X121330000Y-90040000D03*
D20*
X75390000Y-92710000D03*
X71290000Y-92710000D03*
X75390000Y-91110000D03*
X71290000Y-91110000D03*
D13*
X95365000Y-93820000D03*
X93715000Y-93820000D03*
D10*
X105280000Y-87400000D03*
X106930000Y-87400000D03*
X82225000Y-83370000D03*
X83875000Y-83370000D03*
D15*
X107330000Y-66280000D03*
X107330000Y-64380000D03*
X105455000Y-65330000D03*
D21*
X97935000Y-90827500D03*
D22*
X97797500Y-91740000D03*
X97797500Y-92240000D03*
X97797500Y-92740000D03*
X97797500Y-93240000D03*
D21*
X97935000Y-94152500D03*
X98435000Y-94152500D03*
X98935000Y-94152500D03*
X99435000Y-94152500D03*
X99935000Y-94152500D03*
X100435000Y-94152500D03*
X100935000Y-94152500D03*
X101435000Y-94152500D03*
X101935000Y-94152500D03*
X102435000Y-94152500D03*
D22*
X102572500Y-93240000D03*
X102572500Y-92740000D03*
X102572500Y-92240000D03*
X102572500Y-91740000D03*
D21*
X102435000Y-90827500D03*
X101935000Y-90827500D03*
X101435000Y-90827500D03*
X100935000Y-90827500D03*
X100435000Y-90827500D03*
X99935000Y-90827500D03*
X99435000Y-90827500D03*
X98935000Y-90827500D03*
X98435000Y-90827500D03*
D11*
X99595000Y-96380000D03*
X101145000Y-96380000D03*
D16*
X99335000Y-87090000D03*
X97785000Y-87090000D03*
D15*
X107807500Y-117590000D03*
X107807500Y-115690000D03*
X105932500Y-116640000D03*
D16*
X84175000Y-70640000D03*
X82625000Y-70640000D03*
X103005000Y-87620000D03*
X101455000Y-87620000D03*
D11*
X93430000Y-65240000D03*
X94980000Y-65240000D03*
D19*
X84110000Y-110860000D03*
X81310000Y-110860000D03*
D10*
X117105000Y-93130000D03*
X118755000Y-93130000D03*
D12*
X124292500Y-82740000D03*
X124292500Y-84640000D03*
X126167500Y-83690000D03*
D11*
X121265000Y-93150000D03*
X122815000Y-93150000D03*
D17*
X91502500Y-115740000D03*
X94302500Y-115740000D03*
M02*
